%TF.GenerationSoftware,KiCad,Pcbnew,8.0.6*%
%TF.CreationDate,2024-12-24T13:29:52-06:00*%
%TF.ProjectId,RECESSIM-CW312T-SAM4C32,52454345-5353-4494-9d2d-435733313254,rev?*%
%TF.SameCoordinates,Original*%
%TF.FileFunction,Profile,NP*%
%FSLAX46Y46*%
G04 Gerber Fmt 4.6, Leading zero omitted, Abs format (unit mm)*
G04 Created by KiCad (PCBNEW 8.0.6) date 2024-12-24 13:29:52*
%MOMM*%
%LPD*%
G01*
G04 APERTURE LIST*
%TA.AperFunction,Profile*%
%ADD10C,0.100000*%
%TD*%
G04 APERTURE END LIST*
D10*
%TO.C,P1*%
X128430000Y-81050000D02*
X128430000Y-126250000D01*
X138350000Y-81050000D02*
X128430000Y-81050000D01*
X138350000Y-86250000D02*
X138350000Y-81050000D01*
X140850000Y-78050000D02*
X141350000Y-77550000D01*
X140850000Y-86250000D02*
X138350000Y-86250000D01*
X140850000Y-86250000D02*
X140850000Y-78050000D01*
X161550000Y-77550000D02*
X141350000Y-77550000D01*
X162050000Y-78050000D02*
X161550000Y-77550000D01*
X162050000Y-85000000D02*
X162050000Y-78050000D01*
X163950000Y-78050000D02*
X164450000Y-77550000D01*
X163950000Y-85000000D02*
X163950000Y-78050000D01*
X174650000Y-77550000D02*
X164450000Y-77550000D01*
X175150000Y-78050000D02*
X174650000Y-77550000D01*
X175150000Y-86260000D02*
X175150000Y-78050000D01*
X175150000Y-86260000D02*
X177660000Y-86260000D01*
X177660000Y-81050000D02*
X187100000Y-81050000D01*
X177660000Y-86260000D02*
X177660000Y-81050000D01*
X187100000Y-81050000D02*
X187100000Y-126250000D01*
X187100000Y-126250000D02*
X128430000Y-126250000D01*
X163950000Y-85000000D02*
G75*
G02*
X162050000Y-85000000I-950000J0D01*
G01*
%TD*%
M02*
