%TF.GenerationSoftware,KiCad,Pcbnew,8.0.6*%
%TF.CreationDate,2024-12-24T13:29:52-06:00*%
%TF.ProjectId,RECESSIM-CW312T-SAM4C32,52454345-5353-4494-9d2d-435733313254,rev?*%
%TF.SameCoordinates,Original*%
%TF.FileFunction,Legend,Bot*%
%TF.FilePolarity,Positive*%
%FSLAX46Y46*%
G04 Gerber Fmt 4.6, Leading zero omitted, Abs format (unit mm)*
G04 Created by KiCad (PCBNEW 8.0.6) date 2024-12-24 13:29:52*
%MOMM*%
%LPD*%
G01*
G04 APERTURE LIST*
%ADD10C,0.150000*%
%ADD11C,0.120000*%
G04 APERTURE END LIST*
D10*
X162166666Y-102179580D02*
X162214285Y-102227200D01*
X162214285Y-102227200D02*
X162357142Y-102274819D01*
X162357142Y-102274819D02*
X162452380Y-102274819D01*
X162452380Y-102274819D02*
X162595237Y-102227200D01*
X162595237Y-102227200D02*
X162690475Y-102131961D01*
X162690475Y-102131961D02*
X162738094Y-102036723D01*
X162738094Y-102036723D02*
X162785713Y-101846247D01*
X162785713Y-101846247D02*
X162785713Y-101703390D01*
X162785713Y-101703390D02*
X162738094Y-101512914D01*
X162738094Y-101512914D02*
X162690475Y-101417676D01*
X162690475Y-101417676D02*
X162595237Y-101322438D01*
X162595237Y-101322438D02*
X162452380Y-101274819D01*
X162452380Y-101274819D02*
X162357142Y-101274819D01*
X162357142Y-101274819D02*
X162214285Y-101322438D01*
X162214285Y-101322438D02*
X162166666Y-101370057D01*
X161833332Y-101274819D02*
X161166666Y-101274819D01*
X161166666Y-101274819D02*
X161595237Y-102274819D01*
X159666666Y-108609580D02*
X159714285Y-108657200D01*
X159714285Y-108657200D02*
X159857142Y-108704819D01*
X159857142Y-108704819D02*
X159952380Y-108704819D01*
X159952380Y-108704819D02*
X160095237Y-108657200D01*
X160095237Y-108657200D02*
X160190475Y-108561961D01*
X160190475Y-108561961D02*
X160238094Y-108466723D01*
X160238094Y-108466723D02*
X160285713Y-108276247D01*
X160285713Y-108276247D02*
X160285713Y-108133390D01*
X160285713Y-108133390D02*
X160238094Y-107942914D01*
X160238094Y-107942914D02*
X160190475Y-107847676D01*
X160190475Y-107847676D02*
X160095237Y-107752438D01*
X160095237Y-107752438D02*
X159952380Y-107704819D01*
X159952380Y-107704819D02*
X159857142Y-107704819D01*
X159857142Y-107704819D02*
X159714285Y-107752438D01*
X159714285Y-107752438D02*
X159666666Y-107800057D01*
X159190475Y-108704819D02*
X158999999Y-108704819D01*
X158999999Y-108704819D02*
X158904761Y-108657200D01*
X158904761Y-108657200D02*
X158857142Y-108609580D01*
X158857142Y-108609580D02*
X158761904Y-108466723D01*
X158761904Y-108466723D02*
X158714285Y-108276247D01*
X158714285Y-108276247D02*
X158714285Y-107895295D01*
X158714285Y-107895295D02*
X158761904Y-107800057D01*
X158761904Y-107800057D02*
X158809523Y-107752438D01*
X158809523Y-107752438D02*
X158904761Y-107704819D01*
X158904761Y-107704819D02*
X159095237Y-107704819D01*
X159095237Y-107704819D02*
X159190475Y-107752438D01*
X159190475Y-107752438D02*
X159238094Y-107800057D01*
X159238094Y-107800057D02*
X159285713Y-107895295D01*
X159285713Y-107895295D02*
X159285713Y-108133390D01*
X159285713Y-108133390D02*
X159238094Y-108228628D01*
X159238094Y-108228628D02*
X159190475Y-108276247D01*
X159190475Y-108276247D02*
X159095237Y-108323866D01*
X159095237Y-108323866D02*
X158904761Y-108323866D01*
X158904761Y-108323866D02*
X158809523Y-108276247D01*
X158809523Y-108276247D02*
X158761904Y-108228628D01*
X158761904Y-108228628D02*
X158714285Y-108133390D01*
X156666666Y-99609580D02*
X156714285Y-99657200D01*
X156714285Y-99657200D02*
X156857142Y-99704819D01*
X156857142Y-99704819D02*
X156952380Y-99704819D01*
X156952380Y-99704819D02*
X157095237Y-99657200D01*
X157095237Y-99657200D02*
X157190475Y-99561961D01*
X157190475Y-99561961D02*
X157238094Y-99466723D01*
X157238094Y-99466723D02*
X157285713Y-99276247D01*
X157285713Y-99276247D02*
X157285713Y-99133390D01*
X157285713Y-99133390D02*
X157238094Y-98942914D01*
X157238094Y-98942914D02*
X157190475Y-98847676D01*
X157190475Y-98847676D02*
X157095237Y-98752438D01*
X157095237Y-98752438D02*
X156952380Y-98704819D01*
X156952380Y-98704819D02*
X156857142Y-98704819D01*
X156857142Y-98704819D02*
X156714285Y-98752438D01*
X156714285Y-98752438D02*
X156666666Y-98800057D01*
X155809523Y-98704819D02*
X155999999Y-98704819D01*
X155999999Y-98704819D02*
X156095237Y-98752438D01*
X156095237Y-98752438D02*
X156142856Y-98800057D01*
X156142856Y-98800057D02*
X156238094Y-98942914D01*
X156238094Y-98942914D02*
X156285713Y-99133390D01*
X156285713Y-99133390D02*
X156285713Y-99514342D01*
X156285713Y-99514342D02*
X156238094Y-99609580D01*
X156238094Y-99609580D02*
X156190475Y-99657200D01*
X156190475Y-99657200D02*
X156095237Y-99704819D01*
X156095237Y-99704819D02*
X155904761Y-99704819D01*
X155904761Y-99704819D02*
X155809523Y-99657200D01*
X155809523Y-99657200D02*
X155761904Y-99609580D01*
X155761904Y-99609580D02*
X155714285Y-99514342D01*
X155714285Y-99514342D02*
X155714285Y-99276247D01*
X155714285Y-99276247D02*
X155761904Y-99181009D01*
X155761904Y-99181009D02*
X155809523Y-99133390D01*
X155809523Y-99133390D02*
X155904761Y-99085771D01*
X155904761Y-99085771D02*
X156095237Y-99085771D01*
X156095237Y-99085771D02*
X156190475Y-99133390D01*
X156190475Y-99133390D02*
X156238094Y-99181009D01*
X156238094Y-99181009D02*
X156285713Y-99276247D01*
X153191666Y-105609580D02*
X153239285Y-105657200D01*
X153239285Y-105657200D02*
X153382142Y-105704819D01*
X153382142Y-105704819D02*
X153477380Y-105704819D01*
X153477380Y-105704819D02*
X153620237Y-105657200D01*
X153620237Y-105657200D02*
X153715475Y-105561961D01*
X153715475Y-105561961D02*
X153763094Y-105466723D01*
X153763094Y-105466723D02*
X153810713Y-105276247D01*
X153810713Y-105276247D02*
X153810713Y-105133390D01*
X153810713Y-105133390D02*
X153763094Y-104942914D01*
X153763094Y-104942914D02*
X153715475Y-104847676D01*
X153715475Y-104847676D02*
X153620237Y-104752438D01*
X153620237Y-104752438D02*
X153477380Y-104704819D01*
X153477380Y-104704819D02*
X153382142Y-104704819D01*
X153382142Y-104704819D02*
X153239285Y-104752438D01*
X153239285Y-104752438D02*
X153191666Y-104800057D01*
X152620237Y-105133390D02*
X152715475Y-105085771D01*
X152715475Y-105085771D02*
X152763094Y-105038152D01*
X152763094Y-105038152D02*
X152810713Y-104942914D01*
X152810713Y-104942914D02*
X152810713Y-104895295D01*
X152810713Y-104895295D02*
X152763094Y-104800057D01*
X152763094Y-104800057D02*
X152715475Y-104752438D01*
X152715475Y-104752438D02*
X152620237Y-104704819D01*
X152620237Y-104704819D02*
X152429761Y-104704819D01*
X152429761Y-104704819D02*
X152334523Y-104752438D01*
X152334523Y-104752438D02*
X152286904Y-104800057D01*
X152286904Y-104800057D02*
X152239285Y-104895295D01*
X152239285Y-104895295D02*
X152239285Y-104942914D01*
X152239285Y-104942914D02*
X152286904Y-105038152D01*
X152286904Y-105038152D02*
X152334523Y-105085771D01*
X152334523Y-105085771D02*
X152429761Y-105133390D01*
X152429761Y-105133390D02*
X152620237Y-105133390D01*
X152620237Y-105133390D02*
X152715475Y-105181009D01*
X152715475Y-105181009D02*
X152763094Y-105228628D01*
X152763094Y-105228628D02*
X152810713Y-105323866D01*
X152810713Y-105323866D02*
X152810713Y-105514342D01*
X152810713Y-105514342D02*
X152763094Y-105609580D01*
X152763094Y-105609580D02*
X152715475Y-105657200D01*
X152715475Y-105657200D02*
X152620237Y-105704819D01*
X152620237Y-105704819D02*
X152429761Y-105704819D01*
X152429761Y-105704819D02*
X152334523Y-105657200D01*
X152334523Y-105657200D02*
X152286904Y-105609580D01*
X152286904Y-105609580D02*
X152239285Y-105514342D01*
X152239285Y-105514342D02*
X152239285Y-105323866D01*
X152239285Y-105323866D02*
X152286904Y-105228628D01*
X152286904Y-105228628D02*
X152334523Y-105181009D01*
X152334523Y-105181009D02*
X152429761Y-105133390D01*
D11*
%TO.C,C7*%
X161859420Y-102740000D02*
X162140580Y-102740000D01*
X161859420Y-103760000D02*
X162140580Y-103760000D01*
%TO.C,C9*%
X156990000Y-108134420D02*
X156990000Y-108415580D01*
X158010000Y-108134420D02*
X158010000Y-108415580D01*
%TO.C,C6*%
X157990000Y-99365580D02*
X157990000Y-99084420D01*
X159010000Y-99365580D02*
X159010000Y-99084420D01*
%TO.C,C8*%
X153165580Y-106240000D02*
X152884420Y-106240000D01*
X153165580Y-107260000D02*
X152884420Y-107260000D01*
%TD*%
M02*
