%TF.GenerationSoftware,KiCad,Pcbnew,8.0.6*%
%TF.CreationDate,2024-12-26T15:20:47-06:00*%
%TF.ProjectId,RECESSIM-CW312T-SAM4C32,52454345-5353-4494-9d2d-435733313254,rev?*%
%TF.SameCoordinates,Original*%
%TF.FileFunction,Copper,L1,Top*%
%TF.FilePolarity,Positive*%
%FSLAX46Y46*%
G04 Gerber Fmt 4.6, Leading zero omitted, Abs format (unit mm)*
G04 Created by KiCad (PCBNEW 8.0.6) date 2024-12-26 15:20:47*
%MOMM*%
%LPD*%
G01*
G04 APERTURE LIST*
G04 Aperture macros list*
%AMRoundRect*
0 Rectangle with rounded corners*
0 $1 Rounding radius*
0 $2 $3 $4 $5 $6 $7 $8 $9 X,Y pos of 4 corners*
0 Add a 4 corners polygon primitive as box body*
4,1,4,$2,$3,$4,$5,$6,$7,$8,$9,$2,$3,0*
0 Add four circle primitives for the rounded corners*
1,1,$1+$1,$2,$3*
1,1,$1+$1,$4,$5*
1,1,$1+$1,$6,$7*
1,1,$1+$1,$8,$9*
0 Add four rect primitives between the rounded corners*
20,1,$1+$1,$2,$3,$4,$5,0*
20,1,$1+$1,$4,$5,$6,$7,0*
20,1,$1+$1,$6,$7,$8,$9,0*
20,1,$1+$1,$8,$9,$2,$3,0*%
%AMFreePoly0*
4,1,19,0.550000,-0.750000,0.000000,-0.750000,0.000000,-0.744911,-0.071157,-0.744911,-0.207708,-0.704816,-0.327430,-0.627875,-0.420627,-0.520320,-0.479746,-0.390866,-0.500000,-0.250000,-0.500000,0.250000,-0.479746,0.390866,-0.420627,0.520320,-0.327430,0.627875,-0.207708,0.704816,-0.071157,0.744911,0.000000,0.744911,0.000000,0.750000,0.550000,0.750000,0.550000,-0.750000,0.550000,-0.750000,
$1*%
%AMFreePoly1*
4,1,19,0.000000,0.744911,0.071157,0.744911,0.207708,0.704816,0.327430,0.627875,0.420627,0.520320,0.479746,0.390866,0.500000,0.250000,0.500000,-0.250000,0.479746,-0.390866,0.420627,-0.520320,0.327430,-0.627875,0.207708,-0.704816,0.071157,-0.744911,0.000000,-0.744911,0.000000,-0.750000,-0.550000,-0.750000,-0.550000,0.750000,0.000000,0.750000,0.000000,0.744911,0.000000,0.744911,
$1*%
G04 Aperture macros list end*
%TA.AperFunction,SMDPad,CuDef*%
%ADD10RoundRect,0.200000X-0.275000X0.200000X-0.275000X-0.200000X0.275000X-0.200000X0.275000X0.200000X0*%
%TD*%
%TA.AperFunction,SMDPad,CuDef*%
%ADD11R,1.000000X1.000000*%
%TD*%
%TA.AperFunction,ComponentPad*%
%ADD12C,1.000000*%
%TD*%
%TA.AperFunction,ComponentPad*%
%ADD13C,6.200000*%
%TD*%
%TA.AperFunction,ConnectorPad*%
%ADD14R,4.300000X0.700000*%
%TD*%
%TA.AperFunction,ConnectorPad*%
%ADD15R,3.200000X0.700000*%
%TD*%
%TA.AperFunction,SMDPad,CuDef*%
%ADD16RoundRect,0.225000X-0.250000X0.225000X-0.250000X-0.225000X0.250000X-0.225000X0.250000X0.225000X0*%
%TD*%
%TA.AperFunction,SMDPad,CuDef*%
%ADD17RoundRect,0.200000X0.275000X-0.200000X0.275000X0.200000X-0.275000X0.200000X-0.275000X-0.200000X0*%
%TD*%
%TA.AperFunction,SMDPad,CuDef*%
%ADD18RoundRect,0.200000X-0.200000X-0.275000X0.200000X-0.275000X0.200000X0.275000X-0.200000X0.275000X0*%
%TD*%
%TA.AperFunction,SMDPad,CuDef*%
%ADD19RoundRect,0.225000X0.250000X-0.225000X0.250000X0.225000X-0.250000X0.225000X-0.250000X-0.225000X0*%
%TD*%
%TA.AperFunction,SMDPad,CuDef*%
%ADD20FreePoly0,90.000000*%
%TD*%
%TA.AperFunction,SMDPad,CuDef*%
%ADD21R,1.500000X1.000000*%
%TD*%
%TA.AperFunction,SMDPad,CuDef*%
%ADD22FreePoly1,90.000000*%
%TD*%
%TA.AperFunction,SMDPad,CuDef*%
%ADD23RoundRect,0.075000X-0.662500X-0.075000X0.662500X-0.075000X0.662500X0.075000X-0.662500X0.075000X0*%
%TD*%
%TA.AperFunction,SMDPad,CuDef*%
%ADD24RoundRect,0.075000X-0.075000X-0.662500X0.075000X-0.662500X0.075000X0.662500X-0.075000X0.662500X0*%
%TD*%
%TA.AperFunction,ViaPad*%
%ADD25C,0.600000*%
%TD*%
%TA.AperFunction,ViaPad*%
%ADD26C,0.800000*%
%TD*%
%TA.AperFunction,Conductor*%
%ADD27C,0.200000*%
%TD*%
%TA.AperFunction,Conductor*%
%ADD28C,0.500000*%
%TD*%
G04 APERTURE END LIST*
D10*
%TO.P,R7,1*%
%TO.N,VCC1.2*%
X171550000Y-96450000D03*
%TO.P,R7,2*%
%TO.N,Net-(U1-VDDPLL)*%
X171550000Y-98100000D03*
%TD*%
D11*
%TO.P,TP22,1,1*%
%TO.N,Net-(U1-PA6{slash}PGMNOE)*%
X171094934Y-118780542D03*
%TD*%
%TO.P,TP15,1,1*%
%TO.N,/nRST*%
X166644934Y-118780542D03*
%TD*%
D12*
%TO.P,P1,MH4,MH*%
%TO.N,GND*%
X176544934Y-67180542D03*
X178204934Y-67870542D03*
X174884934Y-67870542D03*
X178894934Y-69530542D03*
D13*
X176544934Y-69530542D03*
D12*
X174194934Y-69530542D03*
X178204934Y-71190542D03*
X174884934Y-71190542D03*
X176544934Y-71880542D03*
%TO.P,P1,MH3,MH*%
X176544934Y-117180542D03*
X178204934Y-117870542D03*
X174884934Y-117870542D03*
X178894934Y-119530542D03*
D13*
X176544934Y-119530542D03*
D12*
X174194934Y-119530542D03*
X178204934Y-121190542D03*
X174884934Y-121190542D03*
X176544934Y-121880542D03*
%TO.P,P1,MH2,MH*%
X140984934Y-67180542D03*
X142644934Y-67870542D03*
X139324934Y-67870542D03*
X143344934Y-69530542D03*
D13*
X140994934Y-69530542D03*
D12*
X138644934Y-69530542D03*
X142644934Y-71190542D03*
X139324934Y-71190542D03*
X140984934Y-71880542D03*
%TO.P,P1,MH1,MH*%
X140994934Y-117180542D03*
X142654934Y-117870542D03*
X139334934Y-117870542D03*
X143344934Y-119530542D03*
D13*
X140994934Y-119530542D03*
D12*
X138644934Y-119530542D03*
X142654934Y-121190542D03*
X139334934Y-121190542D03*
X140994934Y-121880542D03*
D14*
%TO.P,P1,B32*%
%TO.N,/JTAG_TCK*%
X135794934Y-111030542D03*
D15*
%TO.P,P1,B31*%
%TO.N,/JTAG_TMS*%
X136344934Y-110030542D03*
D14*
%TO.P,P1,B30*%
%TO.N,/JTAG_TDO*%
X135794934Y-109030542D03*
%TO.P,P1,B29*%
%TO.N,/JTAG_TDI*%
X135794934Y-108030542D03*
%TO.P,P1,B28*%
%TO.N,unconnected-(P1-PadB28)*%
X135794934Y-107030542D03*
%TO.P,P1,B27*%
%TO.N,/CLKIN*%
X135794934Y-106030542D03*
%TO.P,P1,B26*%
%TO.N,/CS*%
X135794934Y-105030542D03*
%TO.P,P1,B25*%
%TO.N,/BOOT_MODE*%
X135794934Y-104030542D03*
%TO.P,P1,B24*%
%TO.N,/MOSI*%
X135794934Y-103030542D03*
%TO.P,P1,B23*%
%TO.N,/MISO*%
X135794934Y-102030542D03*
%TO.P,P1,B22*%
%TO.N,GND*%
X135794934Y-101030542D03*
%TO.P,P1,B21*%
X135794934Y-100030542D03*
%TO.P,P1,B20*%
%TO.N,/SCK*%
X135794934Y-99030542D03*
%TO.P,P1,B19*%
%TO.N,/GPIO4*%
X135794934Y-98030542D03*
%TO.P,P1,B18*%
%TO.N,/GPIO3*%
X135794934Y-97030542D03*
%TO.P,P1,B17*%
%TO.N,/GPIO2_RX*%
X135794934Y-96030542D03*
%TO.P,P1,B16*%
%TO.N,/GPIO1_TX*%
X135794934Y-95030542D03*
%TO.P,P1,B15*%
%TO.N,GND*%
X135794934Y-94030542D03*
%TO.P,P1,B14*%
%TO.N,/nRST*%
X135794934Y-93030542D03*
%TO.P,P1,B13*%
%TO.N,/LED3*%
X135794934Y-92030542D03*
%TO.P,P1,B12*%
%TO.N,/LED2*%
X135794934Y-91030542D03*
%TO.P,P1,B11*%
%TO.N,/LED1*%
X135794934Y-88030542D03*
%TO.P,P1,B10*%
%TO.N,VCC*%
X135794934Y-87030542D03*
%TO.P,P1,B9*%
%TO.N,GND*%
X135794934Y-86030542D03*
%TO.P,P1,B8*%
%TO.N,/VCC1.8*%
X135794934Y-85030542D03*
%TO.P,P1,B7*%
%TO.N,VCC1.2*%
X135794934Y-84030542D03*
%TO.P,P1,B6*%
%TO.N,/VCC1.0*%
X135794934Y-83030542D03*
%TO.P,P1,B5*%
%TO.N,VCC1.2*%
X135794934Y-82030542D03*
%TO.P,P1,B4*%
%TO.N,/FILT_HP*%
X135794934Y-81030542D03*
%TO.P,P1,B3*%
%TO.N,GND*%
X135794934Y-80030542D03*
%TO.P,P1,B2*%
%TO.N,/FILT_HP*%
X135794934Y-79030542D03*
%TO.P,P1,B1*%
%TO.N,/SHUNTL*%
X135794934Y-78030542D03*
%TD*%
D16*
%TO.P,C5,1*%
%TO.N,Net-(U1-VDDPLL)*%
X173294934Y-100005542D03*
%TO.P,C5,2*%
%TO.N,GND*%
X173294934Y-101555542D03*
%TD*%
D17*
%TO.P,R6,1*%
%TO.N,VCC*%
X159694934Y-110855542D03*
%TO.P,R6,2*%
%TO.N,Net-(U1-WKUP0{slash}TMP0)*%
X159694934Y-109205542D03*
%TD*%
D18*
%TO.P,R3,1*%
%TO.N,/FILT_HP*%
X143294934Y-94030542D03*
%TO.P,R3,2*%
%TO.N,/SHUNTL*%
X144944934Y-94030542D03*
%TD*%
D11*
%TO.P,TP14,1,1*%
%TO.N,Net-(U1-XOUT32)*%
X164394934Y-118780542D03*
%TD*%
%TO.P,TP7,1,1*%
%TO.N,Net-(U1-JTAGSEL)*%
X153144934Y-118780542D03*
%TD*%
%TO.P,TP10,1,1*%
%TO.N,Net-(U1-TST)*%
X157644934Y-118780542D03*
%TD*%
D19*
%TO.P,C3,1*%
%TO.N,/FILT_HP*%
X147044934Y-80055542D03*
%TO.P,C3,2*%
%TO.N,GND*%
X147044934Y-78505542D03*
%TD*%
D11*
%TO.P,TP9,1,1*%
%TO.N,Net-(U1-VDDLCD)*%
X156544934Y-75630542D03*
%TD*%
%TO.P,TP8,1,1*%
%TO.N,Net-(U1-SHDN)*%
X155394934Y-118780542D03*
%TD*%
%TO.P,TP16,1,1*%
%TO.N,Net-(U1-PA30{slash}XOUT)*%
X168894934Y-118780542D03*
%TD*%
%TO.P,TP13,1,1*%
%TO.N,Net-(U1-XIN32)*%
X162144934Y-118780542D03*
%TD*%
D18*
%TO.P,R2,1*%
%TO.N,/CLKIN*%
X143294934Y-101780542D03*
%TO.P,R2,2*%
%TO.N,Net-(U1-PA31{slash}XIN)*%
X144944934Y-101780542D03*
%TD*%
D19*
%TO.P,C2,1*%
%TO.N,/FILT_HP*%
X145294934Y-80030542D03*
%TO.P,C2,2*%
%TO.N,GND*%
X145294934Y-78480542D03*
%TD*%
D16*
%TO.P,C4,1*%
%TO.N,Net-(U1-VDDPLL)*%
X171544934Y-100005542D03*
%TO.P,C4,2*%
%TO.N,GND*%
X171544934Y-101555542D03*
%TD*%
D20*
%TO.P,JP1,1,A*%
%TO.N,/BOOT_MODE*%
X150544934Y-110130542D03*
D21*
%TO.P,JP1,2,C*%
%TO.N,Net-(JP1-C)*%
X150544934Y-108830542D03*
D22*
%TO.P,JP1,3,B*%
%TO.N,/GPIO3*%
X150544934Y-107530542D03*
%TD*%
D11*
%TO.P,TP11,1,1*%
%TO.N,Net-(U1-VDDOUT)*%
X159294934Y-75630542D03*
%TD*%
%TO.P,TP12,1,1*%
%TO.N,Net-(U1-WKUP0{slash}TMP0)*%
X159894934Y-118780542D03*
%TD*%
D17*
%TO.P,R5,1*%
%TO.N,VCC*%
X157044934Y-110855542D03*
%TO.P,R5,2*%
%TO.N,Net-(U1-FWUP)*%
X157044934Y-109205542D03*
%TD*%
D18*
%TO.P,R1,1*%
%TO.N,/CLK_FROM_SAM*%
X143294934Y-103780542D03*
%TO.P,R1,2*%
%TO.N,Net-(U1-PA6{slash}PGMNOE)*%
X144944934Y-103780542D03*
%TD*%
D23*
%TO.P,U1,1,PB6*%
%TO.N,unconnected-(U1-PB6-Pad1)*%
X150882434Y-89030542D03*
%TO.P,U1,2,PB7*%
%TO.N,unconnected-(U1-PB7-Pad2)*%
X150882434Y-89530542D03*
%TO.P,U1,3,PB18*%
%TO.N,unconnected-(U1-PB18-Pad3)*%
X150882434Y-90030542D03*
%TO.P,U1,4,GND_1*%
%TO.N,GND*%
X150882434Y-90530542D03*
%TO.P,U1,5,PB19*%
%TO.N,unconnected-(U1-PB19-Pad5)*%
X150882434Y-91030542D03*
%TO.P,U1,6,PB8*%
%TO.N,unconnected-(U1-PB8-Pad6)*%
X150882434Y-91530542D03*
%TO.P,U1,7,PB22*%
%TO.N,unconnected-(U1-PB22-Pad7)*%
X150882434Y-92030542D03*
%TO.P,U1,8,PB30*%
%TO.N,unconnected-(U1-PB30-Pad8)*%
X150882434Y-92530542D03*
%TO.P,U1,9,PB25*%
%TO.N,unconnected-(U1-PB25-Pad9)*%
X150882434Y-93030542D03*
%TO.P,U1,10,PB24*%
%TO.N,unconnected-(U1-PB24-Pad10)*%
X150882434Y-93530542D03*
%TO.P,U1,11,VDDCORE_1*%
%TO.N,/SHUNTL*%
X150882434Y-94030542D03*
%TO.P,U1,12,PB29*%
%TO.N,unconnected-(U1-PB29-Pad12)*%
X150882434Y-94530542D03*
%TO.P,U1,13,PB9*%
%TO.N,unconnected-(U1-PB9-Pad13)*%
X150882434Y-95030542D03*
%TO.P,U1,14,PB10*%
%TO.N,unconnected-(U1-PB10-Pad14)*%
X150882434Y-95530542D03*
%TO.P,U1,15,PB11*%
%TO.N,unconnected-(U1-PB11-Pad15)*%
X150882434Y-96030542D03*
%TO.P,U1,16,PB12*%
%TO.N,unconnected-(U1-PB12-Pad16)*%
X150882434Y-96530542D03*
%TO.P,U1,17,PB14*%
%TO.N,unconnected-(U1-PB14-Pad17)*%
X150882434Y-97030542D03*
%TO.P,U1,18,PB15*%
%TO.N,unconnected-(U1-PB15-Pad18)*%
X150882434Y-97530542D03*
%TO.P,U1,19,PA26/PGMD14*%
%TO.N,unconnected-(U1-PA26{slash}PGMD14-Pad19)*%
X150882434Y-98030542D03*
%TO.P,U1,20,PA25/PGMD13*%
%TO.N,unconnected-(U1-PA25{slash}PGMD13-Pad20)*%
X150882434Y-98530542D03*
%TO.P,U1,21,PA24/PGMD12*%
%TO.N,unconnected-(U1-PA24{slash}PGMD12-Pad21)*%
X150882434Y-99030542D03*
%TO.P,U1,22,PA20/PGMD8*%
%TO.N,unconnected-(U1-PA20{slash}PGMD8-Pad22)*%
X150882434Y-99530542D03*
%TO.P,U1,23,PA19/PGMD7*%
%TO.N,unconnected-(U1-PA19{slash}PGMD7-Pad23)*%
X150882434Y-100030542D03*
%TO.P,U1,24,PA18/PGMD6*%
%TO.N,unconnected-(U1-PA18{slash}PGMD6-Pad24)*%
X150882434Y-100530542D03*
%TO.P,U1,25,PA8/PGMM0*%
%TO.N,/GPIO3*%
X150882434Y-101030542D03*
D24*
%TO.P,U1,26,TDI/PB0*%
%TO.N,/JTAG_TDI*%
X152544934Y-102693042D03*
%TO.P,U1,27,TCK/SWCLK/PB3*%
%TO.N,/JTAG_TCK*%
X153044934Y-102693042D03*
%TO.P,U1,28,TMS/SDWIO/PB2*%
%TO.N,/JTAG_TMS*%
X153544934Y-102693042D03*
%TO.P,U1,29,ERASE/PC9*%
%TO.N,Net-(JP1-C)*%
X154044934Y-102693042D03*
%TO.P,U1,30,TDO/TRACESWO/PB1/RTCOUT0*%
%TO.N,/JTAG_TDO*%
X154544934Y-102693042D03*
%TO.P,U1,31,PC1*%
%TO.N,unconnected-(U1-PC1-Pad31)*%
X155044934Y-102693042D03*
%TO.P,U1,32,PC6*%
%TO.N,unconnected-(U1-PC6-Pad32)*%
X155544934Y-102693042D03*
%TO.P,U1,33,VDDIO_1*%
%TO.N,VCC*%
X156044934Y-102693042D03*
%TO.P,U1,34,VDDBU*%
%TO.N,Net-(U1-VDDBU)*%
X156544934Y-102693042D03*
%TO.P,U1,35,FWUP*%
%TO.N,Net-(U1-FWUP)*%
X157044934Y-102693042D03*
%TO.P,U1,36,JTAGSEL*%
%TO.N,Net-(U1-JTAGSEL)*%
X157544934Y-102693042D03*
%TO.P,U1,37,SHDN*%
%TO.N,Net-(U1-SHDN)*%
X158044934Y-102693042D03*
%TO.P,U1,38,TST*%
%TO.N,Net-(U1-TST)*%
X158544934Y-102693042D03*
%TO.P,U1,39,WKUP0/TMP0*%
%TO.N,Net-(U1-WKUP0{slash}TMP0)*%
X159044934Y-102693042D03*
%TO.P,U1,40,XIN32*%
%TO.N,Net-(U1-XIN32)*%
X159544934Y-102693042D03*
%TO.P,U1,41,XOUT32*%
%TO.N,Net-(U1-XOUT32)*%
X160044934Y-102693042D03*
%TO.P,U1,42,GND_2*%
%TO.N,GND*%
X160544934Y-102693042D03*
%TO.P,U1,43,PB4*%
%TO.N,unconnected-(U1-PB4-Pad43)*%
X161044934Y-102693042D03*
%TO.P,U1,44,VDDCORE_2*%
%TO.N,/SHUNTL*%
X161544934Y-102693042D03*
%TO.P,U1,45,PB5*%
%TO.N,unconnected-(U1-PB5-Pad45)*%
X162044934Y-102693042D03*
%TO.P,U1,46,PC7*%
%TO.N,unconnected-(U1-PC7-Pad46)*%
X162544934Y-102693042D03*
%TO.P,U1,47,PC0*%
%TO.N,unconnected-(U1-PC0-Pad47)*%
X163044934Y-102693042D03*
%TO.P,U1,48,NRST*%
%TO.N,/nRST*%
X163544934Y-102693042D03*
%TO.P,U1,49,VDDIO_2*%
%TO.N,VCC*%
X164044934Y-102693042D03*
%TO.P,U1,50,PA30/XOUT*%
%TO.N,Net-(U1-PA30{slash}XOUT)*%
X164544934Y-102693042D03*
D23*
%TO.P,U1,51,PA31/XIN*%
%TO.N,Net-(U1-PA31{slash}XIN)*%
X166207434Y-101030542D03*
%TO.P,U1,52,GND_3*%
%TO.N,GND*%
X166207434Y-100530542D03*
%TO.P,U1,53,VDDPLL*%
%TO.N,Net-(U1-VDDPLL)*%
X166207434Y-100030542D03*
%TO.P,U1,54,PC8*%
%TO.N,unconnected-(U1-PC8-Pad54)*%
X166207434Y-99530542D03*
%TO.P,U1,55,PC5*%
%TO.N,unconnected-(U1-PC5-Pad55)*%
X166207434Y-99030542D03*
%TO.P,U1,56,PC4*%
%TO.N,unconnected-(U1-PC4-Pad56)*%
X166207434Y-98530542D03*
%TO.P,U1,57,PC3*%
%TO.N,unconnected-(U1-PC3-Pad57)*%
X166207434Y-98030542D03*
%TO.P,U1,58,PC2*%
%TO.N,unconnected-(U1-PC2-Pad58)*%
X166207434Y-97530542D03*
%TO.P,U1,59,PA29*%
%TO.N,unconnected-(U1-PA29-Pad59)*%
X166207434Y-97030542D03*
%TO.P,U1,60,PA28*%
%TO.N,unconnected-(U1-PA28-Pad60)*%
X166207434Y-96530542D03*
%TO.P,U1,61,PA27/PGMD15*%
%TO.N,unconnected-(U1-PA27{slash}PGMD15-Pad61)*%
X166207434Y-96030542D03*
%TO.P,U1,62,PA6/PGMNOE*%
%TO.N,Net-(U1-PA6{slash}PGMNOE)*%
X166207434Y-95530542D03*
%TO.P,U1,63,VDDCORE_3*%
%TO.N,/SHUNTL*%
X166207434Y-95030542D03*
%TO.P,U1,64,PA3*%
%TO.N,unconnected-(U1-PA3-Pad64)*%
X166207434Y-94530542D03*
%TO.P,U1,65,PA21/PGMD9*%
%TO.N,unconnected-(U1-PA21{slash}PGMD9-Pad65)*%
X166207434Y-94030542D03*
%TO.P,U1,66,PA22/PGMD10*%
%TO.N,unconnected-(U1-PA22{slash}PGMD10-Pad66)*%
X166207434Y-93530542D03*
%TO.P,U1,67,PA23/PGMD11*%
%TO.N,unconnected-(U1-PA23{slash}PGMD11-Pad67)*%
X166207434Y-93030542D03*
%TO.P,U1,68,PA9/PGMM1*%
%TO.N,/GPIO2_RX*%
X166207434Y-92530542D03*
%TO.P,U1,69,PA10/PGMM2*%
%TO.N,/GPIO1_TX*%
X166207434Y-92030542D03*
%TO.P,U1,70,PA11/PGMM3*%
%TO.N,unconnected-(U1-PA11{slash}PGMM3-Pad70)*%
X166207434Y-91530542D03*
%TO.P,U1,71,PA13/PGMD1*%
%TO.N,unconnected-(U1-PA13{slash}PGMD1-Pad71)*%
X166207434Y-91030542D03*
%TO.P,U1,72,PA14/PGMD2*%
%TO.N,/LED3*%
X166207434Y-90530542D03*
%TO.P,U1,73,PA15/PGMD3*%
%TO.N,/LED2*%
X166207434Y-90030542D03*
%TO.P,U1,74,PA16/PGMD4*%
%TO.N,/LED1*%
X166207434Y-89530542D03*
%TO.P,U1,75,PA17/PGMD5*%
%TO.N,unconnected-(U1-PA17{slash}PGMD5-Pad75)*%
X166207434Y-89030542D03*
D24*
%TO.P,U1,76,VDDIO_3*%
%TO.N,VCC*%
X164544934Y-87368042D03*
%TO.P,U1,77,ADVREF*%
%TO.N,unconnected-(U1-ADVREF-Pad77)*%
X164044934Y-87368042D03*
%TO.P,U1,78,GND_4*%
%TO.N,GND*%
X163544934Y-87368042D03*
%TO.P,U1,79,PB31/AD5*%
%TO.N,unconnected-(U1-PB31{slash}AD5-Pad79)*%
X163044934Y-87368042D03*
%TO.P,U1,80,PB23/AD4*%
%TO.N,unconnected-(U1-PB23{slash}AD4-Pad80)*%
X162544934Y-87368042D03*
%TO.P,U1,81,PB13/AD3*%
%TO.N,unconnected-(U1-PB13{slash}AD3-Pad81)*%
X162044934Y-87368042D03*
%TO.P,U1,82,PA5/AD2/PGMRDY*%
%TO.N,unconnected-(U1-PA5{slash}AD2{slash}PGMRDY-Pad82)*%
X161544934Y-87368042D03*
%TO.P,U1,83,PA4/AD1/PGMNCMD*%
%TO.N,unconnected-(U1-PA4{slash}AD1{slash}PGMNCMD-Pad83)*%
X161044934Y-87368042D03*
%TO.P,U1,84,PA12/AD0/PGMD0*%
%TO.N,unconnected-(U1-PA12{slash}AD0{slash}PGMD0-Pad84)*%
X160544934Y-87368042D03*
%TO.P,U1,85,VDDIN*%
%TO.N,VCC*%
X160044934Y-87368042D03*
%TO.P,U1,86,VDDOUT*%
%TO.N,Net-(U1-VDDOUT)*%
X159544934Y-87368042D03*
%TO.P,U1,87,PB21*%
%TO.N,unconnected-(U1-PB21-Pad87)*%
X159044934Y-87368042D03*
%TO.P,U1,88,PB20*%
%TO.N,unconnected-(U1-PB20-Pad88)*%
X158544934Y-87368042D03*
%TO.P,U1,89,VDDCORE_4*%
%TO.N,/SHUNTL*%
X158044934Y-87368042D03*
%TO.P,U1,90,PA0/PGMEN0*%
%TO.N,unconnected-(U1-PA0{slash}PGMEN0-Pad90)*%
X157544934Y-87368042D03*
%TO.P,U1,91,PB27/TMP2*%
%TO.N,unconnected-(U1-PB27{slash}TMP2-Pad91)*%
X157044934Y-87368042D03*
%TO.P,U1,92,VDDLCD*%
%TO.N,Net-(U1-VDDLCD)*%
X156544934Y-87368042D03*
%TO.P,U1,93,PB26*%
%TO.N,unconnected-(U1-PB26-Pad93)*%
X156044934Y-87368042D03*
%TO.P,U1,94,PB28/TMP3*%
%TO.N,unconnected-(U1-PB28{slash}TMP3-Pad94)*%
X155544934Y-87368042D03*
%TO.P,U1,95,PB16/TMP1*%
%TO.N,unconnected-(U1-PB16{slash}TMP1-Pad95)*%
X155044934Y-87368042D03*
%TO.P,U1,96,PA1/PGMEN1*%
%TO.N,unconnected-(U1-PA1{slash}PGMEN1-Pad96)*%
X154544934Y-87368042D03*
%TO.P,U1,97,PB17*%
%TO.N,unconnected-(U1-PB17-Pad97)*%
X154044934Y-87368042D03*
%TO.P,U1,98,PA7/PGMNVALID*%
%TO.N,/GPIO4*%
X153544934Y-87368042D03*
%TO.P,U1,99,VDDIO_4*%
%TO.N,VCC*%
X153044934Y-87368042D03*
%TO.P,U1,100,PA2*%
%TO.N,unconnected-(U1-PA2-Pad100)*%
X152544934Y-87368042D03*
%TD*%
D19*
%TO.P,C1,1*%
%TO.N,/FILT_HP*%
X143544934Y-80030542D03*
%TO.P,C1,2*%
%TO.N,GND*%
X143544934Y-78480542D03*
%TD*%
D17*
%TO.P,R4,1*%
%TO.N,VCC*%
X154794934Y-110855542D03*
%TO.P,R4,2*%
%TO.N,Net-(U1-VDDBU)*%
X154794934Y-109205542D03*
%TD*%
D11*
%TO.P,TP6,1,1*%
%TO.N,Net-(U1-FWUP)*%
X150894934Y-118780542D03*
%TD*%
%TO.P,TP5,1,1*%
%TO.N,Net-(JP1-C)*%
X148644934Y-118780542D03*
%TD*%
D25*
%TO.N,/GPIO2_RX*%
X150044934Y-83030542D03*
%TO.N,Net-(U1-PA6{slash}PGMNOE)*%
X167044934Y-103030542D03*
D26*
%TO.N,GND*%
X161544934Y-105030542D03*
X145294934Y-77530542D03*
X164544934Y-100530542D03*
X163044934Y-89030542D03*
X139044934Y-94030542D03*
X152544934Y-90530542D03*
X171544934Y-102780542D03*
X139044934Y-101030542D03*
X143544934Y-77530542D03*
X139044934Y-100030542D03*
X139044930Y-86030542D03*
X140794934Y-80280542D03*
X147044934Y-77530542D03*
X173294934Y-102780542D03*
%TO.N,/FILT_HP*%
X143494934Y-92200000D03*
X141794934Y-79280550D03*
X143294934Y-84380542D03*
D25*
%TO.N,/SHUNTL*%
X158044934Y-88780542D03*
D26*
X152294934Y-94030542D03*
X148794934Y-77280542D03*
X148994934Y-94030542D03*
D25*
X161544934Y-101280542D03*
X164794934Y-95030542D03*
D26*
%TO.N,VCC1.2*%
X151294934Y-81530542D03*
X141544934Y-83030542D03*
D25*
%TO.N,/BOOT_MODE*%
X141794930Y-105280542D03*
X145150000Y-112000000D03*
%TO.N,/GPIO3*%
X147350000Y-107550000D03*
X148044934Y-103430542D03*
%TO.N,/GPIO4*%
X143794934Y-98030542D03*
X153294934Y-89030542D03*
%TO.N,/GPIO1_TX*%
X145044934Y-85780542D03*
X141550000Y-96050004D03*
X149794934Y-85180542D03*
X142650000Y-86080542D03*
%TO.N,/LED3*%
X149744934Y-86180542D03*
X147344934Y-86430542D03*
%TO.N,/nRST*%
X148544934Y-79280542D03*
X142044934Y-114530542D03*
X150794934Y-79030542D03*
%TO.N,/CLK_FROM_SAM*%
X141294934Y-103780542D03*
%TO.N,/JTAG_TDO*%
X152995392Y-108253452D03*
X144950000Y-106150000D03*
D26*
%TO.N,VCC*%
X164294934Y-106030542D03*
X159544934Y-112280542D03*
X144794934Y-83530542D03*
X161294934Y-91780542D03*
X154794934Y-112280542D03*
X153044934Y-85530542D03*
X147294934Y-85030542D03*
X156044934Y-100530542D03*
X157044934Y-112280542D03*
D25*
%TO.N,/LED1*%
X150623771Y-87611518D03*
X144294934Y-88030536D03*
%TO.N,/CLKIN*%
X142063727Y-104474159D03*
X142044934Y-102780542D03*
%TO.N,/GPIO2_RX*%
X141294934Y-85130542D03*
X140550000Y-96030542D03*
X145044934Y-84780542D03*
%TO.N,/LED2*%
X146394934Y-87080542D03*
X150444934Y-86780542D03*
%TO.N,Net-(U1-PA31{slash}XIN)*%
X146294934Y-102780542D03*
X169044934Y-102280542D03*
%TO.N,Net-(U1-PA6{slash}PGMNOE)*%
X150794934Y-103030542D03*
X169044934Y-95530542D03*
%TO.N,Net-(U1-VDDOUT)*%
X159244934Y-85927326D03*
X159345905Y-80880542D03*
%TO.N,Net-(U1-VDDLCD)*%
X156692212Y-80820197D03*
X156544934Y-86130542D03*
%TO.N,/JTAG_TMS*%
X141650000Y-109700008D03*
X142750000Y-111950000D03*
%TD*%
D27*
%TO.N,/nRST*%
X148194934Y-86839339D02*
X148194934Y-79630542D01*
X148194934Y-79630542D02*
X148544934Y-79280542D01*
X141603731Y-93030542D02*
X146342136Y-88292137D01*
X146342136Y-88292137D02*
X146742136Y-88292137D01*
X146742136Y-88292137D02*
X148194934Y-86839339D01*
X135794934Y-93030542D02*
X141603731Y-93030542D01*
%TO.N,/LED3*%
X147344934Y-86430542D02*
X147344934Y-87052943D01*
X147344934Y-87052943D02*
X146573938Y-87823939D01*
X146573938Y-87823939D02*
X146173938Y-87823939D01*
X146173938Y-87823939D02*
X141967335Y-92030542D01*
X141967335Y-92030542D02*
X135794934Y-92030542D01*
D28*
%TO.N,/FILT_HP*%
X143294934Y-94030542D02*
X143294934Y-92400000D01*
X143294934Y-92400000D02*
X143494934Y-92200000D01*
D27*
%TO.N,/BOOT_MODE*%
X150544934Y-110130542D02*
X150544934Y-111355066D01*
X150544934Y-111355066D02*
X149900000Y-112000000D01*
X149900000Y-112000000D02*
X145150000Y-112000000D01*
%TO.N,/JTAG_TMS*%
X153544934Y-104280542D02*
X152344934Y-105480542D01*
X143650000Y-110250000D02*
X143650000Y-111050000D01*
X143650000Y-111050000D02*
X142750000Y-111950000D01*
X148419458Y-105480542D02*
X143650000Y-110250000D01*
X152344934Y-105480542D02*
X148419458Y-105480542D01*
X153544934Y-102693042D02*
X153544934Y-104280542D01*
X136344934Y-110030542D02*
X141319466Y-110030542D01*
%TO.N,/JTAG_TDO*%
X142100000Y-109000000D02*
X144950000Y-106150000D01*
%TO.N,/JTAG_TMS*%
X141319466Y-110030542D02*
X141650000Y-109700008D01*
%TO.N,/JTAG_TDO*%
X135825476Y-109000000D02*
X142100000Y-109000000D01*
X135794934Y-109030542D02*
X135825476Y-109000000D01*
%TO.N,Net-(JP1-C)*%
X148644934Y-118780542D02*
X148644934Y-118180542D01*
X148644934Y-118180542D02*
X152350000Y-114475476D01*
X152350000Y-114475476D02*
X152350000Y-108935608D01*
X152350000Y-108935608D02*
X152244934Y-108830542D01*
X154044934Y-102693042D02*
X154044934Y-106284671D01*
X152345392Y-108730084D02*
X152244934Y-108830542D01*
X154044934Y-106284671D02*
X152345392Y-107984213D01*
X152345392Y-107984213D02*
X152345392Y-108730084D01*
%TO.N,/GPIO3*%
X150544934Y-107530542D02*
X147369458Y-107530542D01*
X147369458Y-107530542D02*
X147350000Y-107550000D01*
%TO.N,/JTAG_TCK*%
X153044934Y-102693042D02*
X153044934Y-104066938D01*
X153044934Y-104066938D02*
X152081330Y-105030542D01*
X152081330Y-105030542D02*
X147738689Y-105030542D01*
X147738689Y-105030542D02*
X141738689Y-111030542D01*
X141738689Y-111030542D02*
X135794934Y-111030542D01*
%TO.N,/JTAG_TDI*%
X135794934Y-108030542D02*
X141950000Y-108030542D01*
X145400000Y-104580542D02*
X151894934Y-104580542D01*
X152544934Y-103930542D02*
X152544934Y-102693042D01*
X141950000Y-108030542D02*
X145400000Y-104580542D01*
X151894934Y-104580542D02*
X152544934Y-103930542D01*
%TO.N,/nRST*%
X152594934Y-75430542D02*
X153594934Y-74430542D01*
X174244934Y-85480542D02*
X174244934Y-114255066D01*
X153594934Y-74430542D02*
X163194934Y-74430542D01*
X172300000Y-119850000D02*
X171850000Y-120300000D01*
X163194934Y-74430542D02*
X174244934Y-85480542D01*
X152594934Y-77230542D02*
X152594934Y-75430542D01*
X150794934Y-79030542D02*
X152594934Y-77230542D01*
X174244934Y-114255066D02*
X172300000Y-116200000D01*
X171850000Y-120300000D02*
X166100000Y-120300000D01*
X172300000Y-116200000D02*
X172300000Y-119850000D01*
X166100000Y-120300000D02*
X165464392Y-120300000D01*
X166644934Y-118780542D02*
X166644934Y-119755066D01*
X166644934Y-119755066D02*
X166100000Y-120300000D01*
X142044934Y-114530542D02*
X147814392Y-120300000D01*
X147814392Y-120300000D02*
X165464392Y-120300000D01*
D28*
%TO.N,Net-(U1-VDDPLL)*%
X171544934Y-100005542D02*
X173294934Y-100005542D01*
X171550000Y-98100000D02*
X171550000Y-100000476D01*
X171550000Y-100000476D02*
X171544934Y-100005542D01*
%TO.N,VCC1.2*%
X171550000Y-96450000D02*
X171550000Y-86187080D01*
X171550000Y-86187080D02*
X167043462Y-81680542D01*
X167043462Y-81680542D02*
X151444934Y-81680542D01*
X151444934Y-81680542D02*
X151294934Y-81530542D01*
D27*
%TO.N,/GPIO1_TX*%
X140530538Y-95030542D02*
X141550000Y-96050004D01*
X135794934Y-95030542D02*
X140530538Y-95030542D01*
%TO.N,/GPIO2_RX*%
X135794934Y-96030542D02*
X140550000Y-96030542D01*
%TO.N,/GPIO1_TX*%
X145044934Y-85780542D02*
X142950000Y-85780542D01*
X142950000Y-85780542D02*
X142650000Y-86080542D01*
%TO.N,Net-(U1-VDDOUT)*%
X159244934Y-86227422D02*
X159244934Y-85927326D01*
X159544934Y-87368042D02*
X159544934Y-86527422D01*
X159544934Y-86527422D02*
X159244934Y-86227422D01*
%TO.N,VCC*%
X160044934Y-87368042D02*
X160044934Y-85980542D01*
D28*
X160044934Y-85330542D02*
X160044934Y-85980542D01*
X160044934Y-85330542D02*
X160444934Y-84930542D01*
X164544934Y-86030542D02*
X164544934Y-86280542D01*
X160444934Y-84930542D02*
X163444934Y-84930542D01*
X163444934Y-84930542D02*
X164544934Y-86030542D01*
X153044934Y-85530542D02*
X153644934Y-84930542D01*
X153644934Y-84930542D02*
X159644934Y-84930542D01*
X159644934Y-84930542D02*
X160044934Y-85330542D01*
D27*
%TO.N,/LED1*%
X166207434Y-89530542D02*
X168032190Y-89530542D01*
X168032190Y-89530542D02*
X168688562Y-88874170D01*
X165994934Y-84130542D02*
X153380927Y-84130542D01*
X153380927Y-84130542D02*
X151094934Y-86416535D01*
X151094934Y-87140355D02*
X150623771Y-87611518D01*
X168688562Y-88874170D02*
X168688562Y-86824170D01*
X168688562Y-86824170D02*
X165994934Y-84130542D01*
X151094934Y-86416535D02*
X151094934Y-87140355D01*
%TO.N,/LED2*%
X169144934Y-86630542D02*
X166194934Y-83680542D01*
X168194934Y-90030542D02*
X169144934Y-89080542D01*
X153094934Y-83680542D02*
X150444934Y-86330542D01*
X166194934Y-83680542D02*
X153094934Y-83680542D01*
X150444934Y-86330542D02*
X150444934Y-86780542D01*
X169144934Y-89080542D02*
X169144934Y-86630542D01*
X166207434Y-90030542D02*
X168194934Y-90030542D01*
%TO.N,/LED3*%
X149744934Y-86180542D02*
X152694934Y-83230542D01*
X169594934Y-89280542D02*
X168344934Y-90530542D01*
X152694934Y-83230542D02*
X166444934Y-83230542D01*
X166444934Y-83230542D02*
X169594934Y-86380542D01*
X169594934Y-86380542D02*
X169594934Y-89280542D01*
X168344934Y-90530542D02*
X166207434Y-90530542D01*
%TO.N,/GPIO1_TX*%
X152244934Y-82730542D02*
X166594934Y-82730542D01*
X170044934Y-86180542D02*
X170044934Y-89529290D01*
X149794934Y-85180542D02*
X152244934Y-82730542D01*
X166594934Y-82730542D02*
X170044934Y-86180542D01*
X170044934Y-89529290D02*
X167543682Y-92030542D01*
X167543682Y-92030542D02*
X166207434Y-92030542D01*
%TO.N,/GPIO2_RX*%
X150794934Y-82280542D02*
X166794934Y-82280542D01*
%TO.N,Net-(U1-VDDLCD)*%
X156544934Y-80672919D02*
X156692212Y-80820197D01*
X156544934Y-75630542D02*
X156544934Y-80672919D01*
%TO.N,Net-(U1-VDDOUT)*%
X159294934Y-75630542D02*
X159294934Y-80829571D01*
X159294934Y-80829571D02*
X159345905Y-80880542D01*
%TO.N,/GPIO2_RX*%
X150044934Y-83030542D02*
X150794934Y-82280542D01*
X166794934Y-82280542D02*
X170494934Y-85980542D01*
X170494934Y-89730542D02*
X167694934Y-92530542D01*
X170494934Y-85980542D02*
X170494934Y-89730542D01*
X167694934Y-92530542D02*
X166207434Y-92530542D01*
%TO.N,Net-(U1-FWUP)*%
X157044934Y-109205542D02*
X156369934Y-109205542D01*
X150894934Y-117430542D02*
X150894934Y-118780542D01*
X156369934Y-109205542D02*
X156194934Y-109380542D01*
X156194934Y-109380542D02*
X156194934Y-112130542D01*
X156194934Y-112130542D02*
X150894934Y-117430542D01*
%TO.N,VCC*%
X164044934Y-102693042D02*
X164044934Y-104080542D01*
X164044934Y-104080542D02*
X164144934Y-104180542D01*
%TO.N,Net-(U1-PA30{slash}XOUT)*%
X168894934Y-116030542D02*
X168894934Y-118780542D01*
X166444934Y-113580542D02*
X168894934Y-116030542D01*
D28*
%TO.N,VCC*%
X164294934Y-106030542D02*
X164294934Y-104330542D01*
D27*
%TO.N,Net-(U1-PA30{slash}XOUT)*%
X166444934Y-104593042D02*
X166444934Y-113580542D01*
X164544934Y-102693042D02*
X166444934Y-104593042D01*
D28*
%TO.N,VCC*%
X164294934Y-104330542D02*
X164144934Y-104180542D01*
%TO.N,/SHUNTL*%
X148794934Y-77280542D02*
X149344934Y-77830542D01*
X149344934Y-79758360D02*
X148844934Y-80258360D01*
X148844934Y-80258360D02*
X148844934Y-93880542D01*
X149344934Y-77830542D02*
X149344934Y-79758360D01*
X148844934Y-93880542D02*
X148994934Y-94030542D01*
%TO.N,VCC*%
X147294934Y-85030542D02*
X145794934Y-83530542D01*
X145794934Y-83530542D02*
X144794934Y-83530542D01*
D27*
%TO.N,/GPIO2_RX*%
X145044934Y-84780542D02*
X144694934Y-85130542D01*
D28*
%TO.N,/FILT_HP*%
X143544934Y-81280542D02*
X143294934Y-81530542D01*
X143294934Y-81530542D02*
X143294934Y-84380542D01*
D27*
%TO.N,/GPIO2_RX*%
X144694934Y-85130542D02*
X141294934Y-85130542D01*
%TO.N,/CLKIN*%
X135794934Y-106030542D02*
X142214173Y-106030542D01*
X142214173Y-106030542D02*
X142444934Y-105799781D01*
X142444934Y-105799781D02*
X142444934Y-104855366D01*
X142444934Y-104855366D02*
X142063727Y-104474159D01*
%TO.N,/BOOT_MODE*%
X141794930Y-105280542D02*
X140544930Y-104030542D01*
X140544930Y-104030542D02*
X135794934Y-104030542D01*
%TO.N,Net-(U1-PA6{slash}PGMNOE)*%
X150794934Y-103030542D02*
X149694934Y-104130542D01*
X147244934Y-104130542D02*
X146894934Y-103780542D01*
X146894934Y-103780542D02*
X144944934Y-103780542D01*
X149694934Y-104130542D02*
X147244934Y-104130542D01*
D28*
%TO.N,VCC*%
X154794934Y-112280542D02*
X154294934Y-112280542D01*
X154294934Y-112280542D02*
X153794934Y-111780542D01*
X153794934Y-111780542D02*
X153794934Y-108280542D01*
X153794934Y-108280542D02*
X155794934Y-106280542D01*
X155794934Y-106280542D02*
X155794934Y-104080542D01*
D27*
%TO.N,Net-(U1-VDDBU)*%
X154794934Y-109205542D02*
X154794934Y-108580542D01*
X154794934Y-108580542D02*
X156544934Y-106830542D01*
X156544934Y-106830542D02*
X156544934Y-102693042D01*
%TO.N,VCC*%
X156044934Y-103830542D02*
X155794934Y-104080542D01*
%TO.N,/JTAG_TDO*%
X152995392Y-108052267D02*
X152995392Y-108253452D01*
X154544934Y-106502725D02*
X152995392Y-108052267D01*
%TO.N,VCC*%
X156044934Y-102693042D02*
X156044934Y-103830542D01*
%TO.N,/JTAG_TDO*%
X154544934Y-102693042D02*
X154544934Y-106502725D01*
%TO.N,Net-(U1-TST)*%
X157644934Y-118780542D02*
X157644934Y-114405542D01*
X157644934Y-114405542D02*
X158794934Y-113255542D01*
X158794934Y-113255542D02*
X158794934Y-106530542D01*
X158544934Y-106280542D02*
X158544934Y-102693042D01*
X158794934Y-106530542D02*
X158544934Y-106280542D01*
%TO.N,Net-(U1-WKUP0{slash}TMP0)*%
X159694934Y-109205542D02*
X160219934Y-109205542D01*
X160219934Y-109205542D02*
X160794934Y-109780542D01*
%TO.N,Net-(U1-XIN32)*%
X162144934Y-107994146D02*
X162144934Y-118780542D01*
X159544934Y-105394146D02*
X162144934Y-107994146D01*
%TO.N,Net-(U1-XOUT32)*%
X164394934Y-109257750D02*
X160044934Y-104907750D01*
%TO.N,Net-(U1-XIN32)*%
X159544934Y-102693042D02*
X159544934Y-105394146D01*
%TO.N,Net-(U1-WKUP0{slash}TMP0)*%
X159044934Y-105530542D02*
X159694934Y-106180542D01*
X159694934Y-106180542D02*
X159694934Y-109205542D01*
%TO.N,Net-(U1-XOUT32)*%
X164394934Y-118780542D02*
X164394934Y-109257750D01*
X160044934Y-104907750D02*
X160044934Y-102693042D01*
%TO.N,Net-(U1-WKUP0{slash}TMP0)*%
X159044934Y-102693042D02*
X159044934Y-105530542D01*
D28*
%TO.N,VCC*%
X159694934Y-110855542D02*
X159694934Y-112130542D01*
X159694934Y-112130542D02*
X159544934Y-112280542D01*
D27*
%TO.N,Net-(U1-WKUP0{slash}TMP0)*%
X159894934Y-113530542D02*
X159894934Y-118780542D01*
X160794934Y-112630542D02*
X159894934Y-113530542D01*
X160794934Y-109780542D02*
X160794934Y-112630542D01*
%TO.N,Net-(U1-SHDN)*%
X158044934Y-102693042D02*
X158044934Y-106530542D01*
X158044934Y-106530542D02*
X158344934Y-106830542D01*
X158344934Y-112980542D02*
X155394934Y-115930542D01*
X158344934Y-106830542D02*
X158344934Y-112980542D01*
X155394934Y-115930542D02*
X155394934Y-118780542D01*
%TO.N,Net-(U1-JTAGSEL)*%
X157544934Y-102693042D02*
X157544934Y-107030542D01*
X157544934Y-107030542D02*
X157894934Y-107380542D01*
X157894934Y-107380542D02*
X157894934Y-112491203D01*
X157894934Y-112491203D02*
X153144934Y-117241203D01*
X153144934Y-117241203D02*
X153144934Y-118780542D01*
%TO.N,/nRST*%
X163544934Y-102693042D02*
X163544934Y-106341203D01*
X163544934Y-106341203D02*
X165984273Y-108780542D01*
X166644934Y-114530542D02*
X166644934Y-118780542D01*
X165984273Y-108780542D02*
X165984273Y-113869881D01*
X165984273Y-113869881D02*
X166644934Y-114530542D01*
%TO.N,Net-(U1-PA6{slash}PGMNOE)*%
X167044934Y-103030542D02*
X167044934Y-113380542D01*
X167044934Y-113380542D02*
X171094934Y-117430542D01*
X171094934Y-117430542D02*
X171094934Y-118780542D01*
D28*
%TO.N,GND*%
X145319934Y-78505542D02*
X145294934Y-78480542D01*
D27*
X160544934Y-104030542D02*
X161544934Y-105030542D01*
D28*
X171544934Y-101555542D02*
X171544934Y-102780542D01*
X135794934Y-80030542D02*
X140544934Y-80030542D01*
X152544934Y-90530542D02*
X152044934Y-90530542D01*
X143544934Y-78480542D02*
X143544934Y-77530542D01*
D27*
X152044934Y-90530542D02*
X150882434Y-90530542D01*
D28*
X135794934Y-100030542D02*
X139044934Y-100030542D01*
X135794934Y-94030542D02*
X139044934Y-94030542D01*
D27*
X160544934Y-102693042D02*
X160544934Y-104030542D01*
X166207434Y-100530542D02*
X164544934Y-100530542D01*
X163544934Y-87368042D02*
X163544934Y-88530542D01*
D28*
X135794934Y-101030542D02*
X139044934Y-101030542D01*
X173294934Y-101555542D02*
X173294934Y-102780542D01*
X135794934Y-86030542D02*
X139044930Y-86030542D01*
X145294934Y-78480542D02*
X145294934Y-77530542D01*
X147044934Y-78505542D02*
X147044934Y-77530542D01*
X163044934Y-89030542D02*
X163544934Y-88530542D01*
X140544934Y-80030542D02*
X140794934Y-80280542D01*
%TO.N,/FILT_HP*%
X145544934Y-81280542D02*
X145294934Y-81030542D01*
X135794934Y-81030542D02*
X139094934Y-81030542D01*
X142544926Y-80030542D02*
X141794934Y-79280550D01*
X143544934Y-81280542D02*
X143544934Y-80030542D01*
X139094934Y-81030542D02*
X139244934Y-81180542D01*
X147044934Y-80055542D02*
X147044934Y-81030542D01*
X147019934Y-80030542D02*
X147044934Y-80055542D01*
X141394934Y-81180542D02*
X139244934Y-81180542D01*
X145294934Y-80030542D02*
X145294934Y-81030542D01*
X141794934Y-80780542D02*
X141794934Y-79280550D01*
X135794934Y-79030542D02*
X141544926Y-79030542D01*
X146794934Y-81280542D02*
X145544934Y-81280542D01*
X145044934Y-81280542D02*
X143544934Y-81280542D01*
X145294934Y-81030542D02*
X145044934Y-81280542D01*
X143544934Y-80030542D02*
X142544926Y-80030542D01*
X141394934Y-81180542D02*
X141794934Y-80780542D01*
X147044934Y-81030542D02*
X146794934Y-81280542D01*
X141544926Y-79030542D02*
X141794934Y-79280550D01*
%TO.N,/SHUNTL*%
X164044934Y-93530542D02*
X160794934Y-93530542D01*
X135794934Y-78030542D02*
X141772141Y-78030542D01*
X148144934Y-76630542D02*
X148794934Y-77280542D01*
D27*
X161544934Y-102693042D02*
X161544934Y-101280542D01*
D28*
X160294934Y-101030542D02*
X160544934Y-101280542D01*
X152294934Y-94030542D02*
X152294934Y-93280542D01*
D27*
X158044934Y-87368042D02*
X158044934Y-88780542D01*
D28*
X160794934Y-93530542D02*
X159294934Y-92030542D01*
X141772141Y-78030542D02*
X143172141Y-76630542D01*
X156044934Y-92530542D02*
X156794934Y-91780542D01*
X152294934Y-93280542D02*
X153044934Y-92530542D01*
X144944934Y-94030542D02*
X148994934Y-94030542D01*
X164794934Y-94280542D02*
X164044934Y-93530542D01*
X164794934Y-95780542D02*
X164794934Y-95030542D01*
X159294934Y-89280542D02*
X158794934Y-88780542D01*
X156794934Y-89280542D02*
X157294934Y-88780542D01*
X143172141Y-76630542D02*
X148144934Y-76630542D01*
X160544934Y-101280542D02*
X161544934Y-101280542D01*
X157294934Y-88780542D02*
X158044934Y-88780542D01*
D27*
X149294934Y-94030542D02*
X150882434Y-94030542D01*
D28*
X153544934Y-96030542D02*
X159544934Y-96030542D01*
D27*
X166207434Y-95030542D02*
X164794934Y-95030542D01*
D28*
X152294934Y-94030542D02*
X152294934Y-94780542D01*
X159294934Y-92030542D02*
X159294934Y-89280542D01*
X152294934Y-94780542D02*
X153544934Y-96030542D01*
X158044934Y-88780542D02*
X157994934Y-88730542D01*
X160794934Y-96780542D02*
X161544934Y-96030542D01*
X156794934Y-91780542D02*
X156794934Y-89280542D01*
X158794934Y-88780542D02*
X158044934Y-88780542D01*
X164544934Y-96030542D02*
X164794934Y-95780542D01*
X153044934Y-92530542D02*
X156044934Y-92530542D01*
X159544934Y-96030542D02*
X159919934Y-96405542D01*
X161544934Y-96030542D02*
X164544934Y-96030542D01*
X159919934Y-96405542D02*
X160294934Y-96780542D01*
X164794934Y-95030542D02*
X164794934Y-94280542D01*
X148994934Y-94030542D02*
X149294934Y-94030542D01*
X160294934Y-96780542D02*
X160294934Y-101030542D01*
D27*
X150882434Y-94030542D02*
X152294934Y-94030542D01*
D28*
X160294934Y-96780542D02*
X160794934Y-96780542D01*
%TO.N,VCC1.2*%
X140544934Y-84030542D02*
X141544934Y-83030542D01*
X140544934Y-82030542D02*
X135794934Y-82030542D01*
D27*
%TO.N,Net-(U1-VDDPLL)*%
X166207434Y-100030542D02*
X167294934Y-100030542D01*
D28*
X171544934Y-100005542D02*
X167319934Y-100005542D01*
%TO.N,VCC1.2*%
X141544934Y-83030542D02*
X140544934Y-82030542D01*
X135794934Y-84030542D02*
X140544934Y-84030542D01*
D27*
%TO.N,/GPIO3*%
X148544934Y-101030542D02*
X148044934Y-101530542D01*
X148044934Y-101530542D02*
X148044934Y-103430542D01*
X144694934Y-97180542D02*
X135944934Y-97180542D01*
X150882434Y-101030542D02*
X148544934Y-101030542D01*
X135944934Y-97180542D02*
X135794934Y-97030542D01*
X148544934Y-101030542D02*
X144694934Y-97180542D01*
%TO.N,Net-(JP1-C)*%
X152244934Y-108830542D02*
X150544934Y-108830542D01*
%TO.N,/GPIO4*%
X153544934Y-88780542D02*
X153294934Y-89030542D01*
X153544934Y-87368042D02*
X153544934Y-88780542D01*
X143794934Y-98030542D02*
X135794934Y-98030542D01*
%TO.N,/CLK_FROM_SAM*%
X141444934Y-103630542D02*
X143144934Y-103630542D01*
X141294934Y-103780542D02*
X141444934Y-103630542D01*
X143144934Y-103630542D02*
X143294934Y-103780542D01*
D28*
%TO.N,VCC*%
X162044934Y-91780542D02*
X164544934Y-89280542D01*
X154794934Y-112280542D02*
X154794934Y-110855542D01*
X153044934Y-85530542D02*
X153044934Y-86280542D01*
X161294934Y-91780542D02*
X162044934Y-91780542D01*
D27*
X156044934Y-101530542D02*
X156044934Y-102693042D01*
X153044934Y-86280542D02*
X153044934Y-87368042D01*
D28*
X156044934Y-100530542D02*
X156044934Y-101530542D01*
D27*
X164544934Y-87368042D02*
X164544934Y-88530542D01*
D28*
X157044934Y-112280542D02*
X157044934Y-110855542D01*
X164544934Y-89280542D02*
X164544934Y-88530542D01*
D27*
X164544934Y-86280542D02*
X164544934Y-87368042D01*
%TO.N,/LED1*%
X144294934Y-88030542D02*
X144294934Y-88030536D01*
X135794934Y-88030542D02*
X144294934Y-88030542D01*
%TO.N,/CLKIN*%
X143044934Y-101780542D02*
X142044934Y-102780542D01*
X143294934Y-101780542D02*
X143044934Y-101780542D01*
X135794934Y-106030542D02*
X135944934Y-106180542D01*
%TO.N,Net-(U1-PA31{slash}XIN)*%
X145294934Y-101780542D02*
X146294934Y-102780542D01*
X167794934Y-101030542D02*
X169044934Y-102280542D01*
X144944934Y-101780542D02*
X145294934Y-101780542D01*
X166207434Y-101030542D02*
X167794934Y-101030542D01*
%TO.N,Net-(U1-PA6{slash}PGMNOE)*%
X169044934Y-95530542D02*
X166207434Y-95530542D01*
%TO.N,Net-(U1-TST)*%
X157644934Y-118780542D02*
X157719934Y-118705542D01*
%TO.N,Net-(U1-FWUP)*%
X157044934Y-109205542D02*
X157044934Y-102693042D01*
%TO.N,Net-(U1-VDDLCD)*%
X156544934Y-87368042D02*
X156544934Y-86130542D01*
%TO.N,/LED2*%
X142330939Y-91030542D02*
X135794934Y-91030542D01*
D28*
%TO.N,VCC*%
X145294934Y-87030542D02*
X135794934Y-87030542D01*
X147294934Y-85030542D02*
X145294934Y-87030542D01*
D27*
%TO.N,/LED2*%
X146394934Y-87080542D02*
X146280939Y-87080542D01*
X146280939Y-87080542D02*
X142330939Y-91030542D01*
%TD*%
%TA.AperFunction,NonConductor*%
G36*
X169443039Y-121069685D02*
G01*
X169488794Y-121122489D01*
X169500000Y-121174000D01*
X169500000Y-123776000D01*
X169480315Y-123843039D01*
X169427511Y-123888794D01*
X169376000Y-123900000D01*
X148624000Y-123900000D01*
X148556961Y-123880315D01*
X148511206Y-123827511D01*
X148500000Y-123776000D01*
X148500000Y-121174000D01*
X148519685Y-121106961D01*
X148572489Y-121061206D01*
X148624000Y-121050000D01*
X169376000Y-121050000D01*
X169443039Y-121069685D01*
G37*
%TD.AperFunction*%
%TA.AperFunction,Conductor*%
%TO.N,/SHUNTL*%
G36*
X149095550Y-93263806D02*
G01*
X149097999Y-93267396D01*
X149359723Y-93866565D01*
X149359894Y-93875518D01*
X149353684Y-93881970D01*
X149353503Y-93882047D01*
X148997109Y-94030635D01*
X148992578Y-94031536D01*
X148606605Y-94030571D01*
X148598340Y-94027123D01*
X148594934Y-94018871D01*
X148594934Y-93272079D01*
X148598361Y-93263806D01*
X148606634Y-93260379D01*
X149087277Y-93260379D01*
X149095550Y-93263806D01*
G37*
%TD.AperFunction*%
%TD*%
%TA.AperFunction,Conductor*%
%TO.N,GND*%
G36*
X164708802Y-100165487D02*
G01*
X165337734Y-100427542D01*
X165344053Y-100433887D01*
X165344934Y-100438342D01*
X165344934Y-100622741D01*
X165341507Y-100631014D01*
X165337734Y-100633541D01*
X164708804Y-100895595D01*
X164699849Y-100895614D01*
X164693505Y-100889297D01*
X164545809Y-100535041D01*
X164545789Y-100526092D01*
X164693506Y-100171784D01*
X164699852Y-100165468D01*
X164708802Y-100165487D01*
G37*
%TD.AperFunction*%
%TD*%
%TA.AperFunction,Conductor*%
%TO.N,/SHUNTL*%
G36*
X161811785Y-101391038D02*
G01*
X161818097Y-101397390D01*
X161818264Y-101405847D01*
X161647741Y-101872855D01*
X161641685Y-101879451D01*
X161636751Y-101880542D01*
X161453117Y-101880542D01*
X161444844Y-101877115D01*
X161442127Y-101872855D01*
X161271603Y-101405844D01*
X161271984Y-101396900D01*
X161278081Y-101391038D01*
X161540424Y-101281425D01*
X161549378Y-101281399D01*
X161811785Y-101391038D01*
G37*
%TD.AperFunction*%
%TD*%
%TA.AperFunction,Conductor*%
%TO.N,/SHUNTL*%
G36*
X152167629Y-93082526D02*
G01*
X152505160Y-93420057D01*
X152507945Y-93424508D01*
X152660890Y-93867064D01*
X152660354Y-93876003D01*
X152654320Y-93881691D01*
X152298723Y-94029381D01*
X152289768Y-94029390D01*
X152289733Y-94029375D01*
X151934955Y-93881460D01*
X151928637Y-93875113D01*
X151928196Y-93867488D01*
X152148095Y-93087623D01*
X152153639Y-93080591D01*
X152162531Y-93079538D01*
X152167629Y-93082526D01*
G37*
%TD.AperFunction*%
%TD*%
%TA.AperFunction,Conductor*%
%TO.N,/SHUNTL*%
G36*
X158145024Y-88183969D02*
G01*
X158147741Y-88188229D01*
X158318264Y-88655236D01*
X158317883Y-88664183D01*
X158311785Y-88670045D01*
X158049445Y-88779657D01*
X158040490Y-88779684D01*
X158040423Y-88779657D01*
X157778082Y-88670045D01*
X157771770Y-88663693D01*
X157771603Y-88655239D01*
X157942127Y-88188228D01*
X157948183Y-88181633D01*
X157953117Y-88180542D01*
X158136751Y-88180542D01*
X158145024Y-88183969D01*
G37*
%TD.AperFunction*%
%TD*%
%TA.AperFunction,Conductor*%
%TO.N,/SHUNTL*%
G36*
X148989876Y-93634977D02*
G01*
X148994769Y-93642477D01*
X148994969Y-93644604D01*
X148995934Y-94030542D01*
X148995934Y-94030600D01*
X148994969Y-94416479D01*
X148991521Y-94424744D01*
X148983240Y-94428150D01*
X148981113Y-94427950D01*
X148204478Y-94282331D01*
X148196978Y-94277438D01*
X148194934Y-94270831D01*
X148194934Y-93790252D01*
X148198361Y-93781979D01*
X148204476Y-93778752D01*
X148981114Y-93633133D01*
X148989876Y-93634977D01*
G37*
%TD.AperFunction*%
%TD*%
%TA.AperFunction,Conductor*%
%TO.N,/SHUNTL*%
G36*
X165082261Y-95030499D02*
G01*
X165090522Y-95033953D01*
X165093921Y-95042238D01*
X165093881Y-95043171D01*
X165045828Y-95619814D01*
X165041726Y-95627774D01*
X165034168Y-95630542D01*
X164555700Y-95630542D01*
X164547427Y-95627115D01*
X164544040Y-95619814D01*
X164495986Y-95043171D01*
X164498714Y-95034641D01*
X164506674Y-95030539D01*
X164507587Y-95030499D01*
X164794934Y-95029542D01*
X165082261Y-95030499D01*
G37*
%TD.AperFunction*%
%TD*%
%TA.AperFunction,Conductor*%
%TO.N,/SHUNTL*%
G36*
X161540834Y-100984322D02*
G01*
X161544936Y-100992282D01*
X161544976Y-100993215D01*
X161545934Y-101280542D01*
X161545934Y-101280620D01*
X161544976Y-101567868D01*
X161541522Y-101576130D01*
X161533237Y-101579529D01*
X161532304Y-101579489D01*
X160955662Y-101531436D01*
X160947702Y-101527334D01*
X160944934Y-101519776D01*
X160944934Y-101041308D01*
X160948361Y-101033035D01*
X160955662Y-101029648D01*
X161532305Y-100981594D01*
X161540834Y-100984322D01*
G37*
%TD.AperFunction*%
%TD*%
%TA.AperFunction,Conductor*%
%TO.N,/SHUNTL*%
G36*
X158040834Y-88484322D02*
G01*
X158044936Y-88492282D01*
X158044976Y-88493215D01*
X158045934Y-88780542D01*
X158045934Y-88780620D01*
X158044976Y-89067868D01*
X158041522Y-89076130D01*
X158033237Y-89079529D01*
X158032304Y-89079489D01*
X157455662Y-89031436D01*
X157447702Y-89027334D01*
X157444934Y-89019776D01*
X157444934Y-88541308D01*
X157448361Y-88533035D01*
X157455662Y-88529648D01*
X158032305Y-88481594D01*
X158040834Y-88484322D01*
G37*
%TD.AperFunction*%
%TD*%
%TA.AperFunction,Conductor*%
%TO.N,/SHUNTL*%
G36*
X149158802Y-93665487D02*
G01*
X149787734Y-93927542D01*
X149794053Y-93933887D01*
X149794934Y-93938342D01*
X149794934Y-94122741D01*
X149791507Y-94131014D01*
X149787734Y-94133541D01*
X149158804Y-94395595D01*
X149149849Y-94395614D01*
X149143505Y-94389297D01*
X148995809Y-94035041D01*
X148995789Y-94026092D01*
X149143506Y-93671784D01*
X149149852Y-93665468D01*
X149158802Y-93665487D01*
G37*
%TD.AperFunction*%
%TD*%
%TA.AperFunction,Conductor*%
%TO.N,/SHUNTL*%
G36*
X165387247Y-94927735D02*
G01*
X165393843Y-94933791D01*
X165394934Y-94938725D01*
X165394934Y-95122358D01*
X165391507Y-95130631D01*
X165387247Y-95133348D01*
X164920239Y-95303872D01*
X164911292Y-95303491D01*
X164905430Y-95297393D01*
X164795817Y-95035051D01*
X164795791Y-95026098D01*
X164795796Y-95026084D01*
X164905430Y-94763689D01*
X164911782Y-94757378D01*
X164920236Y-94757211D01*
X165387247Y-94927735D01*
G37*
%TD.AperFunction*%
%TD*%
%TA.AperFunction,Conductor*%
%TO.N,/SHUNTL*%
G36*
X152654321Y-94179393D02*
G01*
X152660646Y-94185730D01*
X152660890Y-94194019D01*
X152507945Y-94636575D01*
X152505160Y-94641026D01*
X152167629Y-94978557D01*
X152159356Y-94981984D01*
X152151083Y-94978557D01*
X152148095Y-94973459D01*
X152126573Y-94897135D01*
X151928196Y-94193595D01*
X151929249Y-94184705D01*
X151934953Y-94179624D01*
X152289734Y-94031707D01*
X152298686Y-94031687D01*
X152654321Y-94179393D01*
G37*
%TD.AperFunction*%
%TD*%
%TA.AperFunction,Conductor*%
%TO.N,/SHUNTL*%
G36*
X158057552Y-88481593D02*
G01*
X158634206Y-88529648D01*
X158642166Y-88533750D01*
X158644934Y-88541308D01*
X158644934Y-89019776D01*
X158641507Y-89028049D01*
X158634206Y-89031436D01*
X158057563Y-89079489D01*
X158049033Y-89076761D01*
X158044931Y-89068801D01*
X158044891Y-89067887D01*
X158043934Y-88780542D01*
X158044891Y-88493213D01*
X158048345Y-88484953D01*
X158056630Y-88481554D01*
X158057552Y-88481593D01*
G37*
%TD.AperFunction*%
%TD*%
%TA.AperFunction,Conductor*%
%TO.N,/SHUNTL*%
G36*
X165042441Y-94433969D02*
G01*
X165045828Y-94441270D01*
X165093881Y-95017912D01*
X165091153Y-95026442D01*
X165083193Y-95030544D01*
X165082260Y-95030584D01*
X164794973Y-95031541D01*
X164794895Y-95031541D01*
X164507607Y-95030584D01*
X164499345Y-95027130D01*
X164495946Y-95018845D01*
X164495986Y-95017912D01*
X164544040Y-94441270D01*
X164548142Y-94433310D01*
X164555700Y-94430542D01*
X165034168Y-94430542D01*
X165042441Y-94433969D01*
G37*
%TD.AperFunction*%
%TD*%
%TA.AperFunction,Conductor*%
%TO.N,/SHUNTL*%
G36*
X152146362Y-93671786D02*
G01*
X152294057Y-94026040D01*
X152294078Y-94034994D01*
X152294057Y-94035044D01*
X152146362Y-94389297D01*
X152140015Y-94395615D01*
X152131063Y-94395595D01*
X151814770Y-94263806D01*
X151810997Y-94261279D01*
X151734513Y-94184795D01*
X151630477Y-94136282D01*
X151583073Y-94130042D01*
X151506634Y-94130042D01*
X151498361Y-94126615D01*
X151494934Y-94118342D01*
X151494934Y-93942741D01*
X151498361Y-93934468D01*
X151506633Y-93931041D01*
X151583072Y-93931041D01*
X151630479Y-93924801D01*
X151734513Y-93876289D01*
X151811003Y-93799798D01*
X151814764Y-93797279D01*
X152131065Y-93665487D01*
X152140018Y-93665469D01*
X152146362Y-93671786D01*
G37*
%TD.AperFunction*%
%TD*%
M02*
