%TF.GenerationSoftware,KiCad,Pcbnew,8.0.6*%
%TF.CreationDate,2024-12-26T15:20:47-06:00*%
%TF.ProjectId,RECESSIM-CW312T-SAM4C32,52454345-5353-4494-9d2d-435733313254,rev?*%
%TF.SameCoordinates,Original*%
%TF.FileFunction,Legend,Top*%
%TF.FilePolarity,Positive*%
%FSLAX46Y46*%
G04 Gerber Fmt 4.6, Leading zero omitted, Abs format (unit mm)*
G04 Created by KiCad (PCBNEW 8.0.6) date 2024-12-26 15:20:47*
%MOMM*%
%LPD*%
G01*
G04 APERTURE LIST*
%ADD10C,0.200000*%
%ADD11C,0.150000*%
%ADD12C,0.250000*%
%ADD13C,0.120000*%
G04 APERTURE END LIST*
D10*
X149300000Y-74100000D02*
X149300000Y-70500000D01*
X166900000Y-74100000D02*
X149300000Y-74100000D01*
X166900000Y-70500000D02*
X166900000Y-74100000D01*
X149300000Y-70500000D02*
X166900000Y-70500000D01*
X143000000Y-107800000D02*
X143000000Y-111400000D01*
X148950000Y-107800000D02*
X143000000Y-107800000D01*
X148950000Y-104950000D02*
X148950000Y-107800000D01*
X152450000Y-104950000D02*
X148950000Y-104950000D01*
X152450000Y-111400000D02*
X152450000Y-104950000D01*
X143000000Y-111400000D02*
X152450000Y-111400000D01*
X144637469Y-108883465D02*
X144970802Y-108883465D01*
X145113659Y-109407275D02*
X144637469Y-109407275D01*
X144637469Y-109407275D02*
X144637469Y-108407275D01*
X144637469Y-108407275D02*
X145113659Y-108407275D01*
X146113659Y-109407275D02*
X145780326Y-108931084D01*
X145542231Y-109407275D02*
X145542231Y-108407275D01*
X145542231Y-108407275D02*
X145923183Y-108407275D01*
X145923183Y-108407275D02*
X146018421Y-108454894D01*
X146018421Y-108454894D02*
X146066040Y-108502513D01*
X146066040Y-108502513D02*
X146113659Y-108597751D01*
X146113659Y-108597751D02*
X146113659Y-108740608D01*
X146113659Y-108740608D02*
X146066040Y-108835846D01*
X146066040Y-108835846D02*
X146018421Y-108883465D01*
X146018421Y-108883465D02*
X145923183Y-108931084D01*
X145923183Y-108931084D02*
X145542231Y-108931084D01*
X146494612Y-109121560D02*
X146970802Y-109121560D01*
X146399374Y-109407275D02*
X146732707Y-108407275D01*
X146732707Y-108407275D02*
X147066040Y-109407275D01*
X147351755Y-109359656D02*
X147494612Y-109407275D01*
X147494612Y-109407275D02*
X147732707Y-109407275D01*
X147732707Y-109407275D02*
X147827945Y-109359656D01*
X147827945Y-109359656D02*
X147875564Y-109312036D01*
X147875564Y-109312036D02*
X147923183Y-109216798D01*
X147923183Y-109216798D02*
X147923183Y-109121560D01*
X147923183Y-109121560D02*
X147875564Y-109026322D01*
X147875564Y-109026322D02*
X147827945Y-108978703D01*
X147827945Y-108978703D02*
X147732707Y-108931084D01*
X147732707Y-108931084D02*
X147542231Y-108883465D01*
X147542231Y-108883465D02*
X147446993Y-108835846D01*
X147446993Y-108835846D02*
X147399374Y-108788227D01*
X147399374Y-108788227D02*
X147351755Y-108692989D01*
X147351755Y-108692989D02*
X147351755Y-108597751D01*
X147351755Y-108597751D02*
X147399374Y-108502513D01*
X147399374Y-108502513D02*
X147446993Y-108454894D01*
X147446993Y-108454894D02*
X147542231Y-108407275D01*
X147542231Y-108407275D02*
X147780326Y-108407275D01*
X147780326Y-108407275D02*
X147923183Y-108454894D01*
X148351755Y-108883465D02*
X148685088Y-108883465D01*
X148827945Y-109407275D02*
X148351755Y-109407275D01*
X148351755Y-109407275D02*
X148351755Y-108407275D01*
X148351755Y-108407275D02*
X148827945Y-108407275D01*
X143685088Y-110017219D02*
X143685088Y-110731504D01*
X143685088Y-110731504D02*
X143637469Y-110874361D01*
X143637469Y-110874361D02*
X143542231Y-110969600D01*
X143542231Y-110969600D02*
X143399374Y-111017219D01*
X143399374Y-111017219D02*
X143304136Y-111017219D01*
X144161279Y-110017219D02*
X144161279Y-110826742D01*
X144161279Y-110826742D02*
X144208898Y-110921980D01*
X144208898Y-110921980D02*
X144256517Y-110969600D01*
X144256517Y-110969600D02*
X144351755Y-111017219D01*
X144351755Y-111017219D02*
X144542231Y-111017219D01*
X144542231Y-111017219D02*
X144637469Y-110969600D01*
X144637469Y-110969600D02*
X144685088Y-110921980D01*
X144685088Y-110921980D02*
X144732707Y-110826742D01*
X144732707Y-110826742D02*
X144732707Y-110017219D01*
X145208898Y-111017219D02*
X145208898Y-110017219D01*
X145208898Y-110017219D02*
X145542231Y-110731504D01*
X145542231Y-110731504D02*
X145875564Y-110017219D01*
X145875564Y-110017219D02*
X145875564Y-111017219D01*
X146351755Y-111017219D02*
X146351755Y-110017219D01*
X146351755Y-110017219D02*
X146732707Y-110017219D01*
X146732707Y-110017219D02*
X146827945Y-110064838D01*
X146827945Y-110064838D02*
X146875564Y-110112457D01*
X146875564Y-110112457D02*
X146923183Y-110207695D01*
X146923183Y-110207695D02*
X146923183Y-110350552D01*
X146923183Y-110350552D02*
X146875564Y-110445790D01*
X146875564Y-110445790D02*
X146827945Y-110493409D01*
X146827945Y-110493409D02*
X146732707Y-110541028D01*
X146732707Y-110541028D02*
X146351755Y-110541028D01*
X147351755Y-110493409D02*
X147685088Y-110493409D01*
X147827945Y-111017219D02*
X147351755Y-111017219D01*
X147351755Y-111017219D02*
X147351755Y-110017219D01*
X147351755Y-110017219D02*
X147827945Y-110017219D01*
X148827945Y-111017219D02*
X148494612Y-110541028D01*
X148256517Y-111017219D02*
X148256517Y-110017219D01*
X148256517Y-110017219D02*
X148637469Y-110017219D01*
X148637469Y-110017219D02*
X148732707Y-110064838D01*
X148732707Y-110064838D02*
X148780326Y-110112457D01*
X148780326Y-110112457D02*
X148827945Y-110207695D01*
X148827945Y-110207695D02*
X148827945Y-110350552D01*
X148827945Y-110350552D02*
X148780326Y-110445790D01*
X148780326Y-110445790D02*
X148732707Y-110493409D01*
X148732707Y-110493409D02*
X148637469Y-110541028D01*
X148637469Y-110541028D02*
X148256517Y-110541028D01*
D11*
X169700000Y-83500000D02*
X179900000Y-83500000D01*
X169700000Y-81900000D02*
X179900000Y-81900000D01*
X169700000Y-80300000D02*
X179900000Y-80300000D01*
X169700000Y-78700000D02*
X179900000Y-78700000D01*
X169700000Y-77100000D02*
X179900000Y-77100000D01*
X169700000Y-75450000D02*
X179900000Y-75450000D01*
D10*
X175200000Y-85200000D02*
X175200000Y-73700000D01*
X179900000Y-73700000D02*
X169700000Y-73700000D01*
X179900000Y-85200000D02*
X179900000Y-73700000D01*
X169700000Y-85200000D02*
X179900000Y-85200000D01*
X169700000Y-73700000D02*
X169700000Y-85200000D01*
D11*
X170662969Y-75160155D02*
X170186779Y-75160155D01*
X170186779Y-75160155D02*
X170186779Y-74160155D01*
X170996303Y-74636345D02*
X171329636Y-74636345D01*
X171472493Y-75160155D02*
X170996303Y-75160155D01*
X170996303Y-75160155D02*
X170996303Y-74160155D01*
X170996303Y-74160155D02*
X171472493Y-74160155D01*
X171901065Y-75160155D02*
X171901065Y-74160155D01*
X171901065Y-74160155D02*
X172139160Y-74160155D01*
X172139160Y-74160155D02*
X172282017Y-74207774D01*
X172282017Y-74207774D02*
X172377255Y-74303012D01*
X172377255Y-74303012D02*
X172424874Y-74398250D01*
X172424874Y-74398250D02*
X172472493Y-74588726D01*
X172472493Y-74588726D02*
X172472493Y-74731583D01*
X172472493Y-74731583D02*
X172424874Y-74922059D01*
X172424874Y-74922059D02*
X172377255Y-75017297D01*
X172377255Y-75017297D02*
X172282017Y-75112536D01*
X172282017Y-75112536D02*
X172139160Y-75160155D01*
X172139160Y-75160155D02*
X171901065Y-75160155D01*
X173424874Y-75160155D02*
X172853446Y-75160155D01*
X173139160Y-75160155D02*
X173139160Y-74160155D01*
X173139160Y-74160155D02*
X173043922Y-74303012D01*
X173043922Y-74303012D02*
X172948684Y-74398250D01*
X172948684Y-74398250D02*
X172853446Y-74445869D01*
X176139161Y-75160155D02*
X176139161Y-74160155D01*
X176139161Y-74160155D02*
X176520113Y-74160155D01*
X176520113Y-74160155D02*
X176615351Y-74207774D01*
X176615351Y-74207774D02*
X176662970Y-74255393D01*
X176662970Y-74255393D02*
X176710589Y-74350631D01*
X176710589Y-74350631D02*
X176710589Y-74493488D01*
X176710589Y-74493488D02*
X176662970Y-74588726D01*
X176662970Y-74588726D02*
X176615351Y-74636345D01*
X176615351Y-74636345D02*
X176520113Y-74683964D01*
X176520113Y-74683964D02*
X176139161Y-74683964D01*
X177091542Y-74874440D02*
X177567732Y-74874440D01*
X176996304Y-75160155D02*
X177329637Y-74160155D01*
X177329637Y-74160155D02*
X177662970Y-75160155D01*
X178520113Y-75160155D02*
X177948685Y-75160155D01*
X178234399Y-75160155D02*
X178234399Y-74160155D01*
X178234399Y-74160155D02*
X178139161Y-74303012D01*
X178139161Y-74303012D02*
X178043923Y-74398250D01*
X178043923Y-74398250D02*
X177948685Y-74445869D01*
X179377256Y-74160155D02*
X179186780Y-74160155D01*
X179186780Y-74160155D02*
X179091542Y-74207774D01*
X179091542Y-74207774D02*
X179043923Y-74255393D01*
X179043923Y-74255393D02*
X178948685Y-74398250D01*
X178948685Y-74398250D02*
X178901066Y-74588726D01*
X178901066Y-74588726D02*
X178901066Y-74969678D01*
X178901066Y-74969678D02*
X178948685Y-75064916D01*
X178948685Y-75064916D02*
X178996304Y-75112536D01*
X178996304Y-75112536D02*
X179091542Y-75160155D01*
X179091542Y-75160155D02*
X179282018Y-75160155D01*
X179282018Y-75160155D02*
X179377256Y-75112536D01*
X179377256Y-75112536D02*
X179424875Y-75064916D01*
X179424875Y-75064916D02*
X179472494Y-74969678D01*
X179472494Y-74969678D02*
X179472494Y-74731583D01*
X179472494Y-74731583D02*
X179424875Y-74636345D01*
X179424875Y-74636345D02*
X179377256Y-74588726D01*
X179377256Y-74588726D02*
X179282018Y-74541107D01*
X179282018Y-74541107D02*
X179091542Y-74541107D01*
X179091542Y-74541107D02*
X178996304Y-74588726D01*
X178996304Y-74588726D02*
X178948685Y-74636345D01*
X178948685Y-74636345D02*
X178901066Y-74731583D01*
X170662969Y-76770099D02*
X170186779Y-76770099D01*
X170186779Y-76770099D02*
X170186779Y-75770099D01*
X170996303Y-76246289D02*
X171329636Y-76246289D01*
X171472493Y-76770099D02*
X170996303Y-76770099D01*
X170996303Y-76770099D02*
X170996303Y-75770099D01*
X170996303Y-75770099D02*
X171472493Y-75770099D01*
X171901065Y-76770099D02*
X171901065Y-75770099D01*
X171901065Y-75770099D02*
X172139160Y-75770099D01*
X172139160Y-75770099D02*
X172282017Y-75817718D01*
X172282017Y-75817718D02*
X172377255Y-75912956D01*
X172377255Y-75912956D02*
X172424874Y-76008194D01*
X172424874Y-76008194D02*
X172472493Y-76198670D01*
X172472493Y-76198670D02*
X172472493Y-76341527D01*
X172472493Y-76341527D02*
X172424874Y-76532003D01*
X172424874Y-76532003D02*
X172377255Y-76627241D01*
X172377255Y-76627241D02*
X172282017Y-76722480D01*
X172282017Y-76722480D02*
X172139160Y-76770099D01*
X172139160Y-76770099D02*
X171901065Y-76770099D01*
X172853446Y-75865337D02*
X172901065Y-75817718D01*
X172901065Y-75817718D02*
X172996303Y-75770099D01*
X172996303Y-75770099D02*
X173234398Y-75770099D01*
X173234398Y-75770099D02*
X173329636Y-75817718D01*
X173329636Y-75817718D02*
X173377255Y-75865337D01*
X173377255Y-75865337D02*
X173424874Y-75960575D01*
X173424874Y-75960575D02*
X173424874Y-76055813D01*
X173424874Y-76055813D02*
X173377255Y-76198670D01*
X173377255Y-76198670D02*
X172805827Y-76770099D01*
X172805827Y-76770099D02*
X173424874Y-76770099D01*
X176139161Y-76770099D02*
X176139161Y-75770099D01*
X176139161Y-75770099D02*
X176520113Y-75770099D01*
X176520113Y-75770099D02*
X176615351Y-75817718D01*
X176615351Y-75817718D02*
X176662970Y-75865337D01*
X176662970Y-75865337D02*
X176710589Y-75960575D01*
X176710589Y-75960575D02*
X176710589Y-76103432D01*
X176710589Y-76103432D02*
X176662970Y-76198670D01*
X176662970Y-76198670D02*
X176615351Y-76246289D01*
X176615351Y-76246289D02*
X176520113Y-76293908D01*
X176520113Y-76293908D02*
X176139161Y-76293908D01*
X177091542Y-76484384D02*
X177567732Y-76484384D01*
X176996304Y-76770099D02*
X177329637Y-75770099D01*
X177329637Y-75770099D02*
X177662970Y-76770099D01*
X178520113Y-76770099D02*
X177948685Y-76770099D01*
X178234399Y-76770099D02*
X178234399Y-75770099D01*
X178234399Y-75770099D02*
X178139161Y-75912956D01*
X178139161Y-75912956D02*
X178043923Y-76008194D01*
X178043923Y-76008194D02*
X177948685Y-76055813D01*
X179424875Y-75770099D02*
X178948685Y-75770099D01*
X178948685Y-75770099D02*
X178901066Y-76246289D01*
X178901066Y-76246289D02*
X178948685Y-76198670D01*
X178948685Y-76198670D02*
X179043923Y-76151051D01*
X179043923Y-76151051D02*
X179282018Y-76151051D01*
X179282018Y-76151051D02*
X179377256Y-76198670D01*
X179377256Y-76198670D02*
X179424875Y-76246289D01*
X179424875Y-76246289D02*
X179472494Y-76341527D01*
X179472494Y-76341527D02*
X179472494Y-76579622D01*
X179472494Y-76579622D02*
X179424875Y-76674860D01*
X179424875Y-76674860D02*
X179377256Y-76722480D01*
X179377256Y-76722480D02*
X179282018Y-76770099D01*
X179282018Y-76770099D02*
X179043923Y-76770099D01*
X179043923Y-76770099D02*
X178948685Y-76722480D01*
X178948685Y-76722480D02*
X178901066Y-76674860D01*
X170662969Y-78380043D02*
X170186779Y-78380043D01*
X170186779Y-78380043D02*
X170186779Y-77380043D01*
X170996303Y-77856233D02*
X171329636Y-77856233D01*
X171472493Y-78380043D02*
X170996303Y-78380043D01*
X170996303Y-78380043D02*
X170996303Y-77380043D01*
X170996303Y-77380043D02*
X171472493Y-77380043D01*
X171901065Y-78380043D02*
X171901065Y-77380043D01*
X171901065Y-77380043D02*
X172139160Y-77380043D01*
X172139160Y-77380043D02*
X172282017Y-77427662D01*
X172282017Y-77427662D02*
X172377255Y-77522900D01*
X172377255Y-77522900D02*
X172424874Y-77618138D01*
X172424874Y-77618138D02*
X172472493Y-77808614D01*
X172472493Y-77808614D02*
X172472493Y-77951471D01*
X172472493Y-77951471D02*
X172424874Y-78141947D01*
X172424874Y-78141947D02*
X172377255Y-78237185D01*
X172377255Y-78237185D02*
X172282017Y-78332424D01*
X172282017Y-78332424D02*
X172139160Y-78380043D01*
X172139160Y-78380043D02*
X171901065Y-78380043D01*
X172805827Y-77380043D02*
X173424874Y-77380043D01*
X173424874Y-77380043D02*
X173091541Y-77760995D01*
X173091541Y-77760995D02*
X173234398Y-77760995D01*
X173234398Y-77760995D02*
X173329636Y-77808614D01*
X173329636Y-77808614D02*
X173377255Y-77856233D01*
X173377255Y-77856233D02*
X173424874Y-77951471D01*
X173424874Y-77951471D02*
X173424874Y-78189566D01*
X173424874Y-78189566D02*
X173377255Y-78284804D01*
X173377255Y-78284804D02*
X173329636Y-78332424D01*
X173329636Y-78332424D02*
X173234398Y-78380043D01*
X173234398Y-78380043D02*
X172948684Y-78380043D01*
X172948684Y-78380043D02*
X172853446Y-78332424D01*
X172853446Y-78332424D02*
X172805827Y-78284804D01*
X176139161Y-78380043D02*
X176139161Y-77380043D01*
X176139161Y-77380043D02*
X176520113Y-77380043D01*
X176520113Y-77380043D02*
X176615351Y-77427662D01*
X176615351Y-77427662D02*
X176662970Y-77475281D01*
X176662970Y-77475281D02*
X176710589Y-77570519D01*
X176710589Y-77570519D02*
X176710589Y-77713376D01*
X176710589Y-77713376D02*
X176662970Y-77808614D01*
X176662970Y-77808614D02*
X176615351Y-77856233D01*
X176615351Y-77856233D02*
X176520113Y-77903852D01*
X176520113Y-77903852D02*
X176139161Y-77903852D01*
X177091542Y-78094328D02*
X177567732Y-78094328D01*
X176996304Y-78380043D02*
X177329637Y-77380043D01*
X177329637Y-77380043D02*
X177662970Y-78380043D01*
X178520113Y-78380043D02*
X177948685Y-78380043D01*
X178234399Y-78380043D02*
X178234399Y-77380043D01*
X178234399Y-77380043D02*
X178139161Y-77522900D01*
X178139161Y-77522900D02*
X178043923Y-77618138D01*
X178043923Y-77618138D02*
X177948685Y-77665757D01*
X179377256Y-77713376D02*
X179377256Y-78380043D01*
X179139161Y-77332424D02*
X178901066Y-78046709D01*
X178901066Y-78046709D02*
X179520113Y-78046709D01*
X170710588Y-79037606D02*
X170615350Y-78989987D01*
X170615350Y-78989987D02*
X170472493Y-78989987D01*
X170472493Y-78989987D02*
X170329636Y-79037606D01*
X170329636Y-79037606D02*
X170234398Y-79132844D01*
X170234398Y-79132844D02*
X170186779Y-79228082D01*
X170186779Y-79228082D02*
X170139160Y-79418558D01*
X170139160Y-79418558D02*
X170139160Y-79561415D01*
X170139160Y-79561415D02*
X170186779Y-79751891D01*
X170186779Y-79751891D02*
X170234398Y-79847129D01*
X170234398Y-79847129D02*
X170329636Y-79942368D01*
X170329636Y-79942368D02*
X170472493Y-79989987D01*
X170472493Y-79989987D02*
X170567731Y-79989987D01*
X170567731Y-79989987D02*
X170710588Y-79942368D01*
X170710588Y-79942368D02*
X170758207Y-79894748D01*
X170758207Y-79894748D02*
X170758207Y-79561415D01*
X170758207Y-79561415D02*
X170567731Y-79561415D01*
X171186779Y-79989987D02*
X171186779Y-78989987D01*
X171186779Y-78989987D02*
X171567731Y-78989987D01*
X171567731Y-78989987D02*
X171662969Y-79037606D01*
X171662969Y-79037606D02*
X171710588Y-79085225D01*
X171710588Y-79085225D02*
X171758207Y-79180463D01*
X171758207Y-79180463D02*
X171758207Y-79323320D01*
X171758207Y-79323320D02*
X171710588Y-79418558D01*
X171710588Y-79418558D02*
X171662969Y-79466177D01*
X171662969Y-79466177D02*
X171567731Y-79513796D01*
X171567731Y-79513796D02*
X171186779Y-79513796D01*
X172186779Y-79989987D02*
X172186779Y-78989987D01*
X172853445Y-78989987D02*
X173043921Y-78989987D01*
X173043921Y-78989987D02*
X173139159Y-79037606D01*
X173139159Y-79037606D02*
X173234397Y-79132844D01*
X173234397Y-79132844D02*
X173282016Y-79323320D01*
X173282016Y-79323320D02*
X173282016Y-79656653D01*
X173282016Y-79656653D02*
X173234397Y-79847129D01*
X173234397Y-79847129D02*
X173139159Y-79942368D01*
X173139159Y-79942368D02*
X173043921Y-79989987D01*
X173043921Y-79989987D02*
X172853445Y-79989987D01*
X172853445Y-79989987D02*
X172758207Y-79942368D01*
X172758207Y-79942368D02*
X172662969Y-79847129D01*
X172662969Y-79847129D02*
X172615350Y-79656653D01*
X172615350Y-79656653D02*
X172615350Y-79323320D01*
X172615350Y-79323320D02*
X172662969Y-79132844D01*
X172662969Y-79132844D02*
X172758207Y-79037606D01*
X172758207Y-79037606D02*
X172853445Y-78989987D01*
X174234397Y-79989987D02*
X173662969Y-79989987D01*
X173948683Y-79989987D02*
X173948683Y-78989987D01*
X173948683Y-78989987D02*
X173853445Y-79132844D01*
X173853445Y-79132844D02*
X173758207Y-79228082D01*
X173758207Y-79228082D02*
X173662969Y-79275701D01*
X176186779Y-79989987D02*
X176186779Y-78989987D01*
X176186779Y-78989987D02*
X176567731Y-78989987D01*
X176567731Y-78989987D02*
X176662969Y-79037606D01*
X176662969Y-79037606D02*
X176710588Y-79085225D01*
X176710588Y-79085225D02*
X176758207Y-79180463D01*
X176758207Y-79180463D02*
X176758207Y-79323320D01*
X176758207Y-79323320D02*
X176710588Y-79418558D01*
X176710588Y-79418558D02*
X176662969Y-79466177D01*
X176662969Y-79466177D02*
X176567731Y-79513796D01*
X176567731Y-79513796D02*
X176186779Y-79513796D01*
X177139160Y-79704272D02*
X177615350Y-79704272D01*
X177043922Y-79989987D02*
X177377255Y-78989987D01*
X177377255Y-78989987D02*
X177710588Y-79989987D01*
X178567731Y-79989987D02*
X177996303Y-79989987D01*
X178282017Y-79989987D02*
X178282017Y-78989987D01*
X178282017Y-78989987D02*
X178186779Y-79132844D01*
X178186779Y-79132844D02*
X178091541Y-79228082D01*
X178091541Y-79228082D02*
X177996303Y-79275701D01*
X179186779Y-78989987D02*
X179282017Y-78989987D01*
X179282017Y-78989987D02*
X179377255Y-79037606D01*
X179377255Y-79037606D02*
X179424874Y-79085225D01*
X179424874Y-79085225D02*
X179472493Y-79180463D01*
X179472493Y-79180463D02*
X179520112Y-79370939D01*
X179520112Y-79370939D02*
X179520112Y-79609034D01*
X179520112Y-79609034D02*
X179472493Y-79799510D01*
X179472493Y-79799510D02*
X179424874Y-79894748D01*
X179424874Y-79894748D02*
X179377255Y-79942368D01*
X179377255Y-79942368D02*
X179282017Y-79989987D01*
X179282017Y-79989987D02*
X179186779Y-79989987D01*
X179186779Y-79989987D02*
X179091541Y-79942368D01*
X179091541Y-79942368D02*
X179043922Y-79894748D01*
X179043922Y-79894748D02*
X178996303Y-79799510D01*
X178996303Y-79799510D02*
X178948684Y-79609034D01*
X178948684Y-79609034D02*
X178948684Y-79370939D01*
X178948684Y-79370939D02*
X178996303Y-79180463D01*
X178996303Y-79180463D02*
X179043922Y-79085225D01*
X179043922Y-79085225D02*
X179091541Y-79037606D01*
X179091541Y-79037606D02*
X179186779Y-78989987D01*
X170710588Y-80647550D02*
X170615350Y-80599931D01*
X170615350Y-80599931D02*
X170472493Y-80599931D01*
X170472493Y-80599931D02*
X170329636Y-80647550D01*
X170329636Y-80647550D02*
X170234398Y-80742788D01*
X170234398Y-80742788D02*
X170186779Y-80838026D01*
X170186779Y-80838026D02*
X170139160Y-81028502D01*
X170139160Y-81028502D02*
X170139160Y-81171359D01*
X170139160Y-81171359D02*
X170186779Y-81361835D01*
X170186779Y-81361835D02*
X170234398Y-81457073D01*
X170234398Y-81457073D02*
X170329636Y-81552312D01*
X170329636Y-81552312D02*
X170472493Y-81599931D01*
X170472493Y-81599931D02*
X170567731Y-81599931D01*
X170567731Y-81599931D02*
X170710588Y-81552312D01*
X170710588Y-81552312D02*
X170758207Y-81504692D01*
X170758207Y-81504692D02*
X170758207Y-81171359D01*
X170758207Y-81171359D02*
X170567731Y-81171359D01*
X171186779Y-81599931D02*
X171186779Y-80599931D01*
X171186779Y-80599931D02*
X171567731Y-80599931D01*
X171567731Y-80599931D02*
X171662969Y-80647550D01*
X171662969Y-80647550D02*
X171710588Y-80695169D01*
X171710588Y-80695169D02*
X171758207Y-80790407D01*
X171758207Y-80790407D02*
X171758207Y-80933264D01*
X171758207Y-80933264D02*
X171710588Y-81028502D01*
X171710588Y-81028502D02*
X171662969Y-81076121D01*
X171662969Y-81076121D02*
X171567731Y-81123740D01*
X171567731Y-81123740D02*
X171186779Y-81123740D01*
X172186779Y-81599931D02*
X172186779Y-80599931D01*
X172853445Y-80599931D02*
X173043921Y-80599931D01*
X173043921Y-80599931D02*
X173139159Y-80647550D01*
X173139159Y-80647550D02*
X173234397Y-80742788D01*
X173234397Y-80742788D02*
X173282016Y-80933264D01*
X173282016Y-80933264D02*
X173282016Y-81266597D01*
X173282016Y-81266597D02*
X173234397Y-81457073D01*
X173234397Y-81457073D02*
X173139159Y-81552312D01*
X173139159Y-81552312D02*
X173043921Y-81599931D01*
X173043921Y-81599931D02*
X172853445Y-81599931D01*
X172853445Y-81599931D02*
X172758207Y-81552312D01*
X172758207Y-81552312D02*
X172662969Y-81457073D01*
X172662969Y-81457073D02*
X172615350Y-81266597D01*
X172615350Y-81266597D02*
X172615350Y-80933264D01*
X172615350Y-80933264D02*
X172662969Y-80742788D01*
X172662969Y-80742788D02*
X172758207Y-80647550D01*
X172758207Y-80647550D02*
X172853445Y-80599931D01*
X173662969Y-80695169D02*
X173710588Y-80647550D01*
X173710588Y-80647550D02*
X173805826Y-80599931D01*
X173805826Y-80599931D02*
X174043921Y-80599931D01*
X174043921Y-80599931D02*
X174139159Y-80647550D01*
X174139159Y-80647550D02*
X174186778Y-80695169D01*
X174186778Y-80695169D02*
X174234397Y-80790407D01*
X174234397Y-80790407D02*
X174234397Y-80885645D01*
X174234397Y-80885645D02*
X174186778Y-81028502D01*
X174186778Y-81028502D02*
X173615350Y-81599931D01*
X173615350Y-81599931D02*
X174234397Y-81599931D01*
X176186779Y-81599931D02*
X176186779Y-80599931D01*
X176186779Y-80599931D02*
X176567731Y-80599931D01*
X176567731Y-80599931D02*
X176662969Y-80647550D01*
X176662969Y-80647550D02*
X176710588Y-80695169D01*
X176710588Y-80695169D02*
X176758207Y-80790407D01*
X176758207Y-80790407D02*
X176758207Y-80933264D01*
X176758207Y-80933264D02*
X176710588Y-81028502D01*
X176710588Y-81028502D02*
X176662969Y-81076121D01*
X176662969Y-81076121D02*
X176567731Y-81123740D01*
X176567731Y-81123740D02*
X176186779Y-81123740D01*
X177139160Y-81314216D02*
X177615350Y-81314216D01*
X177043922Y-81599931D02*
X177377255Y-80599931D01*
X177377255Y-80599931D02*
X177710588Y-81599931D01*
X178091541Y-81599931D02*
X178282017Y-81599931D01*
X178282017Y-81599931D02*
X178377255Y-81552312D01*
X178377255Y-81552312D02*
X178424874Y-81504692D01*
X178424874Y-81504692D02*
X178520112Y-81361835D01*
X178520112Y-81361835D02*
X178567731Y-81171359D01*
X178567731Y-81171359D02*
X178567731Y-80790407D01*
X178567731Y-80790407D02*
X178520112Y-80695169D01*
X178520112Y-80695169D02*
X178472493Y-80647550D01*
X178472493Y-80647550D02*
X178377255Y-80599931D01*
X178377255Y-80599931D02*
X178186779Y-80599931D01*
X178186779Y-80599931D02*
X178091541Y-80647550D01*
X178091541Y-80647550D02*
X178043922Y-80695169D01*
X178043922Y-80695169D02*
X177996303Y-80790407D01*
X177996303Y-80790407D02*
X177996303Y-81028502D01*
X177996303Y-81028502D02*
X178043922Y-81123740D01*
X178043922Y-81123740D02*
X178091541Y-81171359D01*
X178091541Y-81171359D02*
X178186779Y-81218978D01*
X178186779Y-81218978D02*
X178377255Y-81218978D01*
X178377255Y-81218978D02*
X178472493Y-81171359D01*
X178472493Y-81171359D02*
X178520112Y-81123740D01*
X178520112Y-81123740D02*
X178567731Y-81028502D01*
X170710588Y-82257494D02*
X170615350Y-82209875D01*
X170615350Y-82209875D02*
X170472493Y-82209875D01*
X170472493Y-82209875D02*
X170329636Y-82257494D01*
X170329636Y-82257494D02*
X170234398Y-82352732D01*
X170234398Y-82352732D02*
X170186779Y-82447970D01*
X170186779Y-82447970D02*
X170139160Y-82638446D01*
X170139160Y-82638446D02*
X170139160Y-82781303D01*
X170139160Y-82781303D02*
X170186779Y-82971779D01*
X170186779Y-82971779D02*
X170234398Y-83067017D01*
X170234398Y-83067017D02*
X170329636Y-83162256D01*
X170329636Y-83162256D02*
X170472493Y-83209875D01*
X170472493Y-83209875D02*
X170567731Y-83209875D01*
X170567731Y-83209875D02*
X170710588Y-83162256D01*
X170710588Y-83162256D02*
X170758207Y-83114636D01*
X170758207Y-83114636D02*
X170758207Y-82781303D01*
X170758207Y-82781303D02*
X170567731Y-82781303D01*
X171186779Y-83209875D02*
X171186779Y-82209875D01*
X171186779Y-82209875D02*
X171567731Y-82209875D01*
X171567731Y-82209875D02*
X171662969Y-82257494D01*
X171662969Y-82257494D02*
X171710588Y-82305113D01*
X171710588Y-82305113D02*
X171758207Y-82400351D01*
X171758207Y-82400351D02*
X171758207Y-82543208D01*
X171758207Y-82543208D02*
X171710588Y-82638446D01*
X171710588Y-82638446D02*
X171662969Y-82686065D01*
X171662969Y-82686065D02*
X171567731Y-82733684D01*
X171567731Y-82733684D02*
X171186779Y-82733684D01*
X172186779Y-83209875D02*
X172186779Y-82209875D01*
X172853445Y-82209875D02*
X173043921Y-82209875D01*
X173043921Y-82209875D02*
X173139159Y-82257494D01*
X173139159Y-82257494D02*
X173234397Y-82352732D01*
X173234397Y-82352732D02*
X173282016Y-82543208D01*
X173282016Y-82543208D02*
X173282016Y-82876541D01*
X173282016Y-82876541D02*
X173234397Y-83067017D01*
X173234397Y-83067017D02*
X173139159Y-83162256D01*
X173139159Y-83162256D02*
X173043921Y-83209875D01*
X173043921Y-83209875D02*
X172853445Y-83209875D01*
X172853445Y-83209875D02*
X172758207Y-83162256D01*
X172758207Y-83162256D02*
X172662969Y-83067017D01*
X172662969Y-83067017D02*
X172615350Y-82876541D01*
X172615350Y-82876541D02*
X172615350Y-82543208D01*
X172615350Y-82543208D02*
X172662969Y-82352732D01*
X172662969Y-82352732D02*
X172758207Y-82257494D01*
X172758207Y-82257494D02*
X172853445Y-82209875D01*
X173615350Y-82209875D02*
X174234397Y-82209875D01*
X174234397Y-82209875D02*
X173901064Y-82590827D01*
X173901064Y-82590827D02*
X174043921Y-82590827D01*
X174043921Y-82590827D02*
X174139159Y-82638446D01*
X174139159Y-82638446D02*
X174186778Y-82686065D01*
X174186778Y-82686065D02*
X174234397Y-82781303D01*
X174234397Y-82781303D02*
X174234397Y-83019398D01*
X174234397Y-83019398D02*
X174186778Y-83114636D01*
X174186778Y-83114636D02*
X174139159Y-83162256D01*
X174139159Y-83162256D02*
X174043921Y-83209875D01*
X174043921Y-83209875D02*
X173758207Y-83209875D01*
X173758207Y-83209875D02*
X173662969Y-83162256D01*
X173662969Y-83162256D02*
X173615350Y-83114636D01*
X176186779Y-83209875D02*
X176186779Y-82209875D01*
X176186779Y-82209875D02*
X176567731Y-82209875D01*
X176567731Y-82209875D02*
X176662969Y-82257494D01*
X176662969Y-82257494D02*
X176710588Y-82305113D01*
X176710588Y-82305113D02*
X176758207Y-82400351D01*
X176758207Y-82400351D02*
X176758207Y-82543208D01*
X176758207Y-82543208D02*
X176710588Y-82638446D01*
X176710588Y-82638446D02*
X176662969Y-82686065D01*
X176662969Y-82686065D02*
X176567731Y-82733684D01*
X176567731Y-82733684D02*
X176186779Y-82733684D01*
X177139160Y-82924160D02*
X177615350Y-82924160D01*
X177043922Y-83209875D02*
X177377255Y-82209875D01*
X177377255Y-82209875D02*
X177710588Y-83209875D01*
X178186779Y-82638446D02*
X178091541Y-82590827D01*
X178091541Y-82590827D02*
X178043922Y-82543208D01*
X178043922Y-82543208D02*
X177996303Y-82447970D01*
X177996303Y-82447970D02*
X177996303Y-82400351D01*
X177996303Y-82400351D02*
X178043922Y-82305113D01*
X178043922Y-82305113D02*
X178091541Y-82257494D01*
X178091541Y-82257494D02*
X178186779Y-82209875D01*
X178186779Y-82209875D02*
X178377255Y-82209875D01*
X178377255Y-82209875D02*
X178472493Y-82257494D01*
X178472493Y-82257494D02*
X178520112Y-82305113D01*
X178520112Y-82305113D02*
X178567731Y-82400351D01*
X178567731Y-82400351D02*
X178567731Y-82447970D01*
X178567731Y-82447970D02*
X178520112Y-82543208D01*
X178520112Y-82543208D02*
X178472493Y-82590827D01*
X178472493Y-82590827D02*
X178377255Y-82638446D01*
X178377255Y-82638446D02*
X178186779Y-82638446D01*
X178186779Y-82638446D02*
X178091541Y-82686065D01*
X178091541Y-82686065D02*
X178043922Y-82733684D01*
X178043922Y-82733684D02*
X177996303Y-82828922D01*
X177996303Y-82828922D02*
X177996303Y-83019398D01*
X177996303Y-83019398D02*
X178043922Y-83114636D01*
X178043922Y-83114636D02*
X178091541Y-83162256D01*
X178091541Y-83162256D02*
X178186779Y-83209875D01*
X178186779Y-83209875D02*
X178377255Y-83209875D01*
X178377255Y-83209875D02*
X178472493Y-83162256D01*
X178472493Y-83162256D02*
X178520112Y-83114636D01*
X178520112Y-83114636D02*
X178567731Y-83019398D01*
X178567731Y-83019398D02*
X178567731Y-82828922D01*
X178567731Y-82828922D02*
X178520112Y-82733684D01*
X178520112Y-82733684D02*
X178472493Y-82686065D01*
X178472493Y-82686065D02*
X178377255Y-82638446D01*
X170710588Y-83867438D02*
X170615350Y-83819819D01*
X170615350Y-83819819D02*
X170472493Y-83819819D01*
X170472493Y-83819819D02*
X170329636Y-83867438D01*
X170329636Y-83867438D02*
X170234398Y-83962676D01*
X170234398Y-83962676D02*
X170186779Y-84057914D01*
X170186779Y-84057914D02*
X170139160Y-84248390D01*
X170139160Y-84248390D02*
X170139160Y-84391247D01*
X170139160Y-84391247D02*
X170186779Y-84581723D01*
X170186779Y-84581723D02*
X170234398Y-84676961D01*
X170234398Y-84676961D02*
X170329636Y-84772200D01*
X170329636Y-84772200D02*
X170472493Y-84819819D01*
X170472493Y-84819819D02*
X170567731Y-84819819D01*
X170567731Y-84819819D02*
X170710588Y-84772200D01*
X170710588Y-84772200D02*
X170758207Y-84724580D01*
X170758207Y-84724580D02*
X170758207Y-84391247D01*
X170758207Y-84391247D02*
X170567731Y-84391247D01*
X171186779Y-84819819D02*
X171186779Y-83819819D01*
X171186779Y-83819819D02*
X171567731Y-83819819D01*
X171567731Y-83819819D02*
X171662969Y-83867438D01*
X171662969Y-83867438D02*
X171710588Y-83915057D01*
X171710588Y-83915057D02*
X171758207Y-84010295D01*
X171758207Y-84010295D02*
X171758207Y-84153152D01*
X171758207Y-84153152D02*
X171710588Y-84248390D01*
X171710588Y-84248390D02*
X171662969Y-84296009D01*
X171662969Y-84296009D02*
X171567731Y-84343628D01*
X171567731Y-84343628D02*
X171186779Y-84343628D01*
X172186779Y-84819819D02*
X172186779Y-83819819D01*
X172853445Y-83819819D02*
X173043921Y-83819819D01*
X173043921Y-83819819D02*
X173139159Y-83867438D01*
X173139159Y-83867438D02*
X173234397Y-83962676D01*
X173234397Y-83962676D02*
X173282016Y-84153152D01*
X173282016Y-84153152D02*
X173282016Y-84486485D01*
X173282016Y-84486485D02*
X173234397Y-84676961D01*
X173234397Y-84676961D02*
X173139159Y-84772200D01*
X173139159Y-84772200D02*
X173043921Y-84819819D01*
X173043921Y-84819819D02*
X172853445Y-84819819D01*
X172853445Y-84819819D02*
X172758207Y-84772200D01*
X172758207Y-84772200D02*
X172662969Y-84676961D01*
X172662969Y-84676961D02*
X172615350Y-84486485D01*
X172615350Y-84486485D02*
X172615350Y-84153152D01*
X172615350Y-84153152D02*
X172662969Y-83962676D01*
X172662969Y-83962676D02*
X172758207Y-83867438D01*
X172758207Y-83867438D02*
X172853445Y-83819819D01*
X174139159Y-84153152D02*
X174139159Y-84819819D01*
X173901064Y-83772200D02*
X173662969Y-84486485D01*
X173662969Y-84486485D02*
X174282016Y-84486485D01*
X176186779Y-84819819D02*
X176186779Y-83819819D01*
X176186779Y-83819819D02*
X176567731Y-83819819D01*
X176567731Y-83819819D02*
X176662969Y-83867438D01*
X176662969Y-83867438D02*
X176710588Y-83915057D01*
X176710588Y-83915057D02*
X176758207Y-84010295D01*
X176758207Y-84010295D02*
X176758207Y-84153152D01*
X176758207Y-84153152D02*
X176710588Y-84248390D01*
X176710588Y-84248390D02*
X176662969Y-84296009D01*
X176662969Y-84296009D02*
X176567731Y-84343628D01*
X176567731Y-84343628D02*
X176186779Y-84343628D01*
X177139160Y-84534104D02*
X177615350Y-84534104D01*
X177043922Y-84819819D02*
X177377255Y-83819819D01*
X177377255Y-83819819D02*
X177710588Y-84819819D01*
X177948684Y-83819819D02*
X178615350Y-83819819D01*
X178615350Y-83819819D02*
X178186779Y-84819819D01*
X149786779Y-71286065D02*
X150120112Y-71286065D01*
X150262969Y-71809875D02*
X149786779Y-71809875D01*
X149786779Y-71809875D02*
X149786779Y-70809875D01*
X149786779Y-70809875D02*
X150262969Y-70809875D01*
X150691541Y-71143208D02*
X150691541Y-71809875D01*
X150691541Y-71238446D02*
X150739160Y-71190827D01*
X150739160Y-71190827D02*
X150834398Y-71143208D01*
X150834398Y-71143208D02*
X150977255Y-71143208D01*
X150977255Y-71143208D02*
X151072493Y-71190827D01*
X151072493Y-71190827D02*
X151120112Y-71286065D01*
X151120112Y-71286065D02*
X151120112Y-71809875D01*
X152024874Y-71809875D02*
X152024874Y-71286065D01*
X152024874Y-71286065D02*
X151977255Y-71190827D01*
X151977255Y-71190827D02*
X151882017Y-71143208D01*
X151882017Y-71143208D02*
X151691541Y-71143208D01*
X151691541Y-71143208D02*
X151596303Y-71190827D01*
X152024874Y-71762256D02*
X151929636Y-71809875D01*
X151929636Y-71809875D02*
X151691541Y-71809875D01*
X151691541Y-71809875D02*
X151596303Y-71762256D01*
X151596303Y-71762256D02*
X151548684Y-71667017D01*
X151548684Y-71667017D02*
X151548684Y-71571779D01*
X151548684Y-71571779D02*
X151596303Y-71476541D01*
X151596303Y-71476541D02*
X151691541Y-71428922D01*
X151691541Y-71428922D02*
X151929636Y-71428922D01*
X151929636Y-71428922D02*
X152024874Y-71381303D01*
X152501065Y-71809875D02*
X152501065Y-70809875D01*
X152501065Y-71190827D02*
X152596303Y-71143208D01*
X152596303Y-71143208D02*
X152786779Y-71143208D01*
X152786779Y-71143208D02*
X152882017Y-71190827D01*
X152882017Y-71190827D02*
X152929636Y-71238446D01*
X152929636Y-71238446D02*
X152977255Y-71333684D01*
X152977255Y-71333684D02*
X152977255Y-71619398D01*
X152977255Y-71619398D02*
X152929636Y-71714636D01*
X152929636Y-71714636D02*
X152882017Y-71762256D01*
X152882017Y-71762256D02*
X152786779Y-71809875D01*
X152786779Y-71809875D02*
X152596303Y-71809875D01*
X152596303Y-71809875D02*
X152501065Y-71762256D01*
X153548684Y-71809875D02*
X153453446Y-71762256D01*
X153453446Y-71762256D02*
X153405827Y-71667017D01*
X153405827Y-71667017D02*
X153405827Y-70809875D01*
X154310589Y-71762256D02*
X154215351Y-71809875D01*
X154215351Y-71809875D02*
X154024875Y-71809875D01*
X154024875Y-71809875D02*
X153929637Y-71762256D01*
X153929637Y-71762256D02*
X153882018Y-71667017D01*
X153882018Y-71667017D02*
X153882018Y-71286065D01*
X153882018Y-71286065D02*
X153929637Y-71190827D01*
X153929637Y-71190827D02*
X154024875Y-71143208D01*
X154024875Y-71143208D02*
X154215351Y-71143208D01*
X154215351Y-71143208D02*
X154310589Y-71190827D01*
X154310589Y-71190827D02*
X154358208Y-71286065D01*
X154358208Y-71286065D02*
X154358208Y-71381303D01*
X154358208Y-71381303D02*
X153882018Y-71476541D01*
X155453447Y-70809875D02*
X156072494Y-70809875D01*
X156072494Y-70809875D02*
X155739161Y-71190827D01*
X155739161Y-71190827D02*
X155882018Y-71190827D01*
X155882018Y-71190827D02*
X155977256Y-71238446D01*
X155977256Y-71238446D02*
X156024875Y-71286065D01*
X156024875Y-71286065D02*
X156072494Y-71381303D01*
X156072494Y-71381303D02*
X156072494Y-71619398D01*
X156072494Y-71619398D02*
X156024875Y-71714636D01*
X156024875Y-71714636D02*
X155977256Y-71762256D01*
X155977256Y-71762256D02*
X155882018Y-71809875D01*
X155882018Y-71809875D02*
X155596304Y-71809875D01*
X155596304Y-71809875D02*
X155501066Y-71762256D01*
X155501066Y-71762256D02*
X155453447Y-71714636D01*
X156501066Y-71714636D02*
X156548685Y-71762256D01*
X156548685Y-71762256D02*
X156501066Y-71809875D01*
X156501066Y-71809875D02*
X156453447Y-71762256D01*
X156453447Y-71762256D02*
X156501066Y-71714636D01*
X156501066Y-71714636D02*
X156501066Y-71809875D01*
X156882018Y-70809875D02*
X157501065Y-70809875D01*
X157501065Y-70809875D02*
X157167732Y-71190827D01*
X157167732Y-71190827D02*
X157310589Y-71190827D01*
X157310589Y-71190827D02*
X157405827Y-71238446D01*
X157405827Y-71238446D02*
X157453446Y-71286065D01*
X157453446Y-71286065D02*
X157501065Y-71381303D01*
X157501065Y-71381303D02*
X157501065Y-71619398D01*
X157501065Y-71619398D02*
X157453446Y-71714636D01*
X157453446Y-71714636D02*
X157405827Y-71762256D01*
X157405827Y-71762256D02*
X157310589Y-71809875D01*
X157310589Y-71809875D02*
X157024875Y-71809875D01*
X157024875Y-71809875D02*
X156929637Y-71762256D01*
X156929637Y-71762256D02*
X156882018Y-71714636D01*
X157786780Y-70809875D02*
X158120113Y-71809875D01*
X158120113Y-71809875D02*
X158453446Y-70809875D01*
X160120113Y-71809875D02*
X159786780Y-71333684D01*
X159548685Y-71809875D02*
X159548685Y-70809875D01*
X159548685Y-70809875D02*
X159929637Y-70809875D01*
X159929637Y-70809875D02*
X160024875Y-70857494D01*
X160024875Y-70857494D02*
X160072494Y-70905113D01*
X160072494Y-70905113D02*
X160120113Y-71000351D01*
X160120113Y-71000351D02*
X160120113Y-71143208D01*
X160120113Y-71143208D02*
X160072494Y-71238446D01*
X160072494Y-71238446D02*
X160024875Y-71286065D01*
X160024875Y-71286065D02*
X159929637Y-71333684D01*
X159929637Y-71333684D02*
X159548685Y-71333684D01*
X160929637Y-71762256D02*
X160834399Y-71809875D01*
X160834399Y-71809875D02*
X160643923Y-71809875D01*
X160643923Y-71809875D02*
X160548685Y-71762256D01*
X160548685Y-71762256D02*
X160501066Y-71667017D01*
X160501066Y-71667017D02*
X160501066Y-71286065D01*
X160501066Y-71286065D02*
X160548685Y-71190827D01*
X160548685Y-71190827D02*
X160643923Y-71143208D01*
X160643923Y-71143208D02*
X160834399Y-71143208D01*
X160834399Y-71143208D02*
X160929637Y-71190827D01*
X160929637Y-71190827D02*
X160977256Y-71286065D01*
X160977256Y-71286065D02*
X160977256Y-71381303D01*
X160977256Y-71381303D02*
X160501066Y-71476541D01*
X161834399Y-71143208D02*
X161834399Y-71952732D01*
X161834399Y-71952732D02*
X161786780Y-72047970D01*
X161786780Y-72047970D02*
X161739161Y-72095589D01*
X161739161Y-72095589D02*
X161643923Y-72143208D01*
X161643923Y-72143208D02*
X161501066Y-72143208D01*
X161501066Y-72143208D02*
X161405828Y-72095589D01*
X161834399Y-71762256D02*
X161739161Y-71809875D01*
X161739161Y-71809875D02*
X161548685Y-71809875D01*
X161548685Y-71809875D02*
X161453447Y-71762256D01*
X161453447Y-71762256D02*
X161405828Y-71714636D01*
X161405828Y-71714636D02*
X161358209Y-71619398D01*
X161358209Y-71619398D02*
X161358209Y-71333684D01*
X161358209Y-71333684D02*
X161405828Y-71238446D01*
X161405828Y-71238446D02*
X161453447Y-71190827D01*
X161453447Y-71190827D02*
X161548685Y-71143208D01*
X161548685Y-71143208D02*
X161739161Y-71143208D01*
X161739161Y-71143208D02*
X161834399Y-71190827D01*
X162739161Y-71143208D02*
X162739161Y-71809875D01*
X162310590Y-71143208D02*
X162310590Y-71667017D01*
X162310590Y-71667017D02*
X162358209Y-71762256D01*
X162358209Y-71762256D02*
X162453447Y-71809875D01*
X162453447Y-71809875D02*
X162596304Y-71809875D01*
X162596304Y-71809875D02*
X162691542Y-71762256D01*
X162691542Y-71762256D02*
X162739161Y-71714636D01*
X163358209Y-71809875D02*
X163262971Y-71762256D01*
X163262971Y-71762256D02*
X163215352Y-71667017D01*
X163215352Y-71667017D02*
X163215352Y-70809875D01*
X164167733Y-71809875D02*
X164167733Y-71286065D01*
X164167733Y-71286065D02*
X164120114Y-71190827D01*
X164120114Y-71190827D02*
X164024876Y-71143208D01*
X164024876Y-71143208D02*
X163834400Y-71143208D01*
X163834400Y-71143208D02*
X163739162Y-71190827D01*
X164167733Y-71762256D02*
X164072495Y-71809875D01*
X164072495Y-71809875D02*
X163834400Y-71809875D01*
X163834400Y-71809875D02*
X163739162Y-71762256D01*
X163739162Y-71762256D02*
X163691543Y-71667017D01*
X163691543Y-71667017D02*
X163691543Y-71571779D01*
X163691543Y-71571779D02*
X163739162Y-71476541D01*
X163739162Y-71476541D02*
X163834400Y-71428922D01*
X163834400Y-71428922D02*
X164072495Y-71428922D01*
X164072495Y-71428922D02*
X164167733Y-71381303D01*
X164501067Y-71143208D02*
X164882019Y-71143208D01*
X164643924Y-70809875D02*
X164643924Y-71667017D01*
X164643924Y-71667017D02*
X164691543Y-71762256D01*
X164691543Y-71762256D02*
X164786781Y-71809875D01*
X164786781Y-71809875D02*
X164882019Y-71809875D01*
X165358210Y-71809875D02*
X165262972Y-71762256D01*
X165262972Y-71762256D02*
X165215353Y-71714636D01*
X165215353Y-71714636D02*
X165167734Y-71619398D01*
X165167734Y-71619398D02*
X165167734Y-71333684D01*
X165167734Y-71333684D02*
X165215353Y-71238446D01*
X165215353Y-71238446D02*
X165262972Y-71190827D01*
X165262972Y-71190827D02*
X165358210Y-71143208D01*
X165358210Y-71143208D02*
X165501067Y-71143208D01*
X165501067Y-71143208D02*
X165596305Y-71190827D01*
X165596305Y-71190827D02*
X165643924Y-71238446D01*
X165643924Y-71238446D02*
X165691543Y-71333684D01*
X165691543Y-71333684D02*
X165691543Y-71619398D01*
X165691543Y-71619398D02*
X165643924Y-71714636D01*
X165643924Y-71714636D02*
X165596305Y-71762256D01*
X165596305Y-71762256D02*
X165501067Y-71809875D01*
X165501067Y-71809875D02*
X165358210Y-71809875D01*
X166120115Y-71809875D02*
X166120115Y-71143208D01*
X166120115Y-71333684D02*
X166167734Y-71238446D01*
X166167734Y-71238446D02*
X166215353Y-71190827D01*
X166215353Y-71190827D02*
X166310591Y-71143208D01*
X166310591Y-71143208D02*
X166405829Y-71143208D01*
X149786779Y-72896009D02*
X150120112Y-72896009D01*
X150262969Y-73419819D02*
X149786779Y-73419819D01*
X149786779Y-73419819D02*
X149786779Y-72419819D01*
X149786779Y-72419819D02*
X150262969Y-72419819D01*
X150691541Y-72753152D02*
X150691541Y-73419819D01*
X150691541Y-72848390D02*
X150739160Y-72800771D01*
X150739160Y-72800771D02*
X150834398Y-72753152D01*
X150834398Y-72753152D02*
X150977255Y-72753152D01*
X150977255Y-72753152D02*
X151072493Y-72800771D01*
X151072493Y-72800771D02*
X151120112Y-72896009D01*
X151120112Y-72896009D02*
X151120112Y-73419819D01*
X152024874Y-73419819D02*
X152024874Y-72896009D01*
X152024874Y-72896009D02*
X151977255Y-72800771D01*
X151977255Y-72800771D02*
X151882017Y-72753152D01*
X151882017Y-72753152D02*
X151691541Y-72753152D01*
X151691541Y-72753152D02*
X151596303Y-72800771D01*
X152024874Y-73372200D02*
X151929636Y-73419819D01*
X151929636Y-73419819D02*
X151691541Y-73419819D01*
X151691541Y-73419819D02*
X151596303Y-73372200D01*
X151596303Y-73372200D02*
X151548684Y-73276961D01*
X151548684Y-73276961D02*
X151548684Y-73181723D01*
X151548684Y-73181723D02*
X151596303Y-73086485D01*
X151596303Y-73086485D02*
X151691541Y-73038866D01*
X151691541Y-73038866D02*
X151929636Y-73038866D01*
X151929636Y-73038866D02*
X152024874Y-72991247D01*
X152501065Y-73419819D02*
X152501065Y-72419819D01*
X152501065Y-72800771D02*
X152596303Y-72753152D01*
X152596303Y-72753152D02*
X152786779Y-72753152D01*
X152786779Y-72753152D02*
X152882017Y-72800771D01*
X152882017Y-72800771D02*
X152929636Y-72848390D01*
X152929636Y-72848390D02*
X152977255Y-72943628D01*
X152977255Y-72943628D02*
X152977255Y-73229342D01*
X152977255Y-73229342D02*
X152929636Y-73324580D01*
X152929636Y-73324580D02*
X152882017Y-73372200D01*
X152882017Y-73372200D02*
X152786779Y-73419819D01*
X152786779Y-73419819D02*
X152596303Y-73419819D01*
X152596303Y-73419819D02*
X152501065Y-73372200D01*
X153548684Y-73419819D02*
X153453446Y-73372200D01*
X153453446Y-73372200D02*
X153405827Y-73276961D01*
X153405827Y-73276961D02*
X153405827Y-72419819D01*
X154310589Y-73372200D02*
X154215351Y-73419819D01*
X154215351Y-73419819D02*
X154024875Y-73419819D01*
X154024875Y-73419819D02*
X153929637Y-73372200D01*
X153929637Y-73372200D02*
X153882018Y-73276961D01*
X153882018Y-73276961D02*
X153882018Y-72896009D01*
X153882018Y-72896009D02*
X153929637Y-72800771D01*
X153929637Y-72800771D02*
X154024875Y-72753152D01*
X154024875Y-72753152D02*
X154215351Y-72753152D01*
X154215351Y-72753152D02*
X154310589Y-72800771D01*
X154310589Y-72800771D02*
X154358208Y-72896009D01*
X154358208Y-72896009D02*
X154358208Y-72991247D01*
X154358208Y-72991247D02*
X153882018Y-73086485D01*
X156072494Y-73419819D02*
X155501066Y-73419819D01*
X155786780Y-73419819D02*
X155786780Y-72419819D01*
X155786780Y-72419819D02*
X155691542Y-72562676D01*
X155691542Y-72562676D02*
X155596304Y-72657914D01*
X155596304Y-72657914D02*
X155501066Y-72705533D01*
X156501066Y-73324580D02*
X156548685Y-73372200D01*
X156548685Y-73372200D02*
X156501066Y-73419819D01*
X156501066Y-73419819D02*
X156453447Y-73372200D01*
X156453447Y-73372200D02*
X156501066Y-73324580D01*
X156501066Y-73324580D02*
X156501066Y-73419819D01*
X156929637Y-72515057D02*
X156977256Y-72467438D01*
X156977256Y-72467438D02*
X157072494Y-72419819D01*
X157072494Y-72419819D02*
X157310589Y-72419819D01*
X157310589Y-72419819D02*
X157405827Y-72467438D01*
X157405827Y-72467438D02*
X157453446Y-72515057D01*
X157453446Y-72515057D02*
X157501065Y-72610295D01*
X157501065Y-72610295D02*
X157501065Y-72705533D01*
X157501065Y-72705533D02*
X157453446Y-72848390D01*
X157453446Y-72848390D02*
X156882018Y-73419819D01*
X156882018Y-73419819D02*
X157501065Y-73419819D01*
X157786780Y-72419819D02*
X158120113Y-73419819D01*
X158120113Y-73419819D02*
X158453446Y-72419819D01*
X160120113Y-73419819D02*
X159786780Y-72943628D01*
X159548685Y-73419819D02*
X159548685Y-72419819D01*
X159548685Y-72419819D02*
X159929637Y-72419819D01*
X159929637Y-72419819D02*
X160024875Y-72467438D01*
X160024875Y-72467438D02*
X160072494Y-72515057D01*
X160072494Y-72515057D02*
X160120113Y-72610295D01*
X160120113Y-72610295D02*
X160120113Y-72753152D01*
X160120113Y-72753152D02*
X160072494Y-72848390D01*
X160072494Y-72848390D02*
X160024875Y-72896009D01*
X160024875Y-72896009D02*
X159929637Y-72943628D01*
X159929637Y-72943628D02*
X159548685Y-72943628D01*
X160929637Y-73372200D02*
X160834399Y-73419819D01*
X160834399Y-73419819D02*
X160643923Y-73419819D01*
X160643923Y-73419819D02*
X160548685Y-73372200D01*
X160548685Y-73372200D02*
X160501066Y-73276961D01*
X160501066Y-73276961D02*
X160501066Y-72896009D01*
X160501066Y-72896009D02*
X160548685Y-72800771D01*
X160548685Y-72800771D02*
X160643923Y-72753152D01*
X160643923Y-72753152D02*
X160834399Y-72753152D01*
X160834399Y-72753152D02*
X160929637Y-72800771D01*
X160929637Y-72800771D02*
X160977256Y-72896009D01*
X160977256Y-72896009D02*
X160977256Y-72991247D01*
X160977256Y-72991247D02*
X160501066Y-73086485D01*
X161834399Y-72753152D02*
X161834399Y-73562676D01*
X161834399Y-73562676D02*
X161786780Y-73657914D01*
X161786780Y-73657914D02*
X161739161Y-73705533D01*
X161739161Y-73705533D02*
X161643923Y-73753152D01*
X161643923Y-73753152D02*
X161501066Y-73753152D01*
X161501066Y-73753152D02*
X161405828Y-73705533D01*
X161834399Y-73372200D02*
X161739161Y-73419819D01*
X161739161Y-73419819D02*
X161548685Y-73419819D01*
X161548685Y-73419819D02*
X161453447Y-73372200D01*
X161453447Y-73372200D02*
X161405828Y-73324580D01*
X161405828Y-73324580D02*
X161358209Y-73229342D01*
X161358209Y-73229342D02*
X161358209Y-72943628D01*
X161358209Y-72943628D02*
X161405828Y-72848390D01*
X161405828Y-72848390D02*
X161453447Y-72800771D01*
X161453447Y-72800771D02*
X161548685Y-72753152D01*
X161548685Y-72753152D02*
X161739161Y-72753152D01*
X161739161Y-72753152D02*
X161834399Y-72800771D01*
X162739161Y-72753152D02*
X162739161Y-73419819D01*
X162310590Y-72753152D02*
X162310590Y-73276961D01*
X162310590Y-73276961D02*
X162358209Y-73372200D01*
X162358209Y-73372200D02*
X162453447Y-73419819D01*
X162453447Y-73419819D02*
X162596304Y-73419819D01*
X162596304Y-73419819D02*
X162691542Y-73372200D01*
X162691542Y-73372200D02*
X162739161Y-73324580D01*
X163358209Y-73419819D02*
X163262971Y-73372200D01*
X163262971Y-73372200D02*
X163215352Y-73276961D01*
X163215352Y-73276961D02*
X163215352Y-72419819D01*
X164167733Y-73419819D02*
X164167733Y-72896009D01*
X164167733Y-72896009D02*
X164120114Y-72800771D01*
X164120114Y-72800771D02*
X164024876Y-72753152D01*
X164024876Y-72753152D02*
X163834400Y-72753152D01*
X163834400Y-72753152D02*
X163739162Y-72800771D01*
X164167733Y-73372200D02*
X164072495Y-73419819D01*
X164072495Y-73419819D02*
X163834400Y-73419819D01*
X163834400Y-73419819D02*
X163739162Y-73372200D01*
X163739162Y-73372200D02*
X163691543Y-73276961D01*
X163691543Y-73276961D02*
X163691543Y-73181723D01*
X163691543Y-73181723D02*
X163739162Y-73086485D01*
X163739162Y-73086485D02*
X163834400Y-73038866D01*
X163834400Y-73038866D02*
X164072495Y-73038866D01*
X164072495Y-73038866D02*
X164167733Y-72991247D01*
X164501067Y-72753152D02*
X164882019Y-72753152D01*
X164643924Y-72419819D02*
X164643924Y-73276961D01*
X164643924Y-73276961D02*
X164691543Y-73372200D01*
X164691543Y-73372200D02*
X164786781Y-73419819D01*
X164786781Y-73419819D02*
X164882019Y-73419819D01*
X165358210Y-73419819D02*
X165262972Y-73372200D01*
X165262972Y-73372200D02*
X165215353Y-73324580D01*
X165215353Y-73324580D02*
X165167734Y-73229342D01*
X165167734Y-73229342D02*
X165167734Y-72943628D01*
X165167734Y-72943628D02*
X165215353Y-72848390D01*
X165215353Y-72848390D02*
X165262972Y-72800771D01*
X165262972Y-72800771D02*
X165358210Y-72753152D01*
X165358210Y-72753152D02*
X165501067Y-72753152D01*
X165501067Y-72753152D02*
X165596305Y-72800771D01*
X165596305Y-72800771D02*
X165643924Y-72848390D01*
X165643924Y-72848390D02*
X165691543Y-72943628D01*
X165691543Y-72943628D02*
X165691543Y-73229342D01*
X165691543Y-73229342D02*
X165643924Y-73324580D01*
X165643924Y-73324580D02*
X165596305Y-73372200D01*
X165596305Y-73372200D02*
X165501067Y-73419819D01*
X165501067Y-73419819D02*
X165358210Y-73419819D01*
X166120115Y-73419819D02*
X166120115Y-72753152D01*
X166120115Y-72943628D02*
X166167734Y-72848390D01*
X166167734Y-72848390D02*
X166215353Y-72800771D01*
X166215353Y-72800771D02*
X166310591Y-72753152D01*
X166310591Y-72753152D02*
X166405829Y-72753152D01*
D12*
X147278758Y-69460571D02*
X147207330Y-69532000D01*
X147207330Y-69532000D02*
X146993044Y-69603428D01*
X146993044Y-69603428D02*
X146850187Y-69603428D01*
X146850187Y-69603428D02*
X146635901Y-69532000D01*
X146635901Y-69532000D02*
X146493044Y-69389142D01*
X146493044Y-69389142D02*
X146421615Y-69246285D01*
X146421615Y-69246285D02*
X146350187Y-68960571D01*
X146350187Y-68960571D02*
X146350187Y-68746285D01*
X146350187Y-68746285D02*
X146421615Y-68460571D01*
X146421615Y-68460571D02*
X146493044Y-68317714D01*
X146493044Y-68317714D02*
X146635901Y-68174857D01*
X146635901Y-68174857D02*
X146850187Y-68103428D01*
X146850187Y-68103428D02*
X146993044Y-68103428D01*
X146993044Y-68103428D02*
X147207330Y-68174857D01*
X147207330Y-68174857D02*
X147278758Y-68246285D01*
X147921615Y-69603428D02*
X147921615Y-68103428D01*
X148564473Y-69603428D02*
X148564473Y-68817714D01*
X148564473Y-68817714D02*
X148493044Y-68674857D01*
X148493044Y-68674857D02*
X148350187Y-68603428D01*
X148350187Y-68603428D02*
X148135901Y-68603428D01*
X148135901Y-68603428D02*
X147993044Y-68674857D01*
X147993044Y-68674857D02*
X147921615Y-68746285D01*
X149278758Y-69603428D02*
X149278758Y-68603428D01*
X149278758Y-68103428D02*
X149207330Y-68174857D01*
X149207330Y-68174857D02*
X149278758Y-68246285D01*
X149278758Y-68246285D02*
X149350187Y-68174857D01*
X149350187Y-68174857D02*
X149278758Y-68103428D01*
X149278758Y-68103428D02*
X149278758Y-68246285D01*
X149993044Y-68603428D02*
X149993044Y-70103428D01*
X149993044Y-68674857D02*
X150135902Y-68603428D01*
X150135902Y-68603428D02*
X150421616Y-68603428D01*
X150421616Y-68603428D02*
X150564473Y-68674857D01*
X150564473Y-68674857D02*
X150635902Y-68746285D01*
X150635902Y-68746285D02*
X150707330Y-68889142D01*
X150707330Y-68889142D02*
X150707330Y-69317714D01*
X150707330Y-69317714D02*
X150635902Y-69460571D01*
X150635902Y-69460571D02*
X150564473Y-69532000D01*
X150564473Y-69532000D02*
X150421616Y-69603428D01*
X150421616Y-69603428D02*
X150135902Y-69603428D01*
X150135902Y-69603428D02*
X149993044Y-69532000D01*
X151207330Y-68103428D02*
X151564473Y-69603428D01*
X151564473Y-69603428D02*
X151850187Y-68532000D01*
X151850187Y-68532000D02*
X152135902Y-69603428D01*
X152135902Y-69603428D02*
X152493045Y-68103428D01*
X153064473Y-69603428D02*
X153064473Y-68103428D01*
X153707331Y-69603428D02*
X153707331Y-68817714D01*
X153707331Y-68817714D02*
X153635902Y-68674857D01*
X153635902Y-68674857D02*
X153493045Y-68603428D01*
X153493045Y-68603428D02*
X153278759Y-68603428D01*
X153278759Y-68603428D02*
X153135902Y-68674857D01*
X153135902Y-68674857D02*
X153064473Y-68746285D01*
X154421616Y-69603428D02*
X154421616Y-68603428D01*
X154421616Y-68103428D02*
X154350188Y-68174857D01*
X154350188Y-68174857D02*
X154421616Y-68246285D01*
X154421616Y-68246285D02*
X154493045Y-68174857D01*
X154493045Y-68174857D02*
X154421616Y-68103428D01*
X154421616Y-68103428D02*
X154421616Y-68246285D01*
X155064474Y-69532000D02*
X155207331Y-69603428D01*
X155207331Y-69603428D02*
X155493045Y-69603428D01*
X155493045Y-69603428D02*
X155635902Y-69532000D01*
X155635902Y-69532000D02*
X155707331Y-69389142D01*
X155707331Y-69389142D02*
X155707331Y-69317714D01*
X155707331Y-69317714D02*
X155635902Y-69174857D01*
X155635902Y-69174857D02*
X155493045Y-69103428D01*
X155493045Y-69103428D02*
X155278760Y-69103428D01*
X155278760Y-69103428D02*
X155135902Y-69032000D01*
X155135902Y-69032000D02*
X155064474Y-68889142D01*
X155064474Y-68889142D02*
X155064474Y-68817714D01*
X155064474Y-68817714D02*
X155135902Y-68674857D01*
X155135902Y-68674857D02*
X155278760Y-68603428D01*
X155278760Y-68603428D02*
X155493045Y-68603428D01*
X155493045Y-68603428D02*
X155635902Y-68674857D01*
X156350188Y-68603428D02*
X156350188Y-70103428D01*
X156350188Y-68674857D02*
X156493046Y-68603428D01*
X156493046Y-68603428D02*
X156778760Y-68603428D01*
X156778760Y-68603428D02*
X156921617Y-68674857D01*
X156921617Y-68674857D02*
X156993046Y-68746285D01*
X156993046Y-68746285D02*
X157064474Y-68889142D01*
X157064474Y-68889142D02*
X157064474Y-69317714D01*
X157064474Y-69317714D02*
X156993046Y-69460571D01*
X156993046Y-69460571D02*
X156921617Y-69532000D01*
X156921617Y-69532000D02*
X156778760Y-69603428D01*
X156778760Y-69603428D02*
X156493046Y-69603428D01*
X156493046Y-69603428D02*
X156350188Y-69532000D01*
X158278760Y-69532000D02*
X158135903Y-69603428D01*
X158135903Y-69603428D02*
X157850189Y-69603428D01*
X157850189Y-69603428D02*
X157707331Y-69532000D01*
X157707331Y-69532000D02*
X157635903Y-69389142D01*
X157635903Y-69389142D02*
X157635903Y-68817714D01*
X157635903Y-68817714D02*
X157707331Y-68674857D01*
X157707331Y-68674857D02*
X157850189Y-68603428D01*
X157850189Y-68603428D02*
X158135903Y-68603428D01*
X158135903Y-68603428D02*
X158278760Y-68674857D01*
X158278760Y-68674857D02*
X158350189Y-68817714D01*
X158350189Y-68817714D02*
X158350189Y-68960571D01*
X158350189Y-68960571D02*
X157635903Y-69103428D01*
X158993045Y-69603428D02*
X158993045Y-68603428D01*
X158993045Y-68889142D02*
X159064474Y-68746285D01*
X159064474Y-68746285D02*
X159135903Y-68674857D01*
X159135903Y-68674857D02*
X159278760Y-68603428D01*
X159278760Y-68603428D02*
X159421617Y-68603428D01*
X160493045Y-69532000D02*
X160350188Y-69603428D01*
X160350188Y-69603428D02*
X160064474Y-69603428D01*
X160064474Y-69603428D02*
X159921616Y-69532000D01*
X159921616Y-69532000D02*
X159850188Y-69389142D01*
X159850188Y-69389142D02*
X159850188Y-68817714D01*
X159850188Y-68817714D02*
X159921616Y-68674857D01*
X159921616Y-68674857D02*
X160064474Y-68603428D01*
X160064474Y-68603428D02*
X160350188Y-68603428D01*
X160350188Y-68603428D02*
X160493045Y-68674857D01*
X160493045Y-68674857D02*
X160564474Y-68817714D01*
X160564474Y-68817714D02*
X160564474Y-68960571D01*
X160564474Y-68960571D02*
X159850188Y-69103428D01*
X161207330Y-69603428D02*
X161207330Y-68603428D01*
X161207330Y-68889142D02*
X161278759Y-68746285D01*
X161278759Y-68746285D02*
X161350188Y-68674857D01*
X161350188Y-68674857D02*
X161493045Y-68603428D01*
X161493045Y-68603428D02*
X161635902Y-68603428D01*
X164135901Y-69460571D02*
X164064473Y-69532000D01*
X164064473Y-69532000D02*
X163850187Y-69603428D01*
X163850187Y-69603428D02*
X163707330Y-69603428D01*
X163707330Y-69603428D02*
X163493044Y-69532000D01*
X163493044Y-69532000D02*
X163350187Y-69389142D01*
X163350187Y-69389142D02*
X163278758Y-69246285D01*
X163278758Y-69246285D02*
X163207330Y-68960571D01*
X163207330Y-68960571D02*
X163207330Y-68746285D01*
X163207330Y-68746285D02*
X163278758Y-68460571D01*
X163278758Y-68460571D02*
X163350187Y-68317714D01*
X163350187Y-68317714D02*
X163493044Y-68174857D01*
X163493044Y-68174857D02*
X163707330Y-68103428D01*
X163707330Y-68103428D02*
X163850187Y-68103428D01*
X163850187Y-68103428D02*
X164064473Y-68174857D01*
X164064473Y-68174857D02*
X164135901Y-68246285D01*
X164635901Y-68103428D02*
X164993044Y-69603428D01*
X164993044Y-69603428D02*
X165278758Y-68532000D01*
X165278758Y-68532000D02*
X165564473Y-69603428D01*
X165564473Y-69603428D02*
X165921616Y-68103428D01*
X166350187Y-68103428D02*
X167278759Y-68103428D01*
X167278759Y-68103428D02*
X166778759Y-68674857D01*
X166778759Y-68674857D02*
X166993044Y-68674857D01*
X166993044Y-68674857D02*
X167135902Y-68746285D01*
X167135902Y-68746285D02*
X167207330Y-68817714D01*
X167207330Y-68817714D02*
X167278759Y-68960571D01*
X167278759Y-68960571D02*
X167278759Y-69317714D01*
X167278759Y-69317714D02*
X167207330Y-69460571D01*
X167207330Y-69460571D02*
X167135902Y-69532000D01*
X167135902Y-69532000D02*
X166993044Y-69603428D01*
X166993044Y-69603428D02*
X166564473Y-69603428D01*
X166564473Y-69603428D02*
X166421616Y-69532000D01*
X166421616Y-69532000D02*
X166350187Y-69460571D01*
X168707330Y-69603428D02*
X167850187Y-69603428D01*
X168278758Y-69603428D02*
X168278758Y-68103428D01*
X168278758Y-68103428D02*
X168135901Y-68317714D01*
X168135901Y-68317714D02*
X167993044Y-68460571D01*
X167993044Y-68460571D02*
X167850187Y-68532000D01*
X169278758Y-68246285D02*
X169350186Y-68174857D01*
X169350186Y-68174857D02*
X169493044Y-68103428D01*
X169493044Y-68103428D02*
X169850186Y-68103428D01*
X169850186Y-68103428D02*
X169993044Y-68174857D01*
X169993044Y-68174857D02*
X170064472Y-68246285D01*
X170064472Y-68246285D02*
X170135901Y-68389142D01*
X170135901Y-68389142D02*
X170135901Y-68532000D01*
X170135901Y-68532000D02*
X170064472Y-68746285D01*
X170064472Y-68746285D02*
X169207329Y-69603428D01*
X169207329Y-69603428D02*
X170135901Y-69603428D01*
X145650187Y-67482000D02*
X145864473Y-67553428D01*
X145864473Y-67553428D02*
X146221615Y-67553428D01*
X146221615Y-67553428D02*
X146364473Y-67482000D01*
X146364473Y-67482000D02*
X146435901Y-67410571D01*
X146435901Y-67410571D02*
X146507330Y-67267714D01*
X146507330Y-67267714D02*
X146507330Y-67124857D01*
X146507330Y-67124857D02*
X146435901Y-66982000D01*
X146435901Y-66982000D02*
X146364473Y-66910571D01*
X146364473Y-66910571D02*
X146221615Y-66839142D01*
X146221615Y-66839142D02*
X145935901Y-66767714D01*
X145935901Y-66767714D02*
X145793044Y-66696285D01*
X145793044Y-66696285D02*
X145721615Y-66624857D01*
X145721615Y-66624857D02*
X145650187Y-66482000D01*
X145650187Y-66482000D02*
X145650187Y-66339142D01*
X145650187Y-66339142D02*
X145721615Y-66196285D01*
X145721615Y-66196285D02*
X145793044Y-66124857D01*
X145793044Y-66124857D02*
X145935901Y-66053428D01*
X145935901Y-66053428D02*
X146293044Y-66053428D01*
X146293044Y-66053428D02*
X146507330Y-66124857D01*
X147078758Y-67124857D02*
X147793044Y-67124857D01*
X146935901Y-67553428D02*
X147435901Y-66053428D01*
X147435901Y-66053428D02*
X147935901Y-67553428D01*
X148435900Y-67553428D02*
X148435900Y-66053428D01*
X148435900Y-66053428D02*
X148935900Y-67124857D01*
X148935900Y-67124857D02*
X149435900Y-66053428D01*
X149435900Y-66053428D02*
X149435900Y-67553428D01*
X150793044Y-66553428D02*
X150793044Y-67553428D01*
X150435901Y-65982000D02*
X150078758Y-67053428D01*
X150078758Y-67053428D02*
X151007329Y-67053428D01*
X152435900Y-67410571D02*
X152364472Y-67482000D01*
X152364472Y-67482000D02*
X152150186Y-67553428D01*
X152150186Y-67553428D02*
X152007329Y-67553428D01*
X152007329Y-67553428D02*
X151793043Y-67482000D01*
X151793043Y-67482000D02*
X151650186Y-67339142D01*
X151650186Y-67339142D02*
X151578757Y-67196285D01*
X151578757Y-67196285D02*
X151507329Y-66910571D01*
X151507329Y-66910571D02*
X151507329Y-66696285D01*
X151507329Y-66696285D02*
X151578757Y-66410571D01*
X151578757Y-66410571D02*
X151650186Y-66267714D01*
X151650186Y-66267714D02*
X151793043Y-66124857D01*
X151793043Y-66124857D02*
X152007329Y-66053428D01*
X152007329Y-66053428D02*
X152150186Y-66053428D01*
X152150186Y-66053428D02*
X152364472Y-66124857D01*
X152364472Y-66124857D02*
X152435900Y-66196285D01*
X152935900Y-66053428D02*
X153864472Y-66053428D01*
X153864472Y-66053428D02*
X153364472Y-66624857D01*
X153364472Y-66624857D02*
X153578757Y-66624857D01*
X153578757Y-66624857D02*
X153721615Y-66696285D01*
X153721615Y-66696285D02*
X153793043Y-66767714D01*
X153793043Y-66767714D02*
X153864472Y-66910571D01*
X153864472Y-66910571D02*
X153864472Y-67267714D01*
X153864472Y-67267714D02*
X153793043Y-67410571D01*
X153793043Y-67410571D02*
X153721615Y-67482000D01*
X153721615Y-67482000D02*
X153578757Y-67553428D01*
X153578757Y-67553428D02*
X153150186Y-67553428D01*
X153150186Y-67553428D02*
X153007329Y-67482000D01*
X153007329Y-67482000D02*
X152935900Y-67410571D01*
X154435900Y-66196285D02*
X154507328Y-66124857D01*
X154507328Y-66124857D02*
X154650186Y-66053428D01*
X154650186Y-66053428D02*
X155007328Y-66053428D01*
X155007328Y-66053428D02*
X155150186Y-66124857D01*
X155150186Y-66124857D02*
X155221614Y-66196285D01*
X155221614Y-66196285D02*
X155293043Y-66339142D01*
X155293043Y-66339142D02*
X155293043Y-66482000D01*
X155293043Y-66482000D02*
X155221614Y-66696285D01*
X155221614Y-66696285D02*
X154364471Y-67553428D01*
X154364471Y-67553428D02*
X155293043Y-67553428D01*
X156793042Y-67410571D02*
X156721614Y-67482000D01*
X156721614Y-67482000D02*
X156507328Y-67553428D01*
X156507328Y-67553428D02*
X156364471Y-67553428D01*
X156364471Y-67553428D02*
X156150185Y-67482000D01*
X156150185Y-67482000D02*
X156007328Y-67339142D01*
X156007328Y-67339142D02*
X155935899Y-67196285D01*
X155935899Y-67196285D02*
X155864471Y-66910571D01*
X155864471Y-66910571D02*
X155864471Y-66696285D01*
X155864471Y-66696285D02*
X155935899Y-66410571D01*
X155935899Y-66410571D02*
X156007328Y-66267714D01*
X156007328Y-66267714D02*
X156150185Y-66124857D01*
X156150185Y-66124857D02*
X156364471Y-66053428D01*
X156364471Y-66053428D02*
X156507328Y-66053428D01*
X156507328Y-66053428D02*
X156721614Y-66124857D01*
X156721614Y-66124857D02*
X156793042Y-66196285D01*
X158578756Y-67553428D02*
X158578756Y-66553428D01*
X158578756Y-66053428D02*
X158507328Y-66124857D01*
X158507328Y-66124857D02*
X158578756Y-66196285D01*
X158578756Y-66196285D02*
X158650185Y-66124857D01*
X158650185Y-66124857D02*
X158578756Y-66053428D01*
X158578756Y-66053428D02*
X158578756Y-66196285D01*
X159293042Y-66553428D02*
X159293042Y-67553428D01*
X159293042Y-66696285D02*
X159364471Y-66624857D01*
X159364471Y-66624857D02*
X159507328Y-66553428D01*
X159507328Y-66553428D02*
X159721614Y-66553428D01*
X159721614Y-66553428D02*
X159864471Y-66624857D01*
X159864471Y-66624857D02*
X159935900Y-66767714D01*
X159935900Y-66767714D02*
X159935900Y-67553428D01*
X161578757Y-66053428D02*
X162435900Y-66053428D01*
X162007328Y-67553428D02*
X162007328Y-66053428D01*
X163935899Y-67696285D02*
X163793042Y-67624857D01*
X163793042Y-67624857D02*
X163650185Y-67482000D01*
X163650185Y-67482000D02*
X163435899Y-67267714D01*
X163435899Y-67267714D02*
X163293042Y-67196285D01*
X163293042Y-67196285D02*
X163150185Y-67196285D01*
X163221614Y-67553428D02*
X163078757Y-67482000D01*
X163078757Y-67482000D02*
X162935899Y-67339142D01*
X162935899Y-67339142D02*
X162864471Y-67053428D01*
X162864471Y-67053428D02*
X162864471Y-66553428D01*
X162864471Y-66553428D02*
X162935899Y-66267714D01*
X162935899Y-66267714D02*
X163078757Y-66124857D01*
X163078757Y-66124857D02*
X163221614Y-66053428D01*
X163221614Y-66053428D02*
X163507328Y-66053428D01*
X163507328Y-66053428D02*
X163650185Y-66124857D01*
X163650185Y-66124857D02*
X163793042Y-66267714D01*
X163793042Y-66267714D02*
X163864471Y-66553428D01*
X163864471Y-66553428D02*
X163864471Y-67053428D01*
X163864471Y-67053428D02*
X163793042Y-67339142D01*
X163793042Y-67339142D02*
X163650185Y-67482000D01*
X163650185Y-67482000D02*
X163507328Y-67553428D01*
X163507328Y-67553428D02*
X163221614Y-67553428D01*
X165007328Y-66767714D02*
X164507328Y-66767714D01*
X164507328Y-67553428D02*
X164507328Y-66053428D01*
X164507328Y-66053428D02*
X165221614Y-66053428D01*
X165793042Y-67553428D02*
X165793042Y-66053428D01*
X165793042Y-66053428D02*
X166364471Y-66053428D01*
X166364471Y-66053428D02*
X166507328Y-66124857D01*
X166507328Y-66124857D02*
X166578757Y-66196285D01*
X166578757Y-66196285D02*
X166650185Y-66339142D01*
X166650185Y-66339142D02*
X166650185Y-66553428D01*
X166650185Y-66553428D02*
X166578757Y-66696285D01*
X166578757Y-66696285D02*
X166507328Y-66767714D01*
X166507328Y-66767714D02*
X166364471Y-66839142D01*
X166364471Y-66839142D02*
X165793042Y-66839142D01*
X167293042Y-66982000D02*
X168435900Y-66982000D01*
X169935900Y-67553428D02*
X169078757Y-67553428D01*
X169507328Y-67553428D02*
X169507328Y-66053428D01*
X169507328Y-66053428D02*
X169364471Y-66267714D01*
X169364471Y-66267714D02*
X169221614Y-66410571D01*
X169221614Y-66410571D02*
X169078757Y-66482000D01*
X170864471Y-66053428D02*
X171007328Y-66053428D01*
X171007328Y-66053428D02*
X171150185Y-66124857D01*
X171150185Y-66124857D02*
X171221614Y-66196285D01*
X171221614Y-66196285D02*
X171293042Y-66339142D01*
X171293042Y-66339142D02*
X171364471Y-66624857D01*
X171364471Y-66624857D02*
X171364471Y-66982000D01*
X171364471Y-66982000D02*
X171293042Y-67267714D01*
X171293042Y-67267714D02*
X171221614Y-67410571D01*
X171221614Y-67410571D02*
X171150185Y-67482000D01*
X171150185Y-67482000D02*
X171007328Y-67553428D01*
X171007328Y-67553428D02*
X170864471Y-67553428D01*
X170864471Y-67553428D02*
X170721614Y-67482000D01*
X170721614Y-67482000D02*
X170650185Y-67410571D01*
X170650185Y-67410571D02*
X170578756Y-67267714D01*
X170578756Y-67267714D02*
X170507328Y-66982000D01*
X170507328Y-66982000D02*
X170507328Y-66624857D01*
X170507328Y-66624857D02*
X170578756Y-66339142D01*
X170578756Y-66339142D02*
X170650185Y-66196285D01*
X170650185Y-66196285D02*
X170721614Y-66124857D01*
X170721614Y-66124857D02*
X170864471Y-66053428D01*
X172293042Y-66053428D02*
X172435899Y-66053428D01*
X172435899Y-66053428D02*
X172578756Y-66124857D01*
X172578756Y-66124857D02*
X172650185Y-66196285D01*
X172650185Y-66196285D02*
X172721613Y-66339142D01*
X172721613Y-66339142D02*
X172793042Y-66624857D01*
X172793042Y-66624857D02*
X172793042Y-66982000D01*
X172793042Y-66982000D02*
X172721613Y-67267714D01*
X172721613Y-67267714D02*
X172650185Y-67410571D01*
X172650185Y-67410571D02*
X172578756Y-67482000D01*
X172578756Y-67482000D02*
X172435899Y-67553428D01*
X172435899Y-67553428D02*
X172293042Y-67553428D01*
X172293042Y-67553428D02*
X172150185Y-67482000D01*
X172150185Y-67482000D02*
X172078756Y-67410571D01*
X172078756Y-67410571D02*
X172007327Y-67267714D01*
X172007327Y-67267714D02*
X171935899Y-66982000D01*
X171935899Y-66982000D02*
X171935899Y-66624857D01*
X171935899Y-66624857D02*
X172007327Y-66339142D01*
X172007327Y-66339142D02*
X172078756Y-66196285D01*
X172078756Y-66196285D02*
X172150185Y-66124857D01*
X172150185Y-66124857D02*
X172293042Y-66053428D01*
D10*
X168969673Y-93767219D02*
X168969673Y-92767219D01*
X168969673Y-92767219D02*
X169350625Y-92767219D01*
X169350625Y-92767219D02*
X169445863Y-92814838D01*
X169445863Y-92814838D02*
X169493482Y-92862457D01*
X169493482Y-92862457D02*
X169541101Y-92957695D01*
X169541101Y-92957695D02*
X169541101Y-93100552D01*
X169541101Y-93100552D02*
X169493482Y-93195790D01*
X169493482Y-93195790D02*
X169445863Y-93243409D01*
X169445863Y-93243409D02*
X169350625Y-93291028D01*
X169350625Y-93291028D02*
X168969673Y-93291028D01*
X170445863Y-93767219D02*
X169969673Y-93767219D01*
X169969673Y-93767219D02*
X169969673Y-92767219D01*
X171255387Y-93767219D02*
X170779197Y-93767219D01*
X170779197Y-93767219D02*
X170779197Y-92767219D01*
X172683959Y-93243409D02*
X172350626Y-93243409D01*
X172350626Y-93767219D02*
X172350626Y-92767219D01*
X172350626Y-92767219D02*
X172826816Y-92767219D01*
X173207769Y-93767219D02*
X173207769Y-92767219D01*
X174160149Y-93767219D02*
X173683959Y-93767219D01*
X173683959Y-93767219D02*
X173683959Y-92767219D01*
X174350626Y-92767219D02*
X174922054Y-92767219D01*
X174636340Y-93767219D02*
X174636340Y-92767219D01*
X175255388Y-93243409D02*
X175588721Y-93243409D01*
X175731578Y-93767219D02*
X175255388Y-93767219D01*
X175255388Y-93767219D02*
X175255388Y-92767219D01*
X175255388Y-92767219D02*
X175731578Y-92767219D01*
X176731578Y-93767219D02*
X176398245Y-93291028D01*
X176160150Y-93767219D02*
X176160150Y-92767219D01*
X176160150Y-92767219D02*
X176541102Y-92767219D01*
X176541102Y-92767219D02*
X176636340Y-92814838D01*
X176636340Y-92814838D02*
X176683959Y-92862457D01*
X176683959Y-92862457D02*
X176731578Y-92957695D01*
X176731578Y-92957695D02*
X176731578Y-93100552D01*
X176731578Y-93100552D02*
X176683959Y-93195790D01*
X176683959Y-93195790D02*
X176636340Y-93243409D01*
X176636340Y-93243409D02*
X176541102Y-93291028D01*
X176541102Y-93291028D02*
X176160150Y-93291028D01*
X174450000Y-94200000D02*
X170400000Y-94200000D01*
X174450000Y-104700000D02*
X174450000Y-94200000D01*
X170400000Y-104700000D02*
X174450000Y-104700000D01*
X170400000Y-94200000D02*
X170400000Y-104700000D01*
X147850000Y-96400000D02*
X142400000Y-96400000D01*
X147850000Y-92950000D02*
X147850000Y-96400000D01*
X142400000Y-92950000D02*
X147850000Y-92950000D01*
X142400000Y-96400000D02*
X142400000Y-92950000D01*
D12*
X142854949Y-96017000D02*
X142997806Y-96064619D01*
X142997806Y-96064619D02*
X143235901Y-96064619D01*
X143235901Y-96064619D02*
X143331139Y-96017000D01*
X143331139Y-96017000D02*
X143378758Y-95969380D01*
X143378758Y-95969380D02*
X143426377Y-95874142D01*
X143426377Y-95874142D02*
X143426377Y-95778904D01*
X143426377Y-95778904D02*
X143378758Y-95683666D01*
X143378758Y-95683666D02*
X143331139Y-95636047D01*
X143331139Y-95636047D02*
X143235901Y-95588428D01*
X143235901Y-95588428D02*
X143045425Y-95540809D01*
X143045425Y-95540809D02*
X142950187Y-95493190D01*
X142950187Y-95493190D02*
X142902568Y-95445571D01*
X142902568Y-95445571D02*
X142854949Y-95350333D01*
X142854949Y-95350333D02*
X142854949Y-95255095D01*
X142854949Y-95255095D02*
X142902568Y-95159857D01*
X142902568Y-95159857D02*
X142950187Y-95112238D01*
X142950187Y-95112238D02*
X143045425Y-95064619D01*
X143045425Y-95064619D02*
X143283520Y-95064619D01*
X143283520Y-95064619D02*
X143426377Y-95112238D01*
X143854949Y-96064619D02*
X143854949Y-95064619D01*
X143854949Y-95540809D02*
X144426377Y-95540809D01*
X144426377Y-96064619D02*
X144426377Y-95064619D01*
X144902568Y-95064619D02*
X144902568Y-95874142D01*
X144902568Y-95874142D02*
X144950187Y-95969380D01*
X144950187Y-95969380D02*
X144997806Y-96017000D01*
X144997806Y-96017000D02*
X145093044Y-96064619D01*
X145093044Y-96064619D02*
X145283520Y-96064619D01*
X145283520Y-96064619D02*
X145378758Y-96017000D01*
X145378758Y-96017000D02*
X145426377Y-95969380D01*
X145426377Y-95969380D02*
X145473996Y-95874142D01*
X145473996Y-95874142D02*
X145473996Y-95064619D01*
X145950187Y-96064619D02*
X145950187Y-95064619D01*
X145950187Y-95064619D02*
X146521615Y-96064619D01*
X146521615Y-96064619D02*
X146521615Y-95064619D01*
X146854949Y-95064619D02*
X147426377Y-95064619D01*
X147140663Y-96064619D02*
X147140663Y-95064619D01*
D11*
X171433333Y-95554819D02*
X171100000Y-95078628D01*
X170861905Y-95554819D02*
X170861905Y-94554819D01*
X170861905Y-94554819D02*
X171242857Y-94554819D01*
X171242857Y-94554819D02*
X171338095Y-94602438D01*
X171338095Y-94602438D02*
X171385714Y-94650057D01*
X171385714Y-94650057D02*
X171433333Y-94745295D01*
X171433333Y-94745295D02*
X171433333Y-94888152D01*
X171433333Y-94888152D02*
X171385714Y-94983390D01*
X171385714Y-94983390D02*
X171338095Y-95031009D01*
X171338095Y-95031009D02*
X171242857Y-95078628D01*
X171242857Y-95078628D02*
X170861905Y-95078628D01*
X171766667Y-94554819D02*
X172433333Y-94554819D01*
X172433333Y-94554819D02*
X172004762Y-95554819D01*
X171454514Y-116887685D02*
X171502134Y-116935304D01*
X171502134Y-116935304D02*
X171549753Y-117078161D01*
X171549753Y-117078161D02*
X171549753Y-117173399D01*
X171549753Y-117173399D02*
X171502134Y-117316256D01*
X171502134Y-117316256D02*
X171406895Y-117411494D01*
X171406895Y-117411494D02*
X171311657Y-117459113D01*
X171311657Y-117459113D02*
X171121181Y-117506732D01*
X171121181Y-117506732D02*
X170978324Y-117506732D01*
X170978324Y-117506732D02*
X170787848Y-117459113D01*
X170787848Y-117459113D02*
X170692610Y-117411494D01*
X170692610Y-117411494D02*
X170597372Y-117316256D01*
X170597372Y-117316256D02*
X170549753Y-117173399D01*
X170549753Y-117173399D02*
X170549753Y-117078161D01*
X170549753Y-117078161D02*
X170597372Y-116935304D01*
X170597372Y-116935304D02*
X170644991Y-116887685D01*
X171549753Y-115982923D02*
X171549753Y-116459113D01*
X171549753Y-116459113D02*
X170549753Y-116459113D01*
X171549753Y-115649589D02*
X170549753Y-115649589D01*
X171549753Y-115078161D02*
X170978324Y-115506732D01*
X170549753Y-115078161D02*
X171121181Y-115649589D01*
X171644991Y-114887685D02*
X171644991Y-114125780D01*
X171025943Y-113554351D02*
X171025943Y-113887684D01*
X171549753Y-113887684D02*
X170549753Y-113887684D01*
X170549753Y-113887684D02*
X170549753Y-113411494D01*
X171549753Y-112459113D02*
X171073562Y-112792446D01*
X171549753Y-113030541D02*
X170549753Y-113030541D01*
X170549753Y-113030541D02*
X170549753Y-112649589D01*
X170549753Y-112649589D02*
X170597372Y-112554351D01*
X170597372Y-112554351D02*
X170644991Y-112506732D01*
X170644991Y-112506732D02*
X170740229Y-112459113D01*
X170740229Y-112459113D02*
X170883086Y-112459113D01*
X170883086Y-112459113D02*
X170978324Y-112506732D01*
X170978324Y-112506732D02*
X171025943Y-112554351D01*
X171025943Y-112554351D02*
X171073562Y-112649589D01*
X171073562Y-112649589D02*
X171073562Y-113030541D01*
X170549753Y-111840065D02*
X170549753Y-111649589D01*
X170549753Y-111649589D02*
X170597372Y-111554351D01*
X170597372Y-111554351D02*
X170692610Y-111459113D01*
X170692610Y-111459113D02*
X170883086Y-111411494D01*
X170883086Y-111411494D02*
X171216419Y-111411494D01*
X171216419Y-111411494D02*
X171406895Y-111459113D01*
X171406895Y-111459113D02*
X171502134Y-111554351D01*
X171502134Y-111554351D02*
X171549753Y-111649589D01*
X171549753Y-111649589D02*
X171549753Y-111840065D01*
X171549753Y-111840065D02*
X171502134Y-111935303D01*
X171502134Y-111935303D02*
X171406895Y-112030541D01*
X171406895Y-112030541D02*
X171216419Y-112078160D01*
X171216419Y-112078160D02*
X170883086Y-112078160D01*
X170883086Y-112078160D02*
X170692610Y-112030541D01*
X170692610Y-112030541D02*
X170597372Y-111935303D01*
X170597372Y-111935303D02*
X170549753Y-111840065D01*
X171549753Y-110982922D02*
X170549753Y-110982922D01*
X170549753Y-110982922D02*
X171264038Y-110649589D01*
X171264038Y-110649589D02*
X170549753Y-110316256D01*
X170549753Y-110316256D02*
X171549753Y-110316256D01*
X171644991Y-110078161D02*
X171644991Y-109316256D01*
X171502134Y-109125779D02*
X171549753Y-108982922D01*
X171549753Y-108982922D02*
X171549753Y-108744827D01*
X171549753Y-108744827D02*
X171502134Y-108649589D01*
X171502134Y-108649589D02*
X171454514Y-108601970D01*
X171454514Y-108601970D02*
X171359276Y-108554351D01*
X171359276Y-108554351D02*
X171264038Y-108554351D01*
X171264038Y-108554351D02*
X171168800Y-108601970D01*
X171168800Y-108601970D02*
X171121181Y-108649589D01*
X171121181Y-108649589D02*
X171073562Y-108744827D01*
X171073562Y-108744827D02*
X171025943Y-108935303D01*
X171025943Y-108935303D02*
X170978324Y-109030541D01*
X170978324Y-109030541D02*
X170930705Y-109078160D01*
X170930705Y-109078160D02*
X170835467Y-109125779D01*
X170835467Y-109125779D02*
X170740229Y-109125779D01*
X170740229Y-109125779D02*
X170644991Y-109078160D01*
X170644991Y-109078160D02*
X170597372Y-109030541D01*
X170597372Y-109030541D02*
X170549753Y-108935303D01*
X170549753Y-108935303D02*
X170549753Y-108697208D01*
X170549753Y-108697208D02*
X170597372Y-108554351D01*
X171264038Y-108173398D02*
X171264038Y-107697208D01*
X171549753Y-108268636D02*
X170549753Y-107935303D01*
X170549753Y-107935303D02*
X171549753Y-107601970D01*
X171549753Y-107268636D02*
X170549753Y-107268636D01*
X170549753Y-107268636D02*
X171264038Y-106935303D01*
X171264038Y-106935303D02*
X170549753Y-106601970D01*
X170549753Y-106601970D02*
X171549753Y-106601970D01*
X166433086Y-117451970D02*
X167099753Y-117451970D01*
X166528324Y-117451970D02*
X166480705Y-117404351D01*
X166480705Y-117404351D02*
X166433086Y-117309113D01*
X166433086Y-117309113D02*
X166433086Y-117166256D01*
X166433086Y-117166256D02*
X166480705Y-117071018D01*
X166480705Y-117071018D02*
X166575943Y-117023399D01*
X166575943Y-117023399D02*
X167099753Y-117023399D01*
X167099753Y-115975780D02*
X166623562Y-116309113D01*
X167099753Y-116547208D02*
X166099753Y-116547208D01*
X166099753Y-116547208D02*
X166099753Y-116166256D01*
X166099753Y-116166256D02*
X166147372Y-116071018D01*
X166147372Y-116071018D02*
X166194991Y-116023399D01*
X166194991Y-116023399D02*
X166290229Y-115975780D01*
X166290229Y-115975780D02*
X166433086Y-115975780D01*
X166433086Y-115975780D02*
X166528324Y-116023399D01*
X166528324Y-116023399D02*
X166575943Y-116071018D01*
X166575943Y-116071018D02*
X166623562Y-116166256D01*
X166623562Y-116166256D02*
X166623562Y-116547208D01*
X167052134Y-115594827D02*
X167099753Y-115451970D01*
X167099753Y-115451970D02*
X167099753Y-115213875D01*
X167099753Y-115213875D02*
X167052134Y-115118637D01*
X167052134Y-115118637D02*
X167004514Y-115071018D01*
X167004514Y-115071018D02*
X166909276Y-115023399D01*
X166909276Y-115023399D02*
X166814038Y-115023399D01*
X166814038Y-115023399D02*
X166718800Y-115071018D01*
X166718800Y-115071018D02*
X166671181Y-115118637D01*
X166671181Y-115118637D02*
X166623562Y-115213875D01*
X166623562Y-115213875D02*
X166575943Y-115404351D01*
X166575943Y-115404351D02*
X166528324Y-115499589D01*
X166528324Y-115499589D02*
X166480705Y-115547208D01*
X166480705Y-115547208D02*
X166385467Y-115594827D01*
X166385467Y-115594827D02*
X166290229Y-115594827D01*
X166290229Y-115594827D02*
X166194991Y-115547208D01*
X166194991Y-115547208D02*
X166147372Y-115499589D01*
X166147372Y-115499589D02*
X166099753Y-115404351D01*
X166099753Y-115404351D02*
X166099753Y-115166256D01*
X166099753Y-115166256D02*
X166147372Y-115023399D01*
X166099753Y-114737684D02*
X166099753Y-114166256D01*
X167099753Y-114451970D02*
X166099753Y-114451970D01*
X173083333Y-99059580D02*
X173035714Y-99107200D01*
X173035714Y-99107200D02*
X172892857Y-99154819D01*
X172892857Y-99154819D02*
X172797619Y-99154819D01*
X172797619Y-99154819D02*
X172654762Y-99107200D01*
X172654762Y-99107200D02*
X172559524Y-99011961D01*
X172559524Y-99011961D02*
X172511905Y-98916723D01*
X172511905Y-98916723D02*
X172464286Y-98726247D01*
X172464286Y-98726247D02*
X172464286Y-98583390D01*
X172464286Y-98583390D02*
X172511905Y-98392914D01*
X172511905Y-98392914D02*
X172559524Y-98297676D01*
X172559524Y-98297676D02*
X172654762Y-98202438D01*
X172654762Y-98202438D02*
X172797619Y-98154819D01*
X172797619Y-98154819D02*
X172892857Y-98154819D01*
X172892857Y-98154819D02*
X173035714Y-98202438D01*
X173035714Y-98202438D02*
X173083333Y-98250057D01*
X173988095Y-98154819D02*
X173511905Y-98154819D01*
X173511905Y-98154819D02*
X173464286Y-98631009D01*
X173464286Y-98631009D02*
X173511905Y-98583390D01*
X173511905Y-98583390D02*
X173607143Y-98535771D01*
X173607143Y-98535771D02*
X173845238Y-98535771D01*
X173845238Y-98535771D02*
X173940476Y-98583390D01*
X173940476Y-98583390D02*
X173988095Y-98631009D01*
X173988095Y-98631009D02*
X174035714Y-98726247D01*
X174035714Y-98726247D02*
X174035714Y-98964342D01*
X174035714Y-98964342D02*
X173988095Y-99059580D01*
X173988095Y-99059580D02*
X173940476Y-99107200D01*
X173940476Y-99107200D02*
X173845238Y-99154819D01*
X173845238Y-99154819D02*
X173607143Y-99154819D01*
X173607143Y-99154819D02*
X173511905Y-99107200D01*
X173511905Y-99107200D02*
X173464286Y-99059580D01*
X159528267Y-108054819D02*
X159194934Y-107578628D01*
X158956839Y-108054819D02*
X158956839Y-107054819D01*
X158956839Y-107054819D02*
X159337791Y-107054819D01*
X159337791Y-107054819D02*
X159433029Y-107102438D01*
X159433029Y-107102438D02*
X159480648Y-107150057D01*
X159480648Y-107150057D02*
X159528267Y-107245295D01*
X159528267Y-107245295D02*
X159528267Y-107388152D01*
X159528267Y-107388152D02*
X159480648Y-107483390D01*
X159480648Y-107483390D02*
X159433029Y-107531009D01*
X159433029Y-107531009D02*
X159337791Y-107578628D01*
X159337791Y-107578628D02*
X158956839Y-107578628D01*
X160385410Y-107054819D02*
X160194934Y-107054819D01*
X160194934Y-107054819D02*
X160099696Y-107102438D01*
X160099696Y-107102438D02*
X160052077Y-107150057D01*
X160052077Y-107150057D02*
X159956839Y-107292914D01*
X159956839Y-107292914D02*
X159909220Y-107483390D01*
X159909220Y-107483390D02*
X159909220Y-107864342D01*
X159909220Y-107864342D02*
X159956839Y-107959580D01*
X159956839Y-107959580D02*
X160004458Y-108007200D01*
X160004458Y-108007200D02*
X160099696Y-108054819D01*
X160099696Y-108054819D02*
X160290172Y-108054819D01*
X160290172Y-108054819D02*
X160385410Y-108007200D01*
X160385410Y-108007200D02*
X160433029Y-107959580D01*
X160433029Y-107959580D02*
X160480648Y-107864342D01*
X160480648Y-107864342D02*
X160480648Y-107626247D01*
X160480648Y-107626247D02*
X160433029Y-107531009D01*
X160433029Y-107531009D02*
X160385410Y-107483390D01*
X160385410Y-107483390D02*
X160290172Y-107435771D01*
X160290172Y-107435771D02*
X160099696Y-107435771D01*
X160099696Y-107435771D02*
X160004458Y-107483390D01*
X160004458Y-107483390D02*
X159956839Y-107531009D01*
X159956839Y-107531009D02*
X159909220Y-107626247D01*
X146578267Y-94535361D02*
X146244934Y-94059170D01*
X146006839Y-94535361D02*
X146006839Y-93535361D01*
X146006839Y-93535361D02*
X146387791Y-93535361D01*
X146387791Y-93535361D02*
X146483029Y-93582980D01*
X146483029Y-93582980D02*
X146530648Y-93630599D01*
X146530648Y-93630599D02*
X146578267Y-93725837D01*
X146578267Y-93725837D02*
X146578267Y-93868694D01*
X146578267Y-93868694D02*
X146530648Y-93963932D01*
X146530648Y-93963932D02*
X146483029Y-94011551D01*
X146483029Y-94011551D02*
X146387791Y-94059170D01*
X146387791Y-94059170D02*
X146006839Y-94059170D01*
X146911601Y-93535361D02*
X147530648Y-93535361D01*
X147530648Y-93535361D02*
X147197315Y-93916313D01*
X147197315Y-93916313D02*
X147340172Y-93916313D01*
X147340172Y-93916313D02*
X147435410Y-93963932D01*
X147435410Y-93963932D02*
X147483029Y-94011551D01*
X147483029Y-94011551D02*
X147530648Y-94106789D01*
X147530648Y-94106789D02*
X147530648Y-94344884D01*
X147530648Y-94344884D02*
X147483029Y-94440122D01*
X147483029Y-94440122D02*
X147435410Y-94487742D01*
X147435410Y-94487742D02*
X147340172Y-94535361D01*
X147340172Y-94535361D02*
X147054458Y-94535361D01*
X147054458Y-94535361D02*
X146959220Y-94487742D01*
X146959220Y-94487742D02*
X146911601Y-94440122D01*
X163849753Y-117544827D02*
X164849753Y-116878161D01*
X163849753Y-116878161D02*
X164849753Y-117544827D01*
X163849753Y-116306732D02*
X163849753Y-116116256D01*
X163849753Y-116116256D02*
X163897372Y-116021018D01*
X163897372Y-116021018D02*
X163992610Y-115925780D01*
X163992610Y-115925780D02*
X164183086Y-115878161D01*
X164183086Y-115878161D02*
X164516419Y-115878161D01*
X164516419Y-115878161D02*
X164706895Y-115925780D01*
X164706895Y-115925780D02*
X164802134Y-116021018D01*
X164802134Y-116021018D02*
X164849753Y-116116256D01*
X164849753Y-116116256D02*
X164849753Y-116306732D01*
X164849753Y-116306732D02*
X164802134Y-116401970D01*
X164802134Y-116401970D02*
X164706895Y-116497208D01*
X164706895Y-116497208D02*
X164516419Y-116544827D01*
X164516419Y-116544827D02*
X164183086Y-116544827D01*
X164183086Y-116544827D02*
X163992610Y-116497208D01*
X163992610Y-116497208D02*
X163897372Y-116401970D01*
X163897372Y-116401970D02*
X163849753Y-116306732D01*
X163849753Y-115449589D02*
X164659276Y-115449589D01*
X164659276Y-115449589D02*
X164754514Y-115401970D01*
X164754514Y-115401970D02*
X164802134Y-115354351D01*
X164802134Y-115354351D02*
X164849753Y-115259113D01*
X164849753Y-115259113D02*
X164849753Y-115068637D01*
X164849753Y-115068637D02*
X164802134Y-114973399D01*
X164802134Y-114973399D02*
X164754514Y-114925780D01*
X164754514Y-114925780D02*
X164659276Y-114878161D01*
X164659276Y-114878161D02*
X163849753Y-114878161D01*
X163849753Y-114544827D02*
X163849753Y-113973399D01*
X164849753Y-114259113D02*
X163849753Y-114259113D01*
X163849753Y-113735303D02*
X163849753Y-113116256D01*
X163849753Y-113116256D02*
X164230705Y-113449589D01*
X164230705Y-113449589D02*
X164230705Y-113306732D01*
X164230705Y-113306732D02*
X164278324Y-113211494D01*
X164278324Y-113211494D02*
X164325943Y-113163875D01*
X164325943Y-113163875D02*
X164421181Y-113116256D01*
X164421181Y-113116256D02*
X164659276Y-113116256D01*
X164659276Y-113116256D02*
X164754514Y-113163875D01*
X164754514Y-113163875D02*
X164802134Y-113211494D01*
X164802134Y-113211494D02*
X164849753Y-113306732D01*
X164849753Y-113306732D02*
X164849753Y-113592446D01*
X164849753Y-113592446D02*
X164802134Y-113687684D01*
X164802134Y-113687684D02*
X164754514Y-113735303D01*
X163944991Y-112735303D02*
X163897372Y-112687684D01*
X163897372Y-112687684D02*
X163849753Y-112592446D01*
X163849753Y-112592446D02*
X163849753Y-112354351D01*
X163849753Y-112354351D02*
X163897372Y-112259113D01*
X163897372Y-112259113D02*
X163944991Y-112211494D01*
X163944991Y-112211494D02*
X164040229Y-112163875D01*
X164040229Y-112163875D02*
X164135467Y-112163875D01*
X164135467Y-112163875D02*
X164278324Y-112211494D01*
X164278324Y-112211494D02*
X164849753Y-112782922D01*
X164849753Y-112782922D02*
X164849753Y-112163875D01*
X152599753Y-117230542D02*
X153314038Y-117230542D01*
X153314038Y-117230542D02*
X153456895Y-117278161D01*
X153456895Y-117278161D02*
X153552134Y-117373399D01*
X153552134Y-117373399D02*
X153599753Y-117516256D01*
X153599753Y-117516256D02*
X153599753Y-117611494D01*
X152599753Y-116897208D02*
X152599753Y-116325780D01*
X153599753Y-116611494D02*
X152599753Y-116611494D01*
X153314038Y-116040065D02*
X153314038Y-115563875D01*
X153599753Y-116135303D02*
X152599753Y-115801970D01*
X152599753Y-115801970D02*
X153599753Y-115468637D01*
X152647372Y-114611494D02*
X152599753Y-114706732D01*
X152599753Y-114706732D02*
X152599753Y-114849589D01*
X152599753Y-114849589D02*
X152647372Y-114992446D01*
X152647372Y-114992446D02*
X152742610Y-115087684D01*
X152742610Y-115087684D02*
X152837848Y-115135303D01*
X152837848Y-115135303D02*
X153028324Y-115182922D01*
X153028324Y-115182922D02*
X153171181Y-115182922D01*
X153171181Y-115182922D02*
X153361657Y-115135303D01*
X153361657Y-115135303D02*
X153456895Y-115087684D01*
X153456895Y-115087684D02*
X153552134Y-114992446D01*
X153552134Y-114992446D02*
X153599753Y-114849589D01*
X153599753Y-114849589D02*
X153599753Y-114754351D01*
X153599753Y-114754351D02*
X153552134Y-114611494D01*
X153552134Y-114611494D02*
X153504514Y-114563875D01*
X153504514Y-114563875D02*
X153171181Y-114563875D01*
X153171181Y-114563875D02*
X153171181Y-114754351D01*
X153552134Y-114182922D02*
X153599753Y-114040065D01*
X153599753Y-114040065D02*
X153599753Y-113801970D01*
X153599753Y-113801970D02*
X153552134Y-113706732D01*
X153552134Y-113706732D02*
X153504514Y-113659113D01*
X153504514Y-113659113D02*
X153409276Y-113611494D01*
X153409276Y-113611494D02*
X153314038Y-113611494D01*
X153314038Y-113611494D02*
X153218800Y-113659113D01*
X153218800Y-113659113D02*
X153171181Y-113706732D01*
X153171181Y-113706732D02*
X153123562Y-113801970D01*
X153123562Y-113801970D02*
X153075943Y-113992446D01*
X153075943Y-113992446D02*
X153028324Y-114087684D01*
X153028324Y-114087684D02*
X152980705Y-114135303D01*
X152980705Y-114135303D02*
X152885467Y-114182922D01*
X152885467Y-114182922D02*
X152790229Y-114182922D01*
X152790229Y-114182922D02*
X152694991Y-114135303D01*
X152694991Y-114135303D02*
X152647372Y-114087684D01*
X152647372Y-114087684D02*
X152599753Y-113992446D01*
X152599753Y-113992446D02*
X152599753Y-113754351D01*
X152599753Y-113754351D02*
X152647372Y-113611494D01*
X153075943Y-113182922D02*
X153075943Y-112849589D01*
X153599753Y-112706732D02*
X153599753Y-113182922D01*
X153599753Y-113182922D02*
X152599753Y-113182922D01*
X152599753Y-113182922D02*
X152599753Y-112706732D01*
X153599753Y-111801970D02*
X153599753Y-112278160D01*
X153599753Y-112278160D02*
X152599753Y-112278160D01*
X157099753Y-117573398D02*
X157099753Y-117001970D01*
X158099753Y-117287684D02*
X157099753Y-117287684D01*
X158052134Y-116716255D02*
X158099753Y-116573398D01*
X158099753Y-116573398D02*
X158099753Y-116335303D01*
X158099753Y-116335303D02*
X158052134Y-116240065D01*
X158052134Y-116240065D02*
X158004514Y-116192446D01*
X158004514Y-116192446D02*
X157909276Y-116144827D01*
X157909276Y-116144827D02*
X157814038Y-116144827D01*
X157814038Y-116144827D02*
X157718800Y-116192446D01*
X157718800Y-116192446D02*
X157671181Y-116240065D01*
X157671181Y-116240065D02*
X157623562Y-116335303D01*
X157623562Y-116335303D02*
X157575943Y-116525779D01*
X157575943Y-116525779D02*
X157528324Y-116621017D01*
X157528324Y-116621017D02*
X157480705Y-116668636D01*
X157480705Y-116668636D02*
X157385467Y-116716255D01*
X157385467Y-116716255D02*
X157290229Y-116716255D01*
X157290229Y-116716255D02*
X157194991Y-116668636D01*
X157194991Y-116668636D02*
X157147372Y-116621017D01*
X157147372Y-116621017D02*
X157099753Y-116525779D01*
X157099753Y-116525779D02*
X157099753Y-116287684D01*
X157099753Y-116287684D02*
X157147372Y-116144827D01*
X157099753Y-115859112D02*
X157099753Y-115287684D01*
X158099753Y-115573398D02*
X157099753Y-115573398D01*
X146883333Y-76759580D02*
X146835714Y-76807200D01*
X146835714Y-76807200D02*
X146692857Y-76854819D01*
X146692857Y-76854819D02*
X146597619Y-76854819D01*
X146597619Y-76854819D02*
X146454762Y-76807200D01*
X146454762Y-76807200D02*
X146359524Y-76711961D01*
X146359524Y-76711961D02*
X146311905Y-76616723D01*
X146311905Y-76616723D02*
X146264286Y-76426247D01*
X146264286Y-76426247D02*
X146264286Y-76283390D01*
X146264286Y-76283390D02*
X146311905Y-76092914D01*
X146311905Y-76092914D02*
X146359524Y-75997676D01*
X146359524Y-75997676D02*
X146454762Y-75902438D01*
X146454762Y-75902438D02*
X146597619Y-75854819D01*
X146597619Y-75854819D02*
X146692857Y-75854819D01*
X146692857Y-75854819D02*
X146835714Y-75902438D01*
X146835714Y-75902438D02*
X146883333Y-75950057D01*
X147216667Y-75854819D02*
X147835714Y-75854819D01*
X147835714Y-75854819D02*
X147502381Y-76235771D01*
X147502381Y-76235771D02*
X147645238Y-76235771D01*
X147645238Y-76235771D02*
X147740476Y-76283390D01*
X147740476Y-76283390D02*
X147788095Y-76331009D01*
X147788095Y-76331009D02*
X147835714Y-76426247D01*
X147835714Y-76426247D02*
X147835714Y-76664342D01*
X147835714Y-76664342D02*
X147788095Y-76759580D01*
X147788095Y-76759580D02*
X147740476Y-76807200D01*
X147740476Y-76807200D02*
X147645238Y-76854819D01*
X147645238Y-76854819D02*
X147359524Y-76854819D01*
X147359524Y-76854819D02*
X147264286Y-76807200D01*
X147264286Y-76807200D02*
X147216667Y-76759580D01*
X154249753Y-80168636D02*
X155249753Y-79835303D01*
X155249753Y-79835303D02*
X154249753Y-79501970D01*
X155249753Y-79168636D02*
X154249753Y-79168636D01*
X154249753Y-79168636D02*
X154249753Y-78930541D01*
X154249753Y-78930541D02*
X154297372Y-78787684D01*
X154297372Y-78787684D02*
X154392610Y-78692446D01*
X154392610Y-78692446D02*
X154487848Y-78644827D01*
X154487848Y-78644827D02*
X154678324Y-78597208D01*
X154678324Y-78597208D02*
X154821181Y-78597208D01*
X154821181Y-78597208D02*
X155011657Y-78644827D01*
X155011657Y-78644827D02*
X155106895Y-78692446D01*
X155106895Y-78692446D02*
X155202134Y-78787684D01*
X155202134Y-78787684D02*
X155249753Y-78930541D01*
X155249753Y-78930541D02*
X155249753Y-79168636D01*
X155249753Y-78168636D02*
X154249753Y-78168636D01*
X154249753Y-78168636D02*
X154249753Y-77930541D01*
X154249753Y-77930541D02*
X154297372Y-77787684D01*
X154297372Y-77787684D02*
X154392610Y-77692446D01*
X154392610Y-77692446D02*
X154487848Y-77644827D01*
X154487848Y-77644827D02*
X154678324Y-77597208D01*
X154678324Y-77597208D02*
X154821181Y-77597208D01*
X154821181Y-77597208D02*
X155011657Y-77644827D01*
X155011657Y-77644827D02*
X155106895Y-77692446D01*
X155106895Y-77692446D02*
X155202134Y-77787684D01*
X155202134Y-77787684D02*
X155249753Y-77930541D01*
X155249753Y-77930541D02*
X155249753Y-78168636D01*
X155249753Y-76692446D02*
X155249753Y-77168636D01*
X155249753Y-77168636D02*
X154249753Y-77168636D01*
X155154514Y-75787684D02*
X155202134Y-75835303D01*
X155202134Y-75835303D02*
X155249753Y-75978160D01*
X155249753Y-75978160D02*
X155249753Y-76073398D01*
X155249753Y-76073398D02*
X155202134Y-76216255D01*
X155202134Y-76216255D02*
X155106895Y-76311493D01*
X155106895Y-76311493D02*
X155011657Y-76359112D01*
X155011657Y-76359112D02*
X154821181Y-76406731D01*
X154821181Y-76406731D02*
X154678324Y-76406731D01*
X154678324Y-76406731D02*
X154487848Y-76359112D01*
X154487848Y-76359112D02*
X154392610Y-76311493D01*
X154392610Y-76311493D02*
X154297372Y-76216255D01*
X154297372Y-76216255D02*
X154249753Y-76073398D01*
X154249753Y-76073398D02*
X154249753Y-75978160D01*
X154249753Y-75978160D02*
X154297372Y-75835303D01*
X154297372Y-75835303D02*
X154344991Y-75787684D01*
X155249753Y-75359112D02*
X154249753Y-75359112D01*
X154249753Y-75359112D02*
X154249753Y-75121017D01*
X154249753Y-75121017D02*
X154297372Y-74978160D01*
X154297372Y-74978160D02*
X154392610Y-74882922D01*
X154392610Y-74882922D02*
X154487848Y-74835303D01*
X154487848Y-74835303D02*
X154678324Y-74787684D01*
X154678324Y-74787684D02*
X154821181Y-74787684D01*
X154821181Y-74787684D02*
X155011657Y-74835303D01*
X155011657Y-74835303D02*
X155106895Y-74882922D01*
X155106895Y-74882922D02*
X155202134Y-74978160D01*
X155202134Y-74978160D02*
X155249753Y-75121017D01*
X155249753Y-75121017D02*
X155249753Y-75359112D01*
X155802134Y-117563874D02*
X155849753Y-117421017D01*
X155849753Y-117421017D02*
X155849753Y-117182922D01*
X155849753Y-117182922D02*
X155802134Y-117087684D01*
X155802134Y-117087684D02*
X155754514Y-117040065D01*
X155754514Y-117040065D02*
X155659276Y-116992446D01*
X155659276Y-116992446D02*
X155564038Y-116992446D01*
X155564038Y-116992446D02*
X155468800Y-117040065D01*
X155468800Y-117040065D02*
X155421181Y-117087684D01*
X155421181Y-117087684D02*
X155373562Y-117182922D01*
X155373562Y-117182922D02*
X155325943Y-117373398D01*
X155325943Y-117373398D02*
X155278324Y-117468636D01*
X155278324Y-117468636D02*
X155230705Y-117516255D01*
X155230705Y-117516255D02*
X155135467Y-117563874D01*
X155135467Y-117563874D02*
X155040229Y-117563874D01*
X155040229Y-117563874D02*
X154944991Y-117516255D01*
X154944991Y-117516255D02*
X154897372Y-117468636D01*
X154897372Y-117468636D02*
X154849753Y-117373398D01*
X154849753Y-117373398D02*
X154849753Y-117135303D01*
X154849753Y-117135303D02*
X154897372Y-116992446D01*
X155849753Y-116563874D02*
X154849753Y-116563874D01*
X155325943Y-116563874D02*
X155325943Y-115992446D01*
X155849753Y-115992446D02*
X154849753Y-115992446D01*
X155849753Y-115516255D02*
X154849753Y-115516255D01*
X154849753Y-115516255D02*
X154849753Y-115278160D01*
X154849753Y-115278160D02*
X154897372Y-115135303D01*
X154897372Y-115135303D02*
X154992610Y-115040065D01*
X154992610Y-115040065D02*
X155087848Y-114992446D01*
X155087848Y-114992446D02*
X155278324Y-114944827D01*
X155278324Y-114944827D02*
X155421181Y-114944827D01*
X155421181Y-114944827D02*
X155611657Y-114992446D01*
X155611657Y-114992446D02*
X155706895Y-115040065D01*
X155706895Y-115040065D02*
X155802134Y-115135303D01*
X155802134Y-115135303D02*
X155849753Y-115278160D01*
X155849753Y-115278160D02*
X155849753Y-115516255D01*
X155849753Y-114516255D02*
X154849753Y-114516255D01*
X154849753Y-114516255D02*
X155849753Y-113944827D01*
X155849753Y-113944827D02*
X154849753Y-113944827D01*
X168349753Y-117492446D02*
X169349753Y-116825780D01*
X168349753Y-116825780D02*
X169349753Y-117492446D01*
X168349753Y-116254351D02*
X168349753Y-116063875D01*
X168349753Y-116063875D02*
X168397372Y-115968637D01*
X168397372Y-115968637D02*
X168492610Y-115873399D01*
X168492610Y-115873399D02*
X168683086Y-115825780D01*
X168683086Y-115825780D02*
X169016419Y-115825780D01*
X169016419Y-115825780D02*
X169206895Y-115873399D01*
X169206895Y-115873399D02*
X169302134Y-115968637D01*
X169302134Y-115968637D02*
X169349753Y-116063875D01*
X169349753Y-116063875D02*
X169349753Y-116254351D01*
X169349753Y-116254351D02*
X169302134Y-116349589D01*
X169302134Y-116349589D02*
X169206895Y-116444827D01*
X169206895Y-116444827D02*
X169016419Y-116492446D01*
X169016419Y-116492446D02*
X168683086Y-116492446D01*
X168683086Y-116492446D02*
X168492610Y-116444827D01*
X168492610Y-116444827D02*
X168397372Y-116349589D01*
X168397372Y-116349589D02*
X168349753Y-116254351D01*
X168349753Y-115397208D02*
X169159276Y-115397208D01*
X169159276Y-115397208D02*
X169254514Y-115349589D01*
X169254514Y-115349589D02*
X169302134Y-115301970D01*
X169302134Y-115301970D02*
X169349753Y-115206732D01*
X169349753Y-115206732D02*
X169349753Y-115016256D01*
X169349753Y-115016256D02*
X169302134Y-114921018D01*
X169302134Y-114921018D02*
X169254514Y-114873399D01*
X169254514Y-114873399D02*
X169159276Y-114825780D01*
X169159276Y-114825780D02*
X168349753Y-114825780D01*
X168349753Y-114492446D02*
X168349753Y-113921018D01*
X169349753Y-114206732D02*
X168349753Y-114206732D01*
X161599753Y-117528160D02*
X162599753Y-116861494D01*
X161599753Y-116861494D02*
X162599753Y-117528160D01*
X162599753Y-116480541D02*
X161599753Y-116480541D01*
X162599753Y-116004351D02*
X161599753Y-116004351D01*
X161599753Y-116004351D02*
X162599753Y-115432923D01*
X162599753Y-115432923D02*
X161599753Y-115432923D01*
X161599753Y-115051970D02*
X161599753Y-114432923D01*
X161599753Y-114432923D02*
X161980705Y-114766256D01*
X161980705Y-114766256D02*
X161980705Y-114623399D01*
X161980705Y-114623399D02*
X162028324Y-114528161D01*
X162028324Y-114528161D02*
X162075943Y-114480542D01*
X162075943Y-114480542D02*
X162171181Y-114432923D01*
X162171181Y-114432923D02*
X162409276Y-114432923D01*
X162409276Y-114432923D02*
X162504514Y-114480542D01*
X162504514Y-114480542D02*
X162552134Y-114528161D01*
X162552134Y-114528161D02*
X162599753Y-114623399D01*
X162599753Y-114623399D02*
X162599753Y-114909113D01*
X162599753Y-114909113D02*
X162552134Y-115004351D01*
X162552134Y-115004351D02*
X162504514Y-115051970D01*
X161694991Y-114051970D02*
X161647372Y-114004351D01*
X161647372Y-114004351D02*
X161599753Y-113909113D01*
X161599753Y-113909113D02*
X161599753Y-113671018D01*
X161599753Y-113671018D02*
X161647372Y-113575780D01*
X161647372Y-113575780D02*
X161694991Y-113528161D01*
X161694991Y-113528161D02*
X161790229Y-113480542D01*
X161790229Y-113480542D02*
X161885467Y-113480542D01*
X161885467Y-113480542D02*
X162028324Y-113528161D01*
X162028324Y-113528161D02*
X162599753Y-114099589D01*
X162599753Y-114099589D02*
X162599753Y-113480542D01*
X146703267Y-102235361D02*
X146369934Y-101759170D01*
X146131839Y-102235361D02*
X146131839Y-101235361D01*
X146131839Y-101235361D02*
X146512791Y-101235361D01*
X146512791Y-101235361D02*
X146608029Y-101282980D01*
X146608029Y-101282980D02*
X146655648Y-101330599D01*
X146655648Y-101330599D02*
X146703267Y-101425837D01*
X146703267Y-101425837D02*
X146703267Y-101568694D01*
X146703267Y-101568694D02*
X146655648Y-101663932D01*
X146655648Y-101663932D02*
X146608029Y-101711551D01*
X146608029Y-101711551D02*
X146512791Y-101759170D01*
X146512791Y-101759170D02*
X146131839Y-101759170D01*
X147084220Y-101330599D02*
X147131839Y-101282980D01*
X147131839Y-101282980D02*
X147227077Y-101235361D01*
X147227077Y-101235361D02*
X147465172Y-101235361D01*
X147465172Y-101235361D02*
X147560410Y-101282980D01*
X147560410Y-101282980D02*
X147608029Y-101330599D01*
X147608029Y-101330599D02*
X147655648Y-101425837D01*
X147655648Y-101425837D02*
X147655648Y-101521075D01*
X147655648Y-101521075D02*
X147608029Y-101663932D01*
X147608029Y-101663932D02*
X147036601Y-102235361D01*
X147036601Y-102235361D02*
X147655648Y-102235361D01*
X145133333Y-81909580D02*
X145085714Y-81957200D01*
X145085714Y-81957200D02*
X144942857Y-82004819D01*
X144942857Y-82004819D02*
X144847619Y-82004819D01*
X144847619Y-82004819D02*
X144704762Y-81957200D01*
X144704762Y-81957200D02*
X144609524Y-81861961D01*
X144609524Y-81861961D02*
X144561905Y-81766723D01*
X144561905Y-81766723D02*
X144514286Y-81576247D01*
X144514286Y-81576247D02*
X144514286Y-81433390D01*
X144514286Y-81433390D02*
X144561905Y-81242914D01*
X144561905Y-81242914D02*
X144609524Y-81147676D01*
X144609524Y-81147676D02*
X144704762Y-81052438D01*
X144704762Y-81052438D02*
X144847619Y-81004819D01*
X144847619Y-81004819D02*
X144942857Y-81004819D01*
X144942857Y-81004819D02*
X145085714Y-81052438D01*
X145085714Y-81052438D02*
X145133333Y-81100057D01*
X145514286Y-81100057D02*
X145561905Y-81052438D01*
X145561905Y-81052438D02*
X145657143Y-81004819D01*
X145657143Y-81004819D02*
X145895238Y-81004819D01*
X145895238Y-81004819D02*
X145990476Y-81052438D01*
X145990476Y-81052438D02*
X146038095Y-81100057D01*
X146038095Y-81100057D02*
X146085714Y-81195295D01*
X146085714Y-81195295D02*
X146085714Y-81290533D01*
X146085714Y-81290533D02*
X146038095Y-81433390D01*
X146038095Y-81433390D02*
X145466667Y-82004819D01*
X145466667Y-82004819D02*
X146085714Y-82004819D01*
X171383333Y-104159580D02*
X171335714Y-104207200D01*
X171335714Y-104207200D02*
X171192857Y-104254819D01*
X171192857Y-104254819D02*
X171097619Y-104254819D01*
X171097619Y-104254819D02*
X170954762Y-104207200D01*
X170954762Y-104207200D02*
X170859524Y-104111961D01*
X170859524Y-104111961D02*
X170811905Y-104016723D01*
X170811905Y-104016723D02*
X170764286Y-103826247D01*
X170764286Y-103826247D02*
X170764286Y-103683390D01*
X170764286Y-103683390D02*
X170811905Y-103492914D01*
X170811905Y-103492914D02*
X170859524Y-103397676D01*
X170859524Y-103397676D02*
X170954762Y-103302438D01*
X170954762Y-103302438D02*
X171097619Y-103254819D01*
X171097619Y-103254819D02*
X171192857Y-103254819D01*
X171192857Y-103254819D02*
X171335714Y-103302438D01*
X171335714Y-103302438D02*
X171383333Y-103350057D01*
X172240476Y-103588152D02*
X172240476Y-104254819D01*
X172002381Y-103207200D02*
X171764286Y-103921485D01*
X171764286Y-103921485D02*
X172383333Y-103921485D01*
X149716666Y-105254819D02*
X149716666Y-105969104D01*
X149716666Y-105969104D02*
X149669047Y-106111961D01*
X149669047Y-106111961D02*
X149573809Y-106207200D01*
X149573809Y-106207200D02*
X149430952Y-106254819D01*
X149430952Y-106254819D02*
X149335714Y-106254819D01*
X150192857Y-106254819D02*
X150192857Y-105254819D01*
X150192857Y-105254819D02*
X150573809Y-105254819D01*
X150573809Y-105254819D02*
X150669047Y-105302438D01*
X150669047Y-105302438D02*
X150716666Y-105350057D01*
X150716666Y-105350057D02*
X150764285Y-105445295D01*
X150764285Y-105445295D02*
X150764285Y-105588152D01*
X150764285Y-105588152D02*
X150716666Y-105683390D01*
X150716666Y-105683390D02*
X150669047Y-105731009D01*
X150669047Y-105731009D02*
X150573809Y-105778628D01*
X150573809Y-105778628D02*
X150192857Y-105778628D01*
X151716666Y-106254819D02*
X151145238Y-106254819D01*
X151430952Y-106254819D02*
X151430952Y-105254819D01*
X151430952Y-105254819D02*
X151335714Y-105397676D01*
X151335714Y-105397676D02*
X151240476Y-105492914D01*
X151240476Y-105492914D02*
X151145238Y-105540533D01*
X160549753Y-80342446D02*
X161549753Y-80009113D01*
X161549753Y-80009113D02*
X160549753Y-79675780D01*
X161549753Y-79342446D02*
X160549753Y-79342446D01*
X160549753Y-79342446D02*
X160549753Y-79104351D01*
X160549753Y-79104351D02*
X160597372Y-78961494D01*
X160597372Y-78961494D02*
X160692610Y-78866256D01*
X160692610Y-78866256D02*
X160787848Y-78818637D01*
X160787848Y-78818637D02*
X160978324Y-78771018D01*
X160978324Y-78771018D02*
X161121181Y-78771018D01*
X161121181Y-78771018D02*
X161311657Y-78818637D01*
X161311657Y-78818637D02*
X161406895Y-78866256D01*
X161406895Y-78866256D02*
X161502134Y-78961494D01*
X161502134Y-78961494D02*
X161549753Y-79104351D01*
X161549753Y-79104351D02*
X161549753Y-79342446D01*
X161549753Y-78342446D02*
X160549753Y-78342446D01*
X160549753Y-78342446D02*
X160549753Y-78104351D01*
X160549753Y-78104351D02*
X160597372Y-77961494D01*
X160597372Y-77961494D02*
X160692610Y-77866256D01*
X160692610Y-77866256D02*
X160787848Y-77818637D01*
X160787848Y-77818637D02*
X160978324Y-77771018D01*
X160978324Y-77771018D02*
X161121181Y-77771018D01*
X161121181Y-77771018D02*
X161311657Y-77818637D01*
X161311657Y-77818637D02*
X161406895Y-77866256D01*
X161406895Y-77866256D02*
X161502134Y-77961494D01*
X161502134Y-77961494D02*
X161549753Y-78104351D01*
X161549753Y-78104351D02*
X161549753Y-78342446D01*
X160549753Y-77151970D02*
X160549753Y-76961494D01*
X160549753Y-76961494D02*
X160597372Y-76866256D01*
X160597372Y-76866256D02*
X160692610Y-76771018D01*
X160692610Y-76771018D02*
X160883086Y-76723399D01*
X160883086Y-76723399D02*
X161216419Y-76723399D01*
X161216419Y-76723399D02*
X161406895Y-76771018D01*
X161406895Y-76771018D02*
X161502134Y-76866256D01*
X161502134Y-76866256D02*
X161549753Y-76961494D01*
X161549753Y-76961494D02*
X161549753Y-77151970D01*
X161549753Y-77151970D02*
X161502134Y-77247208D01*
X161502134Y-77247208D02*
X161406895Y-77342446D01*
X161406895Y-77342446D02*
X161216419Y-77390065D01*
X161216419Y-77390065D02*
X160883086Y-77390065D01*
X160883086Y-77390065D02*
X160692610Y-77342446D01*
X160692610Y-77342446D02*
X160597372Y-77247208D01*
X160597372Y-77247208D02*
X160549753Y-77151970D01*
X160549753Y-76294827D02*
X161359276Y-76294827D01*
X161359276Y-76294827D02*
X161454514Y-76247208D01*
X161454514Y-76247208D02*
X161502134Y-76199589D01*
X161502134Y-76199589D02*
X161549753Y-76104351D01*
X161549753Y-76104351D02*
X161549753Y-75913875D01*
X161549753Y-75913875D02*
X161502134Y-75818637D01*
X161502134Y-75818637D02*
X161454514Y-75771018D01*
X161454514Y-75771018D02*
X161359276Y-75723399D01*
X161359276Y-75723399D02*
X160549753Y-75723399D01*
X160549753Y-75390065D02*
X160549753Y-74818637D01*
X161549753Y-75104351D02*
X160549753Y-75104351D01*
X159349753Y-117559112D02*
X160349753Y-117321017D01*
X160349753Y-117321017D02*
X159635467Y-117130541D01*
X159635467Y-117130541D02*
X160349753Y-116940065D01*
X160349753Y-116940065D02*
X159349753Y-116701970D01*
X160349753Y-116321017D02*
X159349753Y-116321017D01*
X160349753Y-115749589D02*
X159778324Y-116178160D01*
X159349753Y-115749589D02*
X159921181Y-116321017D01*
X159349753Y-115321017D02*
X160159276Y-115321017D01*
X160159276Y-115321017D02*
X160254514Y-115273398D01*
X160254514Y-115273398D02*
X160302134Y-115225779D01*
X160302134Y-115225779D02*
X160349753Y-115130541D01*
X160349753Y-115130541D02*
X160349753Y-114940065D01*
X160349753Y-114940065D02*
X160302134Y-114844827D01*
X160302134Y-114844827D02*
X160254514Y-114797208D01*
X160254514Y-114797208D02*
X160159276Y-114749589D01*
X160159276Y-114749589D02*
X159349753Y-114749589D01*
X160349753Y-114273398D02*
X159349753Y-114273398D01*
X159349753Y-114273398D02*
X159349753Y-113892446D01*
X159349753Y-113892446D02*
X159397372Y-113797208D01*
X159397372Y-113797208D02*
X159444991Y-113749589D01*
X159444991Y-113749589D02*
X159540229Y-113701970D01*
X159540229Y-113701970D02*
X159683086Y-113701970D01*
X159683086Y-113701970D02*
X159778324Y-113749589D01*
X159778324Y-113749589D02*
X159825943Y-113797208D01*
X159825943Y-113797208D02*
X159873562Y-113892446D01*
X159873562Y-113892446D02*
X159873562Y-114273398D01*
X159349753Y-113082922D02*
X159349753Y-112987684D01*
X159349753Y-112987684D02*
X159397372Y-112892446D01*
X159397372Y-112892446D02*
X159444991Y-112844827D01*
X159444991Y-112844827D02*
X159540229Y-112797208D01*
X159540229Y-112797208D02*
X159730705Y-112749589D01*
X159730705Y-112749589D02*
X159968800Y-112749589D01*
X159968800Y-112749589D02*
X160159276Y-112797208D01*
X160159276Y-112797208D02*
X160254514Y-112844827D01*
X160254514Y-112844827D02*
X160302134Y-112892446D01*
X160302134Y-112892446D02*
X160349753Y-112987684D01*
X160349753Y-112987684D02*
X160349753Y-113082922D01*
X160349753Y-113082922D02*
X160302134Y-113178160D01*
X160302134Y-113178160D02*
X160254514Y-113225779D01*
X160254514Y-113225779D02*
X160159276Y-113273398D01*
X160159276Y-113273398D02*
X159968800Y-113321017D01*
X159968800Y-113321017D02*
X159730705Y-113321017D01*
X159730705Y-113321017D02*
X159540229Y-113273398D01*
X159540229Y-113273398D02*
X159444991Y-113225779D01*
X159444991Y-113225779D02*
X159397372Y-113178160D01*
X159397372Y-113178160D02*
X159349753Y-113082922D01*
X156883333Y-108104819D02*
X156550000Y-107628628D01*
X156311905Y-108104819D02*
X156311905Y-107104819D01*
X156311905Y-107104819D02*
X156692857Y-107104819D01*
X156692857Y-107104819D02*
X156788095Y-107152438D01*
X156788095Y-107152438D02*
X156835714Y-107200057D01*
X156835714Y-107200057D02*
X156883333Y-107295295D01*
X156883333Y-107295295D02*
X156883333Y-107438152D01*
X156883333Y-107438152D02*
X156835714Y-107533390D01*
X156835714Y-107533390D02*
X156788095Y-107581009D01*
X156788095Y-107581009D02*
X156692857Y-107628628D01*
X156692857Y-107628628D02*
X156311905Y-107628628D01*
X157788095Y-107104819D02*
X157311905Y-107104819D01*
X157311905Y-107104819D02*
X157264286Y-107581009D01*
X157264286Y-107581009D02*
X157311905Y-107533390D01*
X157311905Y-107533390D02*
X157407143Y-107485771D01*
X157407143Y-107485771D02*
X157645238Y-107485771D01*
X157645238Y-107485771D02*
X157740476Y-107533390D01*
X157740476Y-107533390D02*
X157788095Y-107581009D01*
X157788095Y-107581009D02*
X157835714Y-107676247D01*
X157835714Y-107676247D02*
X157835714Y-107914342D01*
X157835714Y-107914342D02*
X157788095Y-108009580D01*
X157788095Y-108009580D02*
X157740476Y-108057200D01*
X157740476Y-108057200D02*
X157645238Y-108104819D01*
X157645238Y-108104819D02*
X157407143Y-108104819D01*
X157407143Y-108104819D02*
X157311905Y-108057200D01*
X157311905Y-108057200D02*
X157264286Y-108009580D01*
X146628267Y-104235361D02*
X146294934Y-103759170D01*
X146056839Y-104235361D02*
X146056839Y-103235361D01*
X146056839Y-103235361D02*
X146437791Y-103235361D01*
X146437791Y-103235361D02*
X146533029Y-103282980D01*
X146533029Y-103282980D02*
X146580648Y-103330599D01*
X146580648Y-103330599D02*
X146628267Y-103425837D01*
X146628267Y-103425837D02*
X146628267Y-103568694D01*
X146628267Y-103568694D02*
X146580648Y-103663932D01*
X146580648Y-103663932D02*
X146533029Y-103711551D01*
X146533029Y-103711551D02*
X146437791Y-103759170D01*
X146437791Y-103759170D02*
X146056839Y-103759170D01*
X147580648Y-104235361D02*
X147009220Y-104235361D01*
X147294934Y-104235361D02*
X147294934Y-103235361D01*
X147294934Y-103235361D02*
X147199696Y-103378218D01*
X147199696Y-103378218D02*
X147104458Y-103473456D01*
X147104458Y-103473456D02*
X147009220Y-103521075D01*
X148088095Y-87804819D02*
X148088095Y-88614342D01*
X148088095Y-88614342D02*
X148135714Y-88709580D01*
X148135714Y-88709580D02*
X148183333Y-88757200D01*
X148183333Y-88757200D02*
X148278571Y-88804819D01*
X148278571Y-88804819D02*
X148469047Y-88804819D01*
X148469047Y-88804819D02*
X148564285Y-88757200D01*
X148564285Y-88757200D02*
X148611904Y-88709580D01*
X148611904Y-88709580D02*
X148659523Y-88614342D01*
X148659523Y-88614342D02*
X148659523Y-87804819D01*
X149659523Y-88804819D02*
X149088095Y-88804819D01*
X149373809Y-88804819D02*
X149373809Y-87804819D01*
X149373809Y-87804819D02*
X149278571Y-87947676D01*
X149278571Y-87947676D02*
X149183333Y-88042914D01*
X149183333Y-88042914D02*
X149088095Y-88090533D01*
X154426190Y-85169104D02*
X154902380Y-85169104D01*
X154330952Y-85454819D02*
X154664285Y-84454819D01*
X154664285Y-84454819D02*
X154997618Y-85454819D01*
X155188095Y-84454819D02*
X155759523Y-84454819D01*
X155473809Y-85454819D02*
X155473809Y-84454819D01*
X156045238Y-85407200D02*
X156188095Y-85454819D01*
X156188095Y-85454819D02*
X156426190Y-85454819D01*
X156426190Y-85454819D02*
X156521428Y-85407200D01*
X156521428Y-85407200D02*
X156569047Y-85359580D01*
X156569047Y-85359580D02*
X156616666Y-85264342D01*
X156616666Y-85264342D02*
X156616666Y-85169104D01*
X156616666Y-85169104D02*
X156569047Y-85073866D01*
X156569047Y-85073866D02*
X156521428Y-85026247D01*
X156521428Y-85026247D02*
X156426190Y-84978628D01*
X156426190Y-84978628D02*
X156235714Y-84931009D01*
X156235714Y-84931009D02*
X156140476Y-84883390D01*
X156140476Y-84883390D02*
X156092857Y-84835771D01*
X156092857Y-84835771D02*
X156045238Y-84740533D01*
X156045238Y-84740533D02*
X156045238Y-84645295D01*
X156045238Y-84645295D02*
X156092857Y-84550057D01*
X156092857Y-84550057D02*
X156140476Y-84502438D01*
X156140476Y-84502438D02*
X156235714Y-84454819D01*
X156235714Y-84454819D02*
X156473809Y-84454819D01*
X156473809Y-84454819D02*
X156616666Y-84502438D01*
X156997619Y-85169104D02*
X157473809Y-85169104D01*
X156902381Y-85454819D02*
X157235714Y-84454819D01*
X157235714Y-84454819D02*
X157569047Y-85454819D01*
X157902381Y-85454819D02*
X157902381Y-84454819D01*
X157902381Y-84454819D02*
X158235714Y-85169104D01*
X158235714Y-85169104D02*
X158569047Y-84454819D01*
X158569047Y-84454819D02*
X158569047Y-85454819D01*
X159473809Y-84788152D02*
X159473809Y-85454819D01*
X159235714Y-84407200D02*
X158997619Y-85121485D01*
X158997619Y-85121485D02*
X159616666Y-85121485D01*
X160569047Y-85359580D02*
X160521428Y-85407200D01*
X160521428Y-85407200D02*
X160378571Y-85454819D01*
X160378571Y-85454819D02*
X160283333Y-85454819D01*
X160283333Y-85454819D02*
X160140476Y-85407200D01*
X160140476Y-85407200D02*
X160045238Y-85311961D01*
X160045238Y-85311961D02*
X159997619Y-85216723D01*
X159997619Y-85216723D02*
X159950000Y-85026247D01*
X159950000Y-85026247D02*
X159950000Y-84883390D01*
X159950000Y-84883390D02*
X159997619Y-84692914D01*
X159997619Y-84692914D02*
X160045238Y-84597676D01*
X160045238Y-84597676D02*
X160140476Y-84502438D01*
X160140476Y-84502438D02*
X160283333Y-84454819D01*
X160283333Y-84454819D02*
X160378571Y-84454819D01*
X160378571Y-84454819D02*
X160521428Y-84502438D01*
X160521428Y-84502438D02*
X160569047Y-84550057D01*
X160902381Y-84454819D02*
X161521428Y-84454819D01*
X161521428Y-84454819D02*
X161188095Y-84835771D01*
X161188095Y-84835771D02*
X161330952Y-84835771D01*
X161330952Y-84835771D02*
X161426190Y-84883390D01*
X161426190Y-84883390D02*
X161473809Y-84931009D01*
X161473809Y-84931009D02*
X161521428Y-85026247D01*
X161521428Y-85026247D02*
X161521428Y-85264342D01*
X161521428Y-85264342D02*
X161473809Y-85359580D01*
X161473809Y-85359580D02*
X161426190Y-85407200D01*
X161426190Y-85407200D02*
X161330952Y-85454819D01*
X161330952Y-85454819D02*
X161045238Y-85454819D01*
X161045238Y-85454819D02*
X160950000Y-85407200D01*
X160950000Y-85407200D02*
X160902381Y-85359580D01*
X161902381Y-84550057D02*
X161950000Y-84502438D01*
X161950000Y-84502438D02*
X162045238Y-84454819D01*
X162045238Y-84454819D02*
X162283333Y-84454819D01*
X162283333Y-84454819D02*
X162378571Y-84502438D01*
X162378571Y-84502438D02*
X162426190Y-84550057D01*
X162426190Y-84550057D02*
X162473809Y-84645295D01*
X162473809Y-84645295D02*
X162473809Y-84740533D01*
X162473809Y-84740533D02*
X162426190Y-84883390D01*
X162426190Y-84883390D02*
X161854762Y-85454819D01*
X161854762Y-85454819D02*
X162473809Y-85454819D01*
X163473809Y-85359580D02*
X163426190Y-85407200D01*
X163426190Y-85407200D02*
X163283333Y-85454819D01*
X163283333Y-85454819D02*
X163188095Y-85454819D01*
X163188095Y-85454819D02*
X163045238Y-85407200D01*
X163045238Y-85407200D02*
X162950000Y-85311961D01*
X162950000Y-85311961D02*
X162902381Y-85216723D01*
X162902381Y-85216723D02*
X162854762Y-85026247D01*
X162854762Y-85026247D02*
X162854762Y-84883390D01*
X162854762Y-84883390D02*
X162902381Y-84692914D01*
X162902381Y-84692914D02*
X162950000Y-84597676D01*
X162950000Y-84597676D02*
X163045238Y-84502438D01*
X163045238Y-84502438D02*
X163188095Y-84454819D01*
X163188095Y-84454819D02*
X163283333Y-84454819D01*
X163283333Y-84454819D02*
X163426190Y-84502438D01*
X163426190Y-84502438D02*
X163473809Y-84550057D01*
X143383333Y-76709580D02*
X143335714Y-76757200D01*
X143335714Y-76757200D02*
X143192857Y-76804819D01*
X143192857Y-76804819D02*
X143097619Y-76804819D01*
X143097619Y-76804819D02*
X142954762Y-76757200D01*
X142954762Y-76757200D02*
X142859524Y-76661961D01*
X142859524Y-76661961D02*
X142811905Y-76566723D01*
X142811905Y-76566723D02*
X142764286Y-76376247D01*
X142764286Y-76376247D02*
X142764286Y-76233390D01*
X142764286Y-76233390D02*
X142811905Y-76042914D01*
X142811905Y-76042914D02*
X142859524Y-75947676D01*
X142859524Y-75947676D02*
X142954762Y-75852438D01*
X142954762Y-75852438D02*
X143097619Y-75804819D01*
X143097619Y-75804819D02*
X143192857Y-75804819D01*
X143192857Y-75804819D02*
X143335714Y-75852438D01*
X143335714Y-75852438D02*
X143383333Y-75900057D01*
X144335714Y-76804819D02*
X143764286Y-76804819D01*
X144050000Y-76804819D02*
X144050000Y-75804819D01*
X144050000Y-75804819D02*
X143954762Y-75947676D01*
X143954762Y-75947676D02*
X143859524Y-76042914D01*
X143859524Y-76042914D02*
X143764286Y-76090533D01*
X154583333Y-108104819D02*
X154250000Y-107628628D01*
X154011905Y-108104819D02*
X154011905Y-107104819D01*
X154011905Y-107104819D02*
X154392857Y-107104819D01*
X154392857Y-107104819D02*
X154488095Y-107152438D01*
X154488095Y-107152438D02*
X154535714Y-107200057D01*
X154535714Y-107200057D02*
X154583333Y-107295295D01*
X154583333Y-107295295D02*
X154583333Y-107438152D01*
X154583333Y-107438152D02*
X154535714Y-107533390D01*
X154535714Y-107533390D02*
X154488095Y-107581009D01*
X154488095Y-107581009D02*
X154392857Y-107628628D01*
X154392857Y-107628628D02*
X154011905Y-107628628D01*
X155440476Y-107438152D02*
X155440476Y-108104819D01*
X155202381Y-107057200D02*
X154964286Y-107771485D01*
X154964286Y-107771485D02*
X155583333Y-107771485D01*
X150825943Y-116982922D02*
X150825943Y-117316255D01*
X151349753Y-117316255D02*
X150349753Y-117316255D01*
X150349753Y-117316255D02*
X150349753Y-116840065D01*
X150349753Y-116554350D02*
X151349753Y-116316255D01*
X151349753Y-116316255D02*
X150635467Y-116125779D01*
X150635467Y-116125779D02*
X151349753Y-115935303D01*
X151349753Y-115935303D02*
X150349753Y-115697208D01*
X150349753Y-115316255D02*
X151159276Y-115316255D01*
X151159276Y-115316255D02*
X151254514Y-115268636D01*
X151254514Y-115268636D02*
X151302134Y-115221017D01*
X151302134Y-115221017D02*
X151349753Y-115125779D01*
X151349753Y-115125779D02*
X151349753Y-114935303D01*
X151349753Y-114935303D02*
X151302134Y-114840065D01*
X151302134Y-114840065D02*
X151254514Y-114792446D01*
X151254514Y-114792446D02*
X151159276Y-114744827D01*
X151159276Y-114744827D02*
X150349753Y-114744827D01*
X151349753Y-114268636D02*
X150349753Y-114268636D01*
X150349753Y-114268636D02*
X150349753Y-113887684D01*
X150349753Y-113887684D02*
X150397372Y-113792446D01*
X150397372Y-113792446D02*
X150444991Y-113744827D01*
X150444991Y-113744827D02*
X150540229Y-113697208D01*
X150540229Y-113697208D02*
X150683086Y-113697208D01*
X150683086Y-113697208D02*
X150778324Y-113744827D01*
X150778324Y-113744827D02*
X150825943Y-113792446D01*
X150825943Y-113792446D02*
X150873562Y-113887684D01*
X150873562Y-113887684D02*
X150873562Y-114268636D01*
X148625943Y-117301970D02*
X148625943Y-116968637D01*
X149149753Y-116825780D02*
X149149753Y-117301970D01*
X149149753Y-117301970D02*
X148149753Y-117301970D01*
X148149753Y-117301970D02*
X148149753Y-116825780D01*
X149149753Y-115825780D02*
X148673562Y-116159113D01*
X149149753Y-116397208D02*
X148149753Y-116397208D01*
X148149753Y-116397208D02*
X148149753Y-116016256D01*
X148149753Y-116016256D02*
X148197372Y-115921018D01*
X148197372Y-115921018D02*
X148244991Y-115873399D01*
X148244991Y-115873399D02*
X148340229Y-115825780D01*
X148340229Y-115825780D02*
X148483086Y-115825780D01*
X148483086Y-115825780D02*
X148578324Y-115873399D01*
X148578324Y-115873399D02*
X148625943Y-115921018D01*
X148625943Y-115921018D02*
X148673562Y-116016256D01*
X148673562Y-116016256D02*
X148673562Y-116397208D01*
X148864038Y-115444827D02*
X148864038Y-114968637D01*
X149149753Y-115540065D02*
X148149753Y-115206732D01*
X148149753Y-115206732D02*
X149149753Y-114873399D01*
X149102134Y-114587684D02*
X149149753Y-114444827D01*
X149149753Y-114444827D02*
X149149753Y-114206732D01*
X149149753Y-114206732D02*
X149102134Y-114111494D01*
X149102134Y-114111494D02*
X149054514Y-114063875D01*
X149054514Y-114063875D02*
X148959276Y-114016256D01*
X148959276Y-114016256D02*
X148864038Y-114016256D01*
X148864038Y-114016256D02*
X148768800Y-114063875D01*
X148768800Y-114063875D02*
X148721181Y-114111494D01*
X148721181Y-114111494D02*
X148673562Y-114206732D01*
X148673562Y-114206732D02*
X148625943Y-114397208D01*
X148625943Y-114397208D02*
X148578324Y-114492446D01*
X148578324Y-114492446D02*
X148530705Y-114540065D01*
X148530705Y-114540065D02*
X148435467Y-114587684D01*
X148435467Y-114587684D02*
X148340229Y-114587684D01*
X148340229Y-114587684D02*
X148244991Y-114540065D01*
X148244991Y-114540065D02*
X148197372Y-114492446D01*
X148197372Y-114492446D02*
X148149753Y-114397208D01*
X148149753Y-114397208D02*
X148149753Y-114159113D01*
X148149753Y-114159113D02*
X148197372Y-114016256D01*
X148625943Y-113587684D02*
X148625943Y-113254351D01*
X149149753Y-113111494D02*
X149149753Y-113587684D01*
X149149753Y-113587684D02*
X148149753Y-113587684D01*
X148149753Y-113587684D02*
X148149753Y-113111494D01*
D13*
%TO.C,R7*%
X172072500Y-97037742D02*
X172072500Y-97512258D01*
X171027500Y-97037742D02*
X171027500Y-97512258D01*
%TO.C,TP22*%
X171794934Y-118080542D02*
X171794934Y-119480542D01*
X170394934Y-118080542D02*
X171794934Y-118080542D01*
X171794934Y-119480542D02*
X170394934Y-119480542D01*
X170394934Y-119480542D02*
X170394934Y-118080542D01*
%TO.C,TP15*%
X165944934Y-118080542D02*
X167344934Y-118080542D01*
X165944934Y-119480542D02*
X165944934Y-118080542D01*
X167344934Y-118080542D02*
X167344934Y-119480542D01*
X167344934Y-119480542D02*
X165944934Y-119480542D01*
%TO.C,C5*%
X172784934Y-100639962D02*
X172784934Y-100921122D01*
X173804934Y-100639962D02*
X173804934Y-100921122D01*
%TO.C,R6*%
X159172434Y-110267800D02*
X159172434Y-109793284D01*
X160217434Y-110267800D02*
X160217434Y-109793284D01*
%TO.C,R3*%
X143882676Y-94553042D02*
X144357192Y-94553042D01*
X143882676Y-93508042D02*
X144357192Y-93508042D01*
%TO.C,TP14*%
X165094934Y-118080542D02*
X165094934Y-119480542D01*
X163694934Y-118080542D02*
X165094934Y-118080542D01*
X165094934Y-119480542D02*
X163694934Y-119480542D01*
X163694934Y-119480542D02*
X163694934Y-118080542D01*
%TO.C,TP7*%
X153844934Y-118080542D02*
X153844934Y-119480542D01*
X152444934Y-118080542D02*
X153844934Y-118080542D01*
X153844934Y-119480542D02*
X152444934Y-119480542D01*
X152444934Y-119480542D02*
X152444934Y-118080542D01*
%TO.C,TP10*%
X158344934Y-118080542D02*
X158344934Y-119480542D01*
X156944934Y-118080542D02*
X158344934Y-118080542D01*
X158344934Y-119480542D02*
X156944934Y-119480542D01*
X156944934Y-119480542D02*
X156944934Y-118080542D01*
%TO.C,C3*%
X146534934Y-79421122D02*
X146534934Y-79139962D01*
X147554934Y-79421122D02*
X147554934Y-79139962D01*
%TO.C,TP9*%
X155844934Y-76330542D02*
X155844934Y-74930542D01*
X157244934Y-76330542D02*
X155844934Y-76330542D01*
X155844934Y-74930542D02*
X157244934Y-74930542D01*
X157244934Y-74930542D02*
X157244934Y-76330542D01*
%TO.C,TP8*%
X156094934Y-118080542D02*
X156094934Y-119480542D01*
X154694934Y-118080542D02*
X156094934Y-118080542D01*
X156094934Y-119480542D02*
X154694934Y-119480542D01*
X154694934Y-119480542D02*
X154694934Y-118080542D01*
%TO.C,TP16*%
X168194934Y-118080542D02*
X169594934Y-118080542D01*
X168194934Y-119480542D02*
X168194934Y-118080542D01*
X169594934Y-118080542D02*
X169594934Y-119480542D01*
X169594934Y-119480542D02*
X168194934Y-119480542D01*
%TO.C,TP13*%
X162844934Y-118080542D02*
X162844934Y-119480542D01*
X161444934Y-118080542D02*
X162844934Y-118080542D01*
X162844934Y-119480542D02*
X161444934Y-119480542D01*
X161444934Y-119480542D02*
X161444934Y-118080542D01*
%TO.C,R2*%
X143882676Y-102303042D02*
X144357192Y-102303042D01*
X143882676Y-101258042D02*
X144357192Y-101258042D01*
%TO.C,C2*%
X144784934Y-79396122D02*
X144784934Y-79114962D01*
X145804934Y-79396122D02*
X145804934Y-79114962D01*
%TO.C,C4*%
X171034934Y-100639962D02*
X171034934Y-100921122D01*
X172054934Y-100639962D02*
X172054934Y-100921122D01*
%TO.C,JP1*%
X150844934Y-110880542D02*
X150244934Y-110880542D01*
X152044934Y-110330542D02*
X152044934Y-109730542D01*
X149544934Y-110230542D02*
X149544934Y-107430542D01*
X151744934Y-110030542D02*
X152044934Y-110330542D01*
X151744934Y-110030542D02*
X152044934Y-109730542D01*
X151544934Y-107430542D02*
X151544934Y-110230542D01*
X150244934Y-106780542D02*
X150844934Y-106780542D01*
X150244934Y-110880542D02*
G75*
G02*
X149544934Y-110180542I-1J699999D01*
G01*
X151544934Y-110180542D02*
G75*
G02*
X150844934Y-110880542I-699999J-1D01*
G01*
X149544934Y-107480542D02*
G75*
G02*
X150244934Y-106780542I700000J0D01*
G01*
X150844934Y-106780542D02*
G75*
G02*
X151544934Y-107480542I0J-700000D01*
G01*
%TO.C,TP11*%
X159994934Y-74930542D02*
X159994934Y-76330542D01*
X158594934Y-74930542D02*
X159994934Y-74930542D01*
X159994934Y-76330542D02*
X158594934Y-76330542D01*
X158594934Y-76330542D02*
X158594934Y-74930542D01*
%TO.C,TP12*%
X160594934Y-118080542D02*
X160594934Y-119480542D01*
X159194934Y-118080542D02*
X160594934Y-118080542D01*
X160594934Y-119480542D02*
X159194934Y-119480542D01*
X159194934Y-119480542D02*
X159194934Y-118080542D01*
%TO.C,R5*%
X156522434Y-110267800D02*
X156522434Y-109793284D01*
X157567434Y-110267800D02*
X157567434Y-109793284D01*
%TO.C,R1*%
X143882676Y-104303042D02*
X144357192Y-104303042D01*
X143882676Y-103258042D02*
X144357192Y-103258042D01*
%TO.C,U1*%
X151434934Y-102140542D02*
X151434934Y-101440542D01*
X152134934Y-102140542D02*
X151434934Y-102140542D01*
X164954934Y-102140542D02*
X165654934Y-102140542D01*
X165654934Y-102140542D02*
X165654934Y-101440542D01*
X151434934Y-87920542D02*
X151434934Y-88620542D01*
X152134934Y-87920542D02*
X151434934Y-87920542D01*
X164954934Y-87920542D02*
X165654934Y-87920542D01*
X165654934Y-87920542D02*
X165654934Y-88620542D01*
X150844934Y-88620542D02*
X150504934Y-88150542D01*
X151184934Y-88150542D01*
X150844934Y-88620542D01*
G36*
X150844934Y-88620542D02*
G01*
X150504934Y-88150542D01*
X151184934Y-88150542D01*
X150844934Y-88620542D01*
G37*
%TO.C,C1*%
X143034934Y-79396122D02*
X143034934Y-79114962D01*
X144054934Y-79396122D02*
X144054934Y-79114962D01*
%TO.C,R4*%
X154272434Y-110267800D02*
X154272434Y-109793284D01*
X155317434Y-110267800D02*
X155317434Y-109793284D01*
%TO.C,TP6*%
X151594934Y-118080542D02*
X151594934Y-119480542D01*
X150194934Y-118080542D02*
X151594934Y-118080542D01*
X151594934Y-119480542D02*
X150194934Y-119480542D01*
X150194934Y-119480542D02*
X150194934Y-118080542D01*
%TO.C,TP5*%
X147944934Y-119480542D02*
X147944934Y-118080542D01*
X149344934Y-119480542D02*
X147944934Y-119480542D01*
X147944934Y-118080542D02*
X149344934Y-118080542D01*
X149344934Y-118080542D02*
X149344934Y-119480542D01*
%TD*%
M02*
