M48
; DRILL file {KiCad 8.0.6} date 2024-12-27T08:31:58-0600
; FORMAT={-:-/ absolute / metric / decimal}
; #@! TF.CreationDate,2024-12-27T08:31:58-06:00
; #@! TF.GenerationSoftware,Kicad,Pcbnew,8.0.6
; #@! TF.FileFunction,Plated,1,2,PTH
FMAT,2
METRIC
; #@! TA.AperFunction,Plated,PTH,ViaDrill
T1C0.300
; #@! TA.AperFunction,Plated,PTH,ComponentDrill
T2C0.300
; #@! TA.AperFunction,Plated,PTH,ViaDrill
T3C0.400
; #@! TA.AperFunction,Plated,PTH,ComponentDrill
T4C3.200
%
G90
G05
T1
X140.55Y-96.031
X141.295Y-85.131
X141.295Y-103.781
X141.55Y-96.05
X141.65Y-109.7
X141.795Y-105.281
X142.045Y-102.781
X142.045Y-114.531
X142.064Y-104.474
X142.65Y-86.081
X142.75Y-111.95
X143.795Y-98.031
X144.295Y-88.031
X144.95Y-106.15
X145.045Y-84.781
X145.045Y-85.781
X145.15Y-112.0
X146.295Y-102.781
X146.395Y-87.081
X147.345Y-86.431
X147.35Y-107.55
X148.045Y-103.431
X148.545Y-79.281
X149.745Y-86.181
X149.795Y-85.181
X150.045Y-83.031
X150.445Y-86.781
X150.624Y-87.612
X150.795Y-79.031
X150.795Y-103.031
X152.995Y-108.253
X153.295Y-89.031
X156.545Y-86.131
X156.692Y-80.82
X158.045Y-88.781
X159.245Y-85.927
X159.346Y-80.881
X161.545Y-101.281
X164.795Y-95.031
X167.045Y-103.031
X169.045Y-95.531
X169.045Y-102.281
T2
X138.645Y-69.531
X138.645Y-119.531
X139.325Y-67.871
X139.325Y-71.191
X139.335Y-117.871
X139.335Y-121.191
X140.985Y-67.181
X140.985Y-71.881
X140.995Y-117.181
X140.995Y-121.881
X142.645Y-67.871
X142.645Y-71.191
X142.655Y-117.871
X142.655Y-121.191
X143.345Y-69.531
X143.345Y-119.531
X174.195Y-69.531
X174.195Y-119.531
X174.885Y-67.871
X174.885Y-71.191
X174.885Y-117.871
X174.885Y-121.191
X176.545Y-67.181
X176.545Y-71.881
X176.545Y-117.181
X176.545Y-121.881
X178.205Y-67.871
X178.205Y-71.191
X178.205Y-117.871
X178.205Y-121.191
X178.895Y-69.531
X178.895Y-119.531
T3
X139.045Y-86.031
X139.045Y-94.031
X139.045Y-100.031
X139.045Y-101.031
X140.795Y-80.281
X141.545Y-83.031
X141.795Y-79.281
X143.295Y-84.381
X143.495Y-92.2
X143.545Y-77.531
X144.795Y-83.531
X145.295Y-77.531
X147.045Y-77.531
X147.295Y-85.031
X148.795Y-77.281
X148.995Y-94.031
X151.295Y-81.531
X152.295Y-94.031
X152.545Y-90.531
X153.045Y-85.531
X154.795Y-112.281
X156.045Y-100.531
X157.045Y-112.281
X159.545Y-112.281
X161.295Y-91.781
X161.545Y-105.031
X163.045Y-89.031
X164.295Y-106.031
X164.545Y-100.531
X171.545Y-102.781
X173.295Y-102.781
T4
X140.995Y-69.531
X140.995Y-119.531
X176.545Y-69.531
X176.545Y-119.531
M30
