%TF.GenerationSoftware,KiCad,Pcbnew,8.0.6*%
%TF.CreationDate,2024-12-24T13:29:52-06:00*%
%TF.ProjectId,RECESSIM-CW312T-SAM4C32,52454345-5353-4494-9d2d-435733313254,rev?*%
%TF.SameCoordinates,Original*%
%TF.FileFunction,Legend,Top*%
%TF.FilePolarity,Positive*%
%FSLAX46Y46*%
G04 Gerber Fmt 4.6, Leading zero omitted, Abs format (unit mm)*
G04 Created by KiCad (PCBNEW 8.0.6) date 2024-12-24 13:29:52*
%MOMM*%
%LPD*%
G01*
G04 APERTURE LIST*
%ADD10C,0.150000*%
%ADD11C,0.120000*%
G04 APERTURE END LIST*
D10*
X143204819Y-114738094D02*
X143204819Y-114166666D01*
X144204819Y-114452380D02*
X143204819Y-114452380D01*
X144204819Y-113833332D02*
X143204819Y-113833332D01*
X143204819Y-113833332D02*
X143204819Y-113452380D01*
X143204819Y-113452380D02*
X143252438Y-113357142D01*
X143252438Y-113357142D02*
X143300057Y-113309523D01*
X143300057Y-113309523D02*
X143395295Y-113261904D01*
X143395295Y-113261904D02*
X143538152Y-113261904D01*
X143538152Y-113261904D02*
X143633390Y-113309523D01*
X143633390Y-113309523D02*
X143681009Y-113357142D01*
X143681009Y-113357142D02*
X143728628Y-113452380D01*
X143728628Y-113452380D02*
X143728628Y-113833332D01*
X144204819Y-112309523D02*
X144204819Y-112880951D01*
X144204819Y-112595237D02*
X143204819Y-112595237D01*
X143204819Y-112595237D02*
X143347676Y-112690475D01*
X143347676Y-112690475D02*
X143442914Y-112785713D01*
X143442914Y-112785713D02*
X143490533Y-112880951D01*
X143204819Y-111404761D02*
X143204819Y-111880951D01*
X143204819Y-111880951D02*
X143681009Y-111928570D01*
X143681009Y-111928570D02*
X143633390Y-111880951D01*
X143633390Y-111880951D02*
X143585771Y-111785713D01*
X143585771Y-111785713D02*
X143585771Y-111547618D01*
X143585771Y-111547618D02*
X143633390Y-111452380D01*
X143633390Y-111452380D02*
X143681009Y-111404761D01*
X143681009Y-111404761D02*
X143776247Y-111357142D01*
X143776247Y-111357142D02*
X144014342Y-111357142D01*
X144014342Y-111357142D02*
X144109580Y-111404761D01*
X144109580Y-111404761D02*
X144157200Y-111452380D01*
X144157200Y-111452380D02*
X144204819Y-111547618D01*
X144204819Y-111547618D02*
X144204819Y-111785713D01*
X144204819Y-111785713D02*
X144157200Y-111880951D01*
X144157200Y-111880951D02*
X144109580Y-111928570D01*
X138204819Y-92511904D02*
X138204819Y-91940476D01*
X139204819Y-92226190D02*
X138204819Y-92226190D01*
X139204819Y-91607142D02*
X138204819Y-91607142D01*
X138204819Y-91607142D02*
X138204819Y-91226190D01*
X138204819Y-91226190D02*
X138252438Y-91130952D01*
X138252438Y-91130952D02*
X138300057Y-91083333D01*
X138300057Y-91083333D02*
X138395295Y-91035714D01*
X138395295Y-91035714D02*
X138538152Y-91035714D01*
X138538152Y-91035714D02*
X138633390Y-91083333D01*
X138633390Y-91083333D02*
X138681009Y-91130952D01*
X138681009Y-91130952D02*
X138728628Y-91226190D01*
X138728628Y-91226190D02*
X138728628Y-91607142D01*
X139204819Y-90083333D02*
X139204819Y-90654761D01*
X139204819Y-90369047D02*
X138204819Y-90369047D01*
X138204819Y-90369047D02*
X138347676Y-90464285D01*
X138347676Y-90464285D02*
X138442914Y-90559523D01*
X138442914Y-90559523D02*
X138490533Y-90654761D01*
X154333333Y-118859580D02*
X154285714Y-118907200D01*
X154285714Y-118907200D02*
X154142857Y-118954819D01*
X154142857Y-118954819D02*
X154047619Y-118954819D01*
X154047619Y-118954819D02*
X153904762Y-118907200D01*
X153904762Y-118907200D02*
X153809524Y-118811961D01*
X153809524Y-118811961D02*
X153761905Y-118716723D01*
X153761905Y-118716723D02*
X153714286Y-118526247D01*
X153714286Y-118526247D02*
X153714286Y-118383390D01*
X153714286Y-118383390D02*
X153761905Y-118192914D01*
X153761905Y-118192914D02*
X153809524Y-118097676D01*
X153809524Y-118097676D02*
X153904762Y-118002438D01*
X153904762Y-118002438D02*
X154047619Y-117954819D01*
X154047619Y-117954819D02*
X154142857Y-117954819D01*
X154142857Y-117954819D02*
X154285714Y-118002438D01*
X154285714Y-118002438D02*
X154333333Y-118050057D01*
X155238095Y-117954819D02*
X154761905Y-117954819D01*
X154761905Y-117954819D02*
X154714286Y-118431009D01*
X154714286Y-118431009D02*
X154761905Y-118383390D01*
X154761905Y-118383390D02*
X154857143Y-118335771D01*
X154857143Y-118335771D02*
X155095238Y-118335771D01*
X155095238Y-118335771D02*
X155190476Y-118383390D01*
X155190476Y-118383390D02*
X155238095Y-118431009D01*
X155238095Y-118431009D02*
X155285714Y-118526247D01*
X155285714Y-118526247D02*
X155285714Y-118764342D01*
X155285714Y-118764342D02*
X155238095Y-118859580D01*
X155238095Y-118859580D02*
X155190476Y-118907200D01*
X155190476Y-118907200D02*
X155095238Y-118954819D01*
X155095238Y-118954819D02*
X154857143Y-118954819D01*
X154857143Y-118954819D02*
X154761905Y-118907200D01*
X154761905Y-118907200D02*
X154714286Y-118859580D01*
X144954819Y-92511904D02*
X144954819Y-91940476D01*
X145954819Y-92226190D02*
X144954819Y-92226190D01*
X145954819Y-91607142D02*
X144954819Y-91607142D01*
X144954819Y-91607142D02*
X144954819Y-91226190D01*
X144954819Y-91226190D02*
X145002438Y-91130952D01*
X145002438Y-91130952D02*
X145050057Y-91083333D01*
X145050057Y-91083333D02*
X145145295Y-91035714D01*
X145145295Y-91035714D02*
X145288152Y-91035714D01*
X145288152Y-91035714D02*
X145383390Y-91083333D01*
X145383390Y-91083333D02*
X145431009Y-91130952D01*
X145431009Y-91130952D02*
X145478628Y-91226190D01*
X145478628Y-91226190D02*
X145478628Y-91607142D01*
X145288152Y-90178571D02*
X145954819Y-90178571D01*
X144907200Y-90416666D02*
X145621485Y-90654761D01*
X145621485Y-90654761D02*
X145621485Y-90035714D01*
X145083333Y-105204819D02*
X144750000Y-104728628D01*
X144511905Y-105204819D02*
X144511905Y-104204819D01*
X144511905Y-104204819D02*
X144892857Y-104204819D01*
X144892857Y-104204819D02*
X144988095Y-104252438D01*
X144988095Y-104252438D02*
X145035714Y-104300057D01*
X145035714Y-104300057D02*
X145083333Y-104395295D01*
X145083333Y-104395295D02*
X145083333Y-104538152D01*
X145083333Y-104538152D02*
X145035714Y-104633390D01*
X145035714Y-104633390D02*
X144988095Y-104681009D01*
X144988095Y-104681009D02*
X144892857Y-104728628D01*
X144892857Y-104728628D02*
X144511905Y-104728628D01*
X145940476Y-104204819D02*
X145750000Y-104204819D01*
X145750000Y-104204819D02*
X145654762Y-104252438D01*
X145654762Y-104252438D02*
X145607143Y-104300057D01*
X145607143Y-104300057D02*
X145511905Y-104442914D01*
X145511905Y-104442914D02*
X145464286Y-104633390D01*
X145464286Y-104633390D02*
X145464286Y-105014342D01*
X145464286Y-105014342D02*
X145511905Y-105109580D01*
X145511905Y-105109580D02*
X145559524Y-105157200D01*
X145559524Y-105157200D02*
X145654762Y-105204819D01*
X145654762Y-105204819D02*
X145845238Y-105204819D01*
X145845238Y-105204819D02*
X145940476Y-105157200D01*
X145940476Y-105157200D02*
X145988095Y-105109580D01*
X145988095Y-105109580D02*
X146035714Y-105014342D01*
X146035714Y-105014342D02*
X146035714Y-104776247D01*
X146035714Y-104776247D02*
X145988095Y-104681009D01*
X145988095Y-104681009D02*
X145940476Y-104633390D01*
X145940476Y-104633390D02*
X145845238Y-104585771D01*
X145845238Y-104585771D02*
X145654762Y-104585771D01*
X145654762Y-104585771D02*
X145559524Y-104633390D01*
X145559524Y-104633390D02*
X145511905Y-104681009D01*
X145511905Y-104681009D02*
X145464286Y-104776247D01*
X158954819Y-92166666D02*
X158478628Y-92499999D01*
X158954819Y-92738094D02*
X157954819Y-92738094D01*
X157954819Y-92738094D02*
X157954819Y-92357142D01*
X157954819Y-92357142D02*
X158002438Y-92261904D01*
X158002438Y-92261904D02*
X158050057Y-92214285D01*
X158050057Y-92214285D02*
X158145295Y-92166666D01*
X158145295Y-92166666D02*
X158288152Y-92166666D01*
X158288152Y-92166666D02*
X158383390Y-92214285D01*
X158383390Y-92214285D02*
X158431009Y-92261904D01*
X158431009Y-92261904D02*
X158478628Y-92357142D01*
X158478628Y-92357142D02*
X158478628Y-92738094D01*
X157954819Y-91833332D02*
X157954819Y-91214285D01*
X157954819Y-91214285D02*
X158335771Y-91547618D01*
X158335771Y-91547618D02*
X158335771Y-91404761D01*
X158335771Y-91404761D02*
X158383390Y-91309523D01*
X158383390Y-91309523D02*
X158431009Y-91261904D01*
X158431009Y-91261904D02*
X158526247Y-91214285D01*
X158526247Y-91214285D02*
X158764342Y-91214285D01*
X158764342Y-91214285D02*
X158859580Y-91261904D01*
X158859580Y-91261904D02*
X158907200Y-91309523D01*
X158907200Y-91309523D02*
X158954819Y-91404761D01*
X158954819Y-91404761D02*
X158954819Y-91690475D01*
X158954819Y-91690475D02*
X158907200Y-91785713D01*
X158907200Y-91785713D02*
X158859580Y-91833332D01*
X129261905Y-109954819D02*
X129833333Y-109954819D01*
X129547619Y-110954819D02*
X129547619Y-109954819D01*
X130166667Y-110954819D02*
X130166667Y-109954819D01*
X130166667Y-109954819D02*
X130547619Y-109954819D01*
X130547619Y-109954819D02*
X130642857Y-110002438D01*
X130642857Y-110002438D02*
X130690476Y-110050057D01*
X130690476Y-110050057D02*
X130738095Y-110145295D01*
X130738095Y-110145295D02*
X130738095Y-110288152D01*
X130738095Y-110288152D02*
X130690476Y-110383390D01*
X130690476Y-110383390D02*
X130642857Y-110431009D01*
X130642857Y-110431009D02*
X130547619Y-110478628D01*
X130547619Y-110478628D02*
X130166667Y-110478628D01*
X131690476Y-110954819D02*
X131119048Y-110954819D01*
X131404762Y-110954819D02*
X131404762Y-109954819D01*
X131404762Y-109954819D02*
X131309524Y-110097676D01*
X131309524Y-110097676D02*
X131214286Y-110192914D01*
X131214286Y-110192914D02*
X131119048Y-110240533D01*
X132547619Y-110288152D02*
X132547619Y-110954819D01*
X132309524Y-109907200D02*
X132071429Y-110621485D01*
X132071429Y-110621485D02*
X132690476Y-110621485D01*
X129488095Y-98704819D02*
X130059523Y-98704819D01*
X129773809Y-99704819D02*
X129773809Y-98704819D01*
X130392857Y-99704819D02*
X130392857Y-98704819D01*
X130392857Y-98704819D02*
X130773809Y-98704819D01*
X130773809Y-98704819D02*
X130869047Y-98752438D01*
X130869047Y-98752438D02*
X130916666Y-98800057D01*
X130916666Y-98800057D02*
X130964285Y-98895295D01*
X130964285Y-98895295D02*
X130964285Y-99038152D01*
X130964285Y-99038152D02*
X130916666Y-99133390D01*
X130916666Y-99133390D02*
X130869047Y-99181009D01*
X130869047Y-99181009D02*
X130773809Y-99228628D01*
X130773809Y-99228628D02*
X130392857Y-99228628D01*
X131297619Y-98704819D02*
X131964285Y-98704819D01*
X131964285Y-98704819D02*
X131535714Y-99704819D01*
X129011905Y-103454819D02*
X129583333Y-103454819D01*
X129297619Y-104454819D02*
X129297619Y-103454819D01*
X129916667Y-104454819D02*
X129916667Y-103454819D01*
X129916667Y-103454819D02*
X130297619Y-103454819D01*
X130297619Y-103454819D02*
X130392857Y-103502438D01*
X130392857Y-103502438D02*
X130440476Y-103550057D01*
X130440476Y-103550057D02*
X130488095Y-103645295D01*
X130488095Y-103645295D02*
X130488095Y-103788152D01*
X130488095Y-103788152D02*
X130440476Y-103883390D01*
X130440476Y-103883390D02*
X130392857Y-103931009D01*
X130392857Y-103931009D02*
X130297619Y-103978628D01*
X130297619Y-103978628D02*
X129916667Y-103978628D01*
X131440476Y-104454819D02*
X130869048Y-104454819D01*
X131154762Y-104454819D02*
X131154762Y-103454819D01*
X131154762Y-103454819D02*
X131059524Y-103597676D01*
X131059524Y-103597676D02*
X130964286Y-103692914D01*
X130964286Y-103692914D02*
X130869048Y-103740533D01*
X132059524Y-103454819D02*
X132154762Y-103454819D01*
X132154762Y-103454819D02*
X132250000Y-103502438D01*
X132250000Y-103502438D02*
X132297619Y-103550057D01*
X132297619Y-103550057D02*
X132345238Y-103645295D01*
X132345238Y-103645295D02*
X132392857Y-103835771D01*
X132392857Y-103835771D02*
X132392857Y-104073866D01*
X132392857Y-104073866D02*
X132345238Y-104264342D01*
X132345238Y-104264342D02*
X132297619Y-104359580D01*
X132297619Y-104359580D02*
X132250000Y-104407200D01*
X132250000Y-104407200D02*
X132154762Y-104454819D01*
X132154762Y-104454819D02*
X132059524Y-104454819D01*
X132059524Y-104454819D02*
X131964286Y-104407200D01*
X131964286Y-104407200D02*
X131916667Y-104359580D01*
X131916667Y-104359580D02*
X131869048Y-104264342D01*
X131869048Y-104264342D02*
X131821429Y-104073866D01*
X131821429Y-104073866D02*
X131821429Y-103835771D01*
X131821429Y-103835771D02*
X131869048Y-103645295D01*
X131869048Y-103645295D02*
X131916667Y-103550057D01*
X131916667Y-103550057D02*
X131964286Y-103502438D01*
X131964286Y-103502438D02*
X132059524Y-103454819D01*
X176333333Y-92609580D02*
X176285714Y-92657200D01*
X176285714Y-92657200D02*
X176142857Y-92704819D01*
X176142857Y-92704819D02*
X176047619Y-92704819D01*
X176047619Y-92704819D02*
X175904762Y-92657200D01*
X175904762Y-92657200D02*
X175809524Y-92561961D01*
X175809524Y-92561961D02*
X175761905Y-92466723D01*
X175761905Y-92466723D02*
X175714286Y-92276247D01*
X175714286Y-92276247D02*
X175714286Y-92133390D01*
X175714286Y-92133390D02*
X175761905Y-91942914D01*
X175761905Y-91942914D02*
X175809524Y-91847676D01*
X175809524Y-91847676D02*
X175904762Y-91752438D01*
X175904762Y-91752438D02*
X176047619Y-91704819D01*
X176047619Y-91704819D02*
X176142857Y-91704819D01*
X176142857Y-91704819D02*
X176285714Y-91752438D01*
X176285714Y-91752438D02*
X176333333Y-91800057D01*
X176666667Y-91704819D02*
X177285714Y-91704819D01*
X177285714Y-91704819D02*
X176952381Y-92085771D01*
X176952381Y-92085771D02*
X177095238Y-92085771D01*
X177095238Y-92085771D02*
X177190476Y-92133390D01*
X177190476Y-92133390D02*
X177238095Y-92181009D01*
X177238095Y-92181009D02*
X177285714Y-92276247D01*
X177285714Y-92276247D02*
X177285714Y-92514342D01*
X177285714Y-92514342D02*
X177238095Y-92609580D01*
X177238095Y-92609580D02*
X177190476Y-92657200D01*
X177190476Y-92657200D02*
X177095238Y-92704819D01*
X177095238Y-92704819D02*
X176809524Y-92704819D01*
X176809524Y-92704819D02*
X176714286Y-92657200D01*
X176714286Y-92657200D02*
X176666667Y-92609580D01*
X180488095Y-101204819D02*
X181059523Y-101204819D01*
X180773809Y-102204819D02*
X180773809Y-101204819D01*
X181392857Y-102204819D02*
X181392857Y-101204819D01*
X181392857Y-101204819D02*
X181773809Y-101204819D01*
X181773809Y-101204819D02*
X181869047Y-101252438D01*
X181869047Y-101252438D02*
X181916666Y-101300057D01*
X181916666Y-101300057D02*
X181964285Y-101395295D01*
X181964285Y-101395295D02*
X181964285Y-101538152D01*
X181964285Y-101538152D02*
X181916666Y-101633390D01*
X181916666Y-101633390D02*
X181869047Y-101681009D01*
X181869047Y-101681009D02*
X181773809Y-101728628D01*
X181773809Y-101728628D02*
X181392857Y-101728628D01*
X182440476Y-102204819D02*
X182630952Y-102204819D01*
X182630952Y-102204819D02*
X182726190Y-102157200D01*
X182726190Y-102157200D02*
X182773809Y-102109580D01*
X182773809Y-102109580D02*
X182869047Y-101966723D01*
X182869047Y-101966723D02*
X182916666Y-101776247D01*
X182916666Y-101776247D02*
X182916666Y-101395295D01*
X182916666Y-101395295D02*
X182869047Y-101300057D01*
X182869047Y-101300057D02*
X182821428Y-101252438D01*
X182821428Y-101252438D02*
X182726190Y-101204819D01*
X182726190Y-101204819D02*
X182535714Y-101204819D01*
X182535714Y-101204819D02*
X182440476Y-101252438D01*
X182440476Y-101252438D02*
X182392857Y-101300057D01*
X182392857Y-101300057D02*
X182345238Y-101395295D01*
X182345238Y-101395295D02*
X182345238Y-101633390D01*
X182345238Y-101633390D02*
X182392857Y-101728628D01*
X182392857Y-101728628D02*
X182440476Y-101776247D01*
X182440476Y-101776247D02*
X182535714Y-101823866D01*
X182535714Y-101823866D02*
X182726190Y-101823866D01*
X182726190Y-101823866D02*
X182821428Y-101776247D01*
X182821428Y-101776247D02*
X182869047Y-101728628D01*
X182869047Y-101728628D02*
X182916666Y-101633390D01*
X129488095Y-101204819D02*
X130059523Y-101204819D01*
X129773809Y-102204819D02*
X129773809Y-101204819D01*
X130392857Y-102204819D02*
X130392857Y-101204819D01*
X130392857Y-101204819D02*
X130773809Y-101204819D01*
X130773809Y-101204819D02*
X130869047Y-101252438D01*
X130869047Y-101252438D02*
X130916666Y-101300057D01*
X130916666Y-101300057D02*
X130964285Y-101395295D01*
X130964285Y-101395295D02*
X130964285Y-101538152D01*
X130964285Y-101538152D02*
X130916666Y-101633390D01*
X130916666Y-101633390D02*
X130869047Y-101681009D01*
X130869047Y-101681009D02*
X130773809Y-101728628D01*
X130773809Y-101728628D02*
X130392857Y-101728628D01*
X131535714Y-101633390D02*
X131440476Y-101585771D01*
X131440476Y-101585771D02*
X131392857Y-101538152D01*
X131392857Y-101538152D02*
X131345238Y-101442914D01*
X131345238Y-101442914D02*
X131345238Y-101395295D01*
X131345238Y-101395295D02*
X131392857Y-101300057D01*
X131392857Y-101300057D02*
X131440476Y-101252438D01*
X131440476Y-101252438D02*
X131535714Y-101204819D01*
X131535714Y-101204819D02*
X131726190Y-101204819D01*
X131726190Y-101204819D02*
X131821428Y-101252438D01*
X131821428Y-101252438D02*
X131869047Y-101300057D01*
X131869047Y-101300057D02*
X131916666Y-101395295D01*
X131916666Y-101395295D02*
X131916666Y-101442914D01*
X131916666Y-101442914D02*
X131869047Y-101538152D01*
X131869047Y-101538152D02*
X131821428Y-101585771D01*
X131821428Y-101585771D02*
X131726190Y-101633390D01*
X131726190Y-101633390D02*
X131535714Y-101633390D01*
X131535714Y-101633390D02*
X131440476Y-101681009D01*
X131440476Y-101681009D02*
X131392857Y-101728628D01*
X131392857Y-101728628D02*
X131345238Y-101823866D01*
X131345238Y-101823866D02*
X131345238Y-102014342D01*
X131345238Y-102014342D02*
X131392857Y-102109580D01*
X131392857Y-102109580D02*
X131440476Y-102157200D01*
X131440476Y-102157200D02*
X131535714Y-102204819D01*
X131535714Y-102204819D02*
X131726190Y-102204819D01*
X131726190Y-102204819D02*
X131821428Y-102157200D01*
X131821428Y-102157200D02*
X131869047Y-102109580D01*
X131869047Y-102109580D02*
X131916666Y-102014342D01*
X131916666Y-102014342D02*
X131916666Y-101823866D01*
X131916666Y-101823866D02*
X131869047Y-101728628D01*
X131869047Y-101728628D02*
X131821428Y-101681009D01*
X131821428Y-101681009D02*
X131726190Y-101633390D01*
X140454819Y-92511904D02*
X140454819Y-91940476D01*
X141454819Y-92226190D02*
X140454819Y-92226190D01*
X141454819Y-91607142D02*
X140454819Y-91607142D01*
X140454819Y-91607142D02*
X140454819Y-91226190D01*
X140454819Y-91226190D02*
X140502438Y-91130952D01*
X140502438Y-91130952D02*
X140550057Y-91083333D01*
X140550057Y-91083333D02*
X140645295Y-91035714D01*
X140645295Y-91035714D02*
X140788152Y-91035714D01*
X140788152Y-91035714D02*
X140883390Y-91083333D01*
X140883390Y-91083333D02*
X140931009Y-91130952D01*
X140931009Y-91130952D02*
X140978628Y-91226190D01*
X140978628Y-91226190D02*
X140978628Y-91607142D01*
X140550057Y-90654761D02*
X140502438Y-90607142D01*
X140502438Y-90607142D02*
X140454819Y-90511904D01*
X140454819Y-90511904D02*
X140454819Y-90273809D01*
X140454819Y-90273809D02*
X140502438Y-90178571D01*
X140502438Y-90178571D02*
X140550057Y-90130952D01*
X140550057Y-90130952D02*
X140645295Y-90083333D01*
X140645295Y-90083333D02*
X140740533Y-90083333D01*
X140740533Y-90083333D02*
X140883390Y-90130952D01*
X140883390Y-90130952D02*
X141454819Y-90702380D01*
X141454819Y-90702380D02*
X141454819Y-90083333D01*
X145454819Y-114738094D02*
X145454819Y-114166666D01*
X146454819Y-114452380D02*
X145454819Y-114452380D01*
X146454819Y-113833332D02*
X145454819Y-113833332D01*
X145454819Y-113833332D02*
X145454819Y-113452380D01*
X145454819Y-113452380D02*
X145502438Y-113357142D01*
X145502438Y-113357142D02*
X145550057Y-113309523D01*
X145550057Y-113309523D02*
X145645295Y-113261904D01*
X145645295Y-113261904D02*
X145788152Y-113261904D01*
X145788152Y-113261904D02*
X145883390Y-113309523D01*
X145883390Y-113309523D02*
X145931009Y-113357142D01*
X145931009Y-113357142D02*
X145978628Y-113452380D01*
X145978628Y-113452380D02*
X145978628Y-113833332D01*
X146454819Y-112309523D02*
X146454819Y-112880951D01*
X146454819Y-112595237D02*
X145454819Y-112595237D01*
X145454819Y-112595237D02*
X145597676Y-112690475D01*
X145597676Y-112690475D02*
X145692914Y-112785713D01*
X145692914Y-112785713D02*
X145740533Y-112880951D01*
X145454819Y-111452380D02*
X145454819Y-111642856D01*
X145454819Y-111642856D02*
X145502438Y-111738094D01*
X145502438Y-111738094D02*
X145550057Y-111785713D01*
X145550057Y-111785713D02*
X145692914Y-111880951D01*
X145692914Y-111880951D02*
X145883390Y-111928570D01*
X145883390Y-111928570D02*
X146264342Y-111928570D01*
X146264342Y-111928570D02*
X146359580Y-111880951D01*
X146359580Y-111880951D02*
X146407200Y-111833332D01*
X146407200Y-111833332D02*
X146454819Y-111738094D01*
X146454819Y-111738094D02*
X146454819Y-111547618D01*
X146454819Y-111547618D02*
X146407200Y-111452380D01*
X146407200Y-111452380D02*
X146359580Y-111404761D01*
X146359580Y-111404761D02*
X146264342Y-111357142D01*
X146264342Y-111357142D02*
X146026247Y-111357142D01*
X146026247Y-111357142D02*
X145931009Y-111404761D01*
X145931009Y-111404761D02*
X145883390Y-111452380D01*
X145883390Y-111452380D02*
X145835771Y-111547618D01*
X145835771Y-111547618D02*
X145835771Y-111738094D01*
X145835771Y-111738094D02*
X145883390Y-111833332D01*
X145883390Y-111833332D02*
X145931009Y-111880951D01*
X145931009Y-111880951D02*
X146026247Y-111928570D01*
X129261905Y-107704819D02*
X129833333Y-107704819D01*
X129547619Y-108704819D02*
X129547619Y-107704819D01*
X130166667Y-108704819D02*
X130166667Y-107704819D01*
X130166667Y-107704819D02*
X130547619Y-107704819D01*
X130547619Y-107704819D02*
X130642857Y-107752438D01*
X130642857Y-107752438D02*
X130690476Y-107800057D01*
X130690476Y-107800057D02*
X130738095Y-107895295D01*
X130738095Y-107895295D02*
X130738095Y-108038152D01*
X130738095Y-108038152D02*
X130690476Y-108133390D01*
X130690476Y-108133390D02*
X130642857Y-108181009D01*
X130642857Y-108181009D02*
X130547619Y-108228628D01*
X130547619Y-108228628D02*
X130166667Y-108228628D01*
X131690476Y-108704819D02*
X131119048Y-108704819D01*
X131404762Y-108704819D02*
X131404762Y-107704819D01*
X131404762Y-107704819D02*
X131309524Y-107847676D01*
X131309524Y-107847676D02*
X131214286Y-107942914D01*
X131214286Y-107942914D02*
X131119048Y-107990533D01*
X132023810Y-107704819D02*
X132642857Y-107704819D01*
X132642857Y-107704819D02*
X132309524Y-108085771D01*
X132309524Y-108085771D02*
X132452381Y-108085771D01*
X132452381Y-108085771D02*
X132547619Y-108133390D01*
X132547619Y-108133390D02*
X132595238Y-108181009D01*
X132595238Y-108181009D02*
X132642857Y-108276247D01*
X132642857Y-108276247D02*
X132642857Y-108514342D01*
X132642857Y-108514342D02*
X132595238Y-108609580D01*
X132595238Y-108609580D02*
X132547619Y-108657200D01*
X132547619Y-108657200D02*
X132452381Y-108704819D01*
X132452381Y-108704819D02*
X132166667Y-108704819D01*
X132166667Y-108704819D02*
X132071429Y-108657200D01*
X132071429Y-108657200D02*
X132023810Y-108609580D01*
X151204819Y-92241666D02*
X150728628Y-92574999D01*
X151204819Y-92813094D02*
X150204819Y-92813094D01*
X150204819Y-92813094D02*
X150204819Y-92432142D01*
X150204819Y-92432142D02*
X150252438Y-92336904D01*
X150252438Y-92336904D02*
X150300057Y-92289285D01*
X150300057Y-92289285D02*
X150395295Y-92241666D01*
X150395295Y-92241666D02*
X150538152Y-92241666D01*
X150538152Y-92241666D02*
X150633390Y-92289285D01*
X150633390Y-92289285D02*
X150681009Y-92336904D01*
X150681009Y-92336904D02*
X150728628Y-92432142D01*
X150728628Y-92432142D02*
X150728628Y-92813094D01*
X150300057Y-91860713D02*
X150252438Y-91813094D01*
X150252438Y-91813094D02*
X150204819Y-91717856D01*
X150204819Y-91717856D02*
X150204819Y-91479761D01*
X150204819Y-91479761D02*
X150252438Y-91384523D01*
X150252438Y-91384523D02*
X150300057Y-91336904D01*
X150300057Y-91336904D02*
X150395295Y-91289285D01*
X150395295Y-91289285D02*
X150490533Y-91289285D01*
X150490533Y-91289285D02*
X150633390Y-91336904D01*
X150633390Y-91336904D02*
X151204819Y-91908332D01*
X151204819Y-91908332D02*
X151204819Y-91289285D01*
X176333333Y-90859580D02*
X176285714Y-90907200D01*
X176285714Y-90907200D02*
X176142857Y-90954819D01*
X176142857Y-90954819D02*
X176047619Y-90954819D01*
X176047619Y-90954819D02*
X175904762Y-90907200D01*
X175904762Y-90907200D02*
X175809524Y-90811961D01*
X175809524Y-90811961D02*
X175761905Y-90716723D01*
X175761905Y-90716723D02*
X175714286Y-90526247D01*
X175714286Y-90526247D02*
X175714286Y-90383390D01*
X175714286Y-90383390D02*
X175761905Y-90192914D01*
X175761905Y-90192914D02*
X175809524Y-90097676D01*
X175809524Y-90097676D02*
X175904762Y-90002438D01*
X175904762Y-90002438D02*
X176047619Y-89954819D01*
X176047619Y-89954819D02*
X176142857Y-89954819D01*
X176142857Y-89954819D02*
X176285714Y-90002438D01*
X176285714Y-90002438D02*
X176333333Y-90050057D01*
X176714286Y-90050057D02*
X176761905Y-90002438D01*
X176761905Y-90002438D02*
X176857143Y-89954819D01*
X176857143Y-89954819D02*
X177095238Y-89954819D01*
X177095238Y-89954819D02*
X177190476Y-90002438D01*
X177190476Y-90002438D02*
X177238095Y-90050057D01*
X177238095Y-90050057D02*
X177285714Y-90145295D01*
X177285714Y-90145295D02*
X177285714Y-90240533D01*
X177285714Y-90240533D02*
X177238095Y-90383390D01*
X177238095Y-90383390D02*
X176666667Y-90954819D01*
X176666667Y-90954819D02*
X177285714Y-90954819D01*
X154358333Y-117109580D02*
X154310714Y-117157200D01*
X154310714Y-117157200D02*
X154167857Y-117204819D01*
X154167857Y-117204819D02*
X154072619Y-117204819D01*
X154072619Y-117204819D02*
X153929762Y-117157200D01*
X153929762Y-117157200D02*
X153834524Y-117061961D01*
X153834524Y-117061961D02*
X153786905Y-116966723D01*
X153786905Y-116966723D02*
X153739286Y-116776247D01*
X153739286Y-116776247D02*
X153739286Y-116633390D01*
X153739286Y-116633390D02*
X153786905Y-116442914D01*
X153786905Y-116442914D02*
X153834524Y-116347676D01*
X153834524Y-116347676D02*
X153929762Y-116252438D01*
X153929762Y-116252438D02*
X154072619Y-116204819D01*
X154072619Y-116204819D02*
X154167857Y-116204819D01*
X154167857Y-116204819D02*
X154310714Y-116252438D01*
X154310714Y-116252438D02*
X154358333Y-116300057D01*
X155215476Y-116538152D02*
X155215476Y-117204819D01*
X154977381Y-116157200D02*
X154739286Y-116871485D01*
X154739286Y-116871485D02*
X155358333Y-116871485D01*
X146666666Y-95204819D02*
X146666666Y-95919104D01*
X146666666Y-95919104D02*
X146619047Y-96061961D01*
X146619047Y-96061961D02*
X146523809Y-96157200D01*
X146523809Y-96157200D02*
X146380952Y-96204819D01*
X146380952Y-96204819D02*
X146285714Y-96204819D01*
X147142857Y-96204819D02*
X147142857Y-95204819D01*
X147142857Y-95204819D02*
X147523809Y-95204819D01*
X147523809Y-95204819D02*
X147619047Y-95252438D01*
X147619047Y-95252438D02*
X147666666Y-95300057D01*
X147666666Y-95300057D02*
X147714285Y-95395295D01*
X147714285Y-95395295D02*
X147714285Y-95538152D01*
X147714285Y-95538152D02*
X147666666Y-95633390D01*
X147666666Y-95633390D02*
X147619047Y-95681009D01*
X147619047Y-95681009D02*
X147523809Y-95728628D01*
X147523809Y-95728628D02*
X147142857Y-95728628D01*
X148666666Y-96204819D02*
X148095238Y-96204819D01*
X148380952Y-96204819D02*
X148380952Y-95204819D01*
X148380952Y-95204819D02*
X148285714Y-95347676D01*
X148285714Y-95347676D02*
X148190476Y-95442914D01*
X148190476Y-95442914D02*
X148095238Y-95490533D01*
X180011905Y-104204819D02*
X180583333Y-104204819D01*
X180297619Y-105204819D02*
X180297619Y-104204819D01*
X180916667Y-105204819D02*
X180916667Y-104204819D01*
X180916667Y-104204819D02*
X181297619Y-104204819D01*
X181297619Y-104204819D02*
X181392857Y-104252438D01*
X181392857Y-104252438D02*
X181440476Y-104300057D01*
X181440476Y-104300057D02*
X181488095Y-104395295D01*
X181488095Y-104395295D02*
X181488095Y-104538152D01*
X181488095Y-104538152D02*
X181440476Y-104633390D01*
X181440476Y-104633390D02*
X181392857Y-104681009D01*
X181392857Y-104681009D02*
X181297619Y-104728628D01*
X181297619Y-104728628D02*
X180916667Y-104728628D01*
X182440476Y-105204819D02*
X181869048Y-105204819D01*
X182154762Y-105204819D02*
X182154762Y-104204819D01*
X182154762Y-104204819D02*
X182059524Y-104347676D01*
X182059524Y-104347676D02*
X181964286Y-104442914D01*
X181964286Y-104442914D02*
X181869048Y-104490533D01*
X183392857Y-105204819D02*
X182821429Y-105204819D01*
X183107143Y-105204819D02*
X183107143Y-104204819D01*
X183107143Y-104204819D02*
X183011905Y-104347676D01*
X183011905Y-104347676D02*
X182916667Y-104442914D01*
X182916667Y-104442914D02*
X182821429Y-104490533D01*
X129011905Y-105454819D02*
X129583333Y-105454819D01*
X129297619Y-106454819D02*
X129297619Y-105454819D01*
X129916667Y-106454819D02*
X129916667Y-105454819D01*
X129916667Y-105454819D02*
X130297619Y-105454819D01*
X130297619Y-105454819D02*
X130392857Y-105502438D01*
X130392857Y-105502438D02*
X130440476Y-105550057D01*
X130440476Y-105550057D02*
X130488095Y-105645295D01*
X130488095Y-105645295D02*
X130488095Y-105788152D01*
X130488095Y-105788152D02*
X130440476Y-105883390D01*
X130440476Y-105883390D02*
X130392857Y-105931009D01*
X130392857Y-105931009D02*
X130297619Y-105978628D01*
X130297619Y-105978628D02*
X129916667Y-105978628D01*
X131440476Y-106454819D02*
X130869048Y-106454819D01*
X131154762Y-106454819D02*
X131154762Y-105454819D01*
X131154762Y-105454819D02*
X131059524Y-105597676D01*
X131059524Y-105597676D02*
X130964286Y-105692914D01*
X130964286Y-105692914D02*
X130869048Y-105740533D01*
X131821429Y-105550057D02*
X131869048Y-105502438D01*
X131869048Y-105502438D02*
X131964286Y-105454819D01*
X131964286Y-105454819D02*
X132202381Y-105454819D01*
X132202381Y-105454819D02*
X132297619Y-105502438D01*
X132297619Y-105502438D02*
X132345238Y-105550057D01*
X132345238Y-105550057D02*
X132392857Y-105645295D01*
X132392857Y-105645295D02*
X132392857Y-105740533D01*
X132392857Y-105740533D02*
X132345238Y-105883390D01*
X132345238Y-105883390D02*
X131773810Y-106454819D01*
X131773810Y-106454819D02*
X132392857Y-106454819D01*
X145083333Y-102704819D02*
X144750000Y-102228628D01*
X144511905Y-102704819D02*
X144511905Y-101704819D01*
X144511905Y-101704819D02*
X144892857Y-101704819D01*
X144892857Y-101704819D02*
X144988095Y-101752438D01*
X144988095Y-101752438D02*
X145035714Y-101800057D01*
X145035714Y-101800057D02*
X145083333Y-101895295D01*
X145083333Y-101895295D02*
X145083333Y-102038152D01*
X145083333Y-102038152D02*
X145035714Y-102133390D01*
X145035714Y-102133390D02*
X144988095Y-102181009D01*
X144988095Y-102181009D02*
X144892857Y-102228628D01*
X144892857Y-102228628D02*
X144511905Y-102228628D01*
X145988095Y-101704819D02*
X145511905Y-101704819D01*
X145511905Y-101704819D02*
X145464286Y-102181009D01*
X145464286Y-102181009D02*
X145511905Y-102133390D01*
X145511905Y-102133390D02*
X145607143Y-102085771D01*
X145607143Y-102085771D02*
X145845238Y-102085771D01*
X145845238Y-102085771D02*
X145940476Y-102133390D01*
X145940476Y-102133390D02*
X145988095Y-102181009D01*
X145988095Y-102181009D02*
X146035714Y-102276247D01*
X146035714Y-102276247D02*
X146035714Y-102514342D01*
X146035714Y-102514342D02*
X145988095Y-102609580D01*
X145988095Y-102609580D02*
X145940476Y-102657200D01*
X145940476Y-102657200D02*
X145845238Y-102704819D01*
X145845238Y-102704819D02*
X145607143Y-102704819D01*
X145607143Y-102704819D02*
X145511905Y-102657200D01*
X145511905Y-102657200D02*
X145464286Y-102609580D01*
X149204819Y-92166666D02*
X148728628Y-92499999D01*
X149204819Y-92738094D02*
X148204819Y-92738094D01*
X148204819Y-92738094D02*
X148204819Y-92357142D01*
X148204819Y-92357142D02*
X148252438Y-92261904D01*
X148252438Y-92261904D02*
X148300057Y-92214285D01*
X148300057Y-92214285D02*
X148395295Y-92166666D01*
X148395295Y-92166666D02*
X148538152Y-92166666D01*
X148538152Y-92166666D02*
X148633390Y-92214285D01*
X148633390Y-92214285D02*
X148681009Y-92261904D01*
X148681009Y-92261904D02*
X148728628Y-92357142D01*
X148728628Y-92357142D02*
X148728628Y-92738094D01*
X149204819Y-91214285D02*
X149204819Y-91785713D01*
X149204819Y-91499999D02*
X148204819Y-91499999D01*
X148204819Y-91499999D02*
X148347676Y-91595237D01*
X148347676Y-91595237D02*
X148442914Y-91690475D01*
X148442914Y-91690475D02*
X148490533Y-91785713D01*
X162738095Y-93704819D02*
X162738095Y-94514342D01*
X162738095Y-94514342D02*
X162785714Y-94609580D01*
X162785714Y-94609580D02*
X162833333Y-94657200D01*
X162833333Y-94657200D02*
X162928571Y-94704819D01*
X162928571Y-94704819D02*
X163119047Y-94704819D01*
X163119047Y-94704819D02*
X163214285Y-94657200D01*
X163214285Y-94657200D02*
X163261904Y-94609580D01*
X163261904Y-94609580D02*
X163309523Y-94514342D01*
X163309523Y-94514342D02*
X163309523Y-93704819D01*
X164309523Y-94704819D02*
X163738095Y-94704819D01*
X164023809Y-94704819D02*
X164023809Y-93704819D01*
X164023809Y-93704819D02*
X163928571Y-93847676D01*
X163928571Y-93847676D02*
X163833333Y-93942914D01*
X163833333Y-93942914D02*
X163738095Y-93990533D01*
X176333333Y-89109580D02*
X176285714Y-89157200D01*
X176285714Y-89157200D02*
X176142857Y-89204819D01*
X176142857Y-89204819D02*
X176047619Y-89204819D01*
X176047619Y-89204819D02*
X175904762Y-89157200D01*
X175904762Y-89157200D02*
X175809524Y-89061961D01*
X175809524Y-89061961D02*
X175761905Y-88966723D01*
X175761905Y-88966723D02*
X175714286Y-88776247D01*
X175714286Y-88776247D02*
X175714286Y-88633390D01*
X175714286Y-88633390D02*
X175761905Y-88442914D01*
X175761905Y-88442914D02*
X175809524Y-88347676D01*
X175809524Y-88347676D02*
X175904762Y-88252438D01*
X175904762Y-88252438D02*
X176047619Y-88204819D01*
X176047619Y-88204819D02*
X176142857Y-88204819D01*
X176142857Y-88204819D02*
X176285714Y-88252438D01*
X176285714Y-88252438D02*
X176333333Y-88300057D01*
X177285714Y-89204819D02*
X176714286Y-89204819D01*
X177000000Y-89204819D02*
X177000000Y-88204819D01*
X177000000Y-88204819D02*
X176904762Y-88347676D01*
X176904762Y-88347676D02*
X176809524Y-88442914D01*
X176809524Y-88442914D02*
X176714286Y-88490533D01*
X145008333Y-100454819D02*
X144675000Y-99978628D01*
X144436905Y-100454819D02*
X144436905Y-99454819D01*
X144436905Y-99454819D02*
X144817857Y-99454819D01*
X144817857Y-99454819D02*
X144913095Y-99502438D01*
X144913095Y-99502438D02*
X144960714Y-99550057D01*
X144960714Y-99550057D02*
X145008333Y-99645295D01*
X145008333Y-99645295D02*
X145008333Y-99788152D01*
X145008333Y-99788152D02*
X144960714Y-99883390D01*
X144960714Y-99883390D02*
X144913095Y-99931009D01*
X144913095Y-99931009D02*
X144817857Y-99978628D01*
X144817857Y-99978628D02*
X144436905Y-99978628D01*
X145865476Y-99788152D02*
X145865476Y-100454819D01*
X145627381Y-99407200D02*
X145389286Y-100121485D01*
X145389286Y-100121485D02*
X146008333Y-100121485D01*
X129488095Y-96454819D02*
X130059523Y-96454819D01*
X129773809Y-97454819D02*
X129773809Y-96454819D01*
X130392857Y-97454819D02*
X130392857Y-96454819D01*
X130392857Y-96454819D02*
X130773809Y-96454819D01*
X130773809Y-96454819D02*
X130869047Y-96502438D01*
X130869047Y-96502438D02*
X130916666Y-96550057D01*
X130916666Y-96550057D02*
X130964285Y-96645295D01*
X130964285Y-96645295D02*
X130964285Y-96788152D01*
X130964285Y-96788152D02*
X130916666Y-96883390D01*
X130916666Y-96883390D02*
X130869047Y-96931009D01*
X130869047Y-96931009D02*
X130773809Y-96978628D01*
X130773809Y-96978628D02*
X130392857Y-96978628D01*
X131821428Y-96454819D02*
X131630952Y-96454819D01*
X131630952Y-96454819D02*
X131535714Y-96502438D01*
X131535714Y-96502438D02*
X131488095Y-96550057D01*
X131488095Y-96550057D02*
X131392857Y-96692914D01*
X131392857Y-96692914D02*
X131345238Y-96883390D01*
X131345238Y-96883390D02*
X131345238Y-97264342D01*
X131345238Y-97264342D02*
X131392857Y-97359580D01*
X131392857Y-97359580D02*
X131440476Y-97407200D01*
X131440476Y-97407200D02*
X131535714Y-97454819D01*
X131535714Y-97454819D02*
X131726190Y-97454819D01*
X131726190Y-97454819D02*
X131821428Y-97407200D01*
X131821428Y-97407200D02*
X131869047Y-97359580D01*
X131869047Y-97359580D02*
X131916666Y-97264342D01*
X131916666Y-97264342D02*
X131916666Y-97026247D01*
X131916666Y-97026247D02*
X131869047Y-96931009D01*
X131869047Y-96931009D02*
X131821428Y-96883390D01*
X131821428Y-96883390D02*
X131726190Y-96835771D01*
X131726190Y-96835771D02*
X131535714Y-96835771D01*
X131535714Y-96835771D02*
X131440476Y-96883390D01*
X131440476Y-96883390D02*
X131392857Y-96931009D01*
X131392857Y-96931009D02*
X131345238Y-97026247D01*
X129738095Y-94204819D02*
X130309523Y-94204819D01*
X130023809Y-95204819D02*
X130023809Y-94204819D01*
X130642857Y-95204819D02*
X130642857Y-94204819D01*
X130642857Y-94204819D02*
X131023809Y-94204819D01*
X131023809Y-94204819D02*
X131119047Y-94252438D01*
X131119047Y-94252438D02*
X131166666Y-94300057D01*
X131166666Y-94300057D02*
X131214285Y-94395295D01*
X131214285Y-94395295D02*
X131214285Y-94538152D01*
X131214285Y-94538152D02*
X131166666Y-94633390D01*
X131166666Y-94633390D02*
X131119047Y-94681009D01*
X131119047Y-94681009D02*
X131023809Y-94728628D01*
X131023809Y-94728628D02*
X130642857Y-94728628D01*
X132119047Y-94204819D02*
X131642857Y-94204819D01*
X131642857Y-94204819D02*
X131595238Y-94681009D01*
X131595238Y-94681009D02*
X131642857Y-94633390D01*
X131642857Y-94633390D02*
X131738095Y-94585771D01*
X131738095Y-94585771D02*
X131976190Y-94585771D01*
X131976190Y-94585771D02*
X132071428Y-94633390D01*
X132071428Y-94633390D02*
X132119047Y-94681009D01*
X132119047Y-94681009D02*
X132166666Y-94776247D01*
X132166666Y-94776247D02*
X132166666Y-95014342D01*
X132166666Y-95014342D02*
X132119047Y-95109580D01*
X132119047Y-95109580D02*
X132071428Y-95157200D01*
X132071428Y-95157200D02*
X131976190Y-95204819D01*
X131976190Y-95204819D02*
X131738095Y-95204819D01*
X131738095Y-95204819D02*
X131642857Y-95157200D01*
X131642857Y-95157200D02*
X131595238Y-95109580D01*
X142704819Y-92511904D02*
X142704819Y-91940476D01*
X143704819Y-92226190D02*
X142704819Y-92226190D01*
X143704819Y-91607142D02*
X142704819Y-91607142D01*
X142704819Y-91607142D02*
X142704819Y-91226190D01*
X142704819Y-91226190D02*
X142752438Y-91130952D01*
X142752438Y-91130952D02*
X142800057Y-91083333D01*
X142800057Y-91083333D02*
X142895295Y-91035714D01*
X142895295Y-91035714D02*
X143038152Y-91035714D01*
X143038152Y-91035714D02*
X143133390Y-91083333D01*
X143133390Y-91083333D02*
X143181009Y-91130952D01*
X143181009Y-91130952D02*
X143228628Y-91226190D01*
X143228628Y-91226190D02*
X143228628Y-91607142D01*
X142704819Y-90702380D02*
X142704819Y-90083333D01*
X142704819Y-90083333D02*
X143085771Y-90416666D01*
X143085771Y-90416666D02*
X143085771Y-90273809D01*
X143085771Y-90273809D02*
X143133390Y-90178571D01*
X143133390Y-90178571D02*
X143181009Y-90130952D01*
X143181009Y-90130952D02*
X143276247Y-90083333D01*
X143276247Y-90083333D02*
X143514342Y-90083333D01*
X143514342Y-90083333D02*
X143609580Y-90130952D01*
X143609580Y-90130952D02*
X143657200Y-90178571D01*
X143657200Y-90178571D02*
X143704819Y-90273809D01*
X143704819Y-90273809D02*
X143704819Y-90559523D01*
X143704819Y-90559523D02*
X143657200Y-90654761D01*
X143657200Y-90654761D02*
X143609580Y-90702380D01*
D11*
%TO.C,TP15*%
X143050000Y-115300000D02*
X144450000Y-115300000D01*
X143050000Y-116700000D02*
X143050000Y-115300000D01*
X144450000Y-115300000D02*
X144450000Y-116700000D01*
X144450000Y-116700000D02*
X143050000Y-116700000D01*
%TO.C,TP1*%
X138800000Y-88050000D02*
X140200000Y-88050000D01*
X138800000Y-89450000D02*
X138800000Y-88050000D01*
X140200000Y-88050000D02*
X140200000Y-89450000D01*
X140200000Y-89450000D02*
X138800000Y-89450000D01*
%TO.C,C5*%
X151890580Y-117990000D02*
X151609420Y-117990000D01*
X151890580Y-119010000D02*
X151609420Y-119010000D01*
%TO.C,TP4*%
X145550000Y-88050000D02*
X146950000Y-88050000D01*
X145550000Y-89450000D02*
X145550000Y-88050000D01*
X146950000Y-88050000D02*
X146950000Y-89450000D01*
X146950000Y-89450000D02*
X145550000Y-89450000D01*
%TO.C,R6*%
X142262742Y-104227500D02*
X142737258Y-104227500D01*
X142262742Y-105272500D02*
X142737258Y-105272500D01*
%TO.C,R3*%
X157977500Y-89087742D02*
X157977500Y-89562258D01*
X159022500Y-89087742D02*
X159022500Y-89562258D01*
%TO.C,TP14*%
X133050000Y-109800000D02*
X134450000Y-109800000D01*
X133050000Y-111200000D02*
X133050000Y-109800000D01*
X134450000Y-109800000D02*
X134450000Y-111200000D01*
X134450000Y-111200000D02*
X133050000Y-111200000D01*
%TO.C,TP7*%
X133050000Y-98550000D02*
X134450000Y-98550000D01*
X133050000Y-99950000D02*
X133050000Y-98550000D01*
X134450000Y-98550000D02*
X134450000Y-99950000D01*
X134450000Y-99950000D02*
X133050000Y-99950000D01*
%TO.C,TP10*%
X133050000Y-103050000D02*
X134450000Y-103050000D01*
X133050000Y-104450000D02*
X133050000Y-103050000D01*
X134450000Y-103050000D02*
X134450000Y-104450000D01*
X134450000Y-104450000D02*
X133050000Y-104450000D01*
%TO.C,C3*%
X173109420Y-91740000D02*
X173390580Y-91740000D01*
X173109420Y-92760000D02*
X173390580Y-92760000D01*
%TO.C,TP9*%
X184050000Y-101050000D02*
X185450000Y-101050000D01*
X184050000Y-102450000D02*
X184050000Y-101050000D01*
X185450000Y-101050000D02*
X185450000Y-102450000D01*
X185450000Y-102450000D02*
X184050000Y-102450000D01*
%TO.C,TP8*%
X133050000Y-100800000D02*
X134450000Y-100800000D01*
X133050000Y-102200000D02*
X133050000Y-100800000D01*
X134450000Y-100800000D02*
X134450000Y-102200000D01*
X134450000Y-102200000D02*
X133050000Y-102200000D01*
%TO.C,TP2*%
X141050000Y-88050000D02*
X142450000Y-88050000D01*
X141050000Y-89450000D02*
X141050000Y-88050000D01*
X142450000Y-88050000D02*
X142450000Y-89450000D01*
X142450000Y-89450000D02*
X141050000Y-89450000D01*
%TO.C,TP16*%
X145300000Y-115300000D02*
X146700000Y-115300000D01*
X145300000Y-116700000D02*
X145300000Y-115300000D01*
X146700000Y-115300000D02*
X146700000Y-116700000D01*
X146700000Y-116700000D02*
X145300000Y-116700000D01*
%TO.C,TP13*%
X133050000Y-107550000D02*
X134450000Y-107550000D01*
X133050000Y-108950000D02*
X133050000Y-107550000D01*
X134450000Y-107550000D02*
X134450000Y-108950000D01*
X134450000Y-108950000D02*
X133050000Y-108950000D01*
%TO.C,R2*%
X150227500Y-89087742D02*
X150227500Y-89562258D01*
X151272500Y-89087742D02*
X151272500Y-89562258D01*
%TO.C,C2*%
X173134420Y-89990000D02*
X173415580Y-89990000D01*
X173134420Y-91010000D02*
X173415580Y-91010000D01*
%TO.C,C4*%
X151890580Y-116240000D02*
X151609420Y-116240000D01*
X151890580Y-117260000D02*
X151609420Y-117260000D01*
%TO.C,JP1*%
X141650000Y-96050000D02*
X141650000Y-95450000D01*
X142200000Y-97250000D02*
X142800000Y-97250000D01*
X142300000Y-94750000D02*
X145100000Y-94750000D01*
X142500000Y-96950000D02*
X142200000Y-97250000D01*
X142500000Y-96950000D02*
X142800000Y-97250000D01*
X145100000Y-96750000D02*
X142300000Y-96750000D01*
X145750000Y-95450000D02*
X145750000Y-96050000D01*
X141650000Y-95450000D02*
G75*
G02*
X142350000Y-94750000I699999J1D01*
G01*
X142350000Y-96750000D02*
G75*
G02*
X141650000Y-96050000I-1J699999D01*
G01*
X145050000Y-94750000D02*
G75*
G02*
X145750000Y-95450000I0J-700000D01*
G01*
X145750000Y-96050000D02*
G75*
G02*
X145050000Y-96750000I-700000J0D01*
G01*
%TO.C,TP11*%
X185450000Y-105450000D02*
X184050000Y-105450000D01*
X185450000Y-104050000D02*
X185450000Y-105450000D01*
X184050000Y-105450000D02*
X184050000Y-104050000D01*
X184050000Y-104050000D02*
X185450000Y-104050000D01*
%TO.C,TP12*%
X133050000Y-105300000D02*
X134450000Y-105300000D01*
X133050000Y-106700000D02*
X133050000Y-105300000D01*
X134450000Y-105300000D02*
X134450000Y-106700000D01*
X134450000Y-106700000D02*
X133050000Y-106700000D01*
%TO.C,R5*%
X142262742Y-101727500D02*
X142737258Y-101727500D01*
X142262742Y-102772500D02*
X142737258Y-102772500D01*
%TO.C,R1*%
X148227500Y-89087742D02*
X148227500Y-89562258D01*
X149272500Y-89087742D02*
X149272500Y-89562258D01*
%TO.C,U1*%
X150390000Y-96640000D02*
X151090000Y-96640000D01*
X150390000Y-97340000D02*
X150390000Y-96640000D01*
X150390000Y-110160000D02*
X150390000Y-110860000D01*
X150390000Y-110860000D02*
X151090000Y-110860000D01*
X164610000Y-96640000D02*
X163910000Y-96640000D01*
X164610000Y-97340000D02*
X164610000Y-96640000D01*
X164610000Y-110160000D02*
X164610000Y-110860000D01*
X164610000Y-110860000D02*
X163910000Y-110860000D01*
X164380000Y-96390000D02*
X163910000Y-96050000D01*
X164380000Y-95710000D01*
X164380000Y-96390000D01*
G36*
X164380000Y-96390000D02*
G01*
X163910000Y-96050000D01*
X164380000Y-95710000D01*
X164380000Y-96390000D01*
G37*
%TO.C,C1*%
X173134420Y-88240000D02*
X173415580Y-88240000D01*
X173134420Y-89260000D02*
X173415580Y-89260000D01*
%TO.C,R4*%
X142262742Y-99477500D02*
X142737258Y-99477500D01*
X142262742Y-100522500D02*
X142737258Y-100522500D01*
%TO.C,TP6*%
X133050000Y-96300000D02*
X134450000Y-96300000D01*
X133050000Y-97700000D02*
X133050000Y-96300000D01*
X134450000Y-96300000D02*
X134450000Y-97700000D01*
X134450000Y-97700000D02*
X133050000Y-97700000D01*
%TO.C,TP5*%
X133050000Y-94050000D02*
X134450000Y-94050000D01*
X133050000Y-95450000D02*
X133050000Y-94050000D01*
X134450000Y-94050000D02*
X134450000Y-95450000D01*
X134450000Y-95450000D02*
X133050000Y-95450000D01*
%TO.C,TP3*%
X143300000Y-88050000D02*
X144700000Y-88050000D01*
X143300000Y-89450000D02*
X143300000Y-88050000D01*
X144700000Y-88050000D02*
X144700000Y-89450000D01*
X144700000Y-89450000D02*
X143300000Y-89450000D01*
%TD*%
M02*
