M48
; DRILL file {KiCad 8.0.6} date 2024-12-24T13:29:46-0600
; FORMAT={-:-/ absolute / metric / decimal}
; #@! TF.CreationDate,2024-12-24T13:29:46-06:00
; #@! TF.GenerationSoftware,Kicad,Pcbnew,8.0.6
; #@! TF.FileFunction,Plated,1,2,PTH
FMAT,2
METRIC
; #@! TA.AperFunction,Plated,PTH,ViaDrill
T1C0.300
; #@! TA.AperFunction,Plated,PTH,ComponentDrill
T2C0.300
; #@! TA.AperFunction,Plated,PTH,ViaDrill
T3C0.400
; #@! TA.AperFunction,Plated,PTH,ComponentDrill
T4C3.200
%
G90
G05
T1
X138.0Y-87.25
X141.75Y-91.0
X141.75Y-92.35
X143.0Y-93.25
X144.0Y-91.0
X144.275Y-98.249
X146.5Y-93.25
X147.0Y-87.0
X148.056Y-87.269
X148.75Y-86.5
X149.1Y-93.25
X149.5Y-96.0
X149.75Y-87.25
X149.75Y-91.5
X150.25Y-114.25
X151.25Y-106.75
X154.5Y-89.0
X156.0Y-86.75
X156.848Y-87.9
X157.0Y-114.25
X157.5Y-110.0
X163.5Y-98.5
X163.75Y-103.25
X164.5Y-89.5
X165.376Y-91.891
X165.443Y-95.554
X166.097Y-92.857
X166.4Y-101.75
X166.4Y-104.5
X166.414Y-95.605
X166.487Y-87.9
X166.75Y-90.25
X167.25Y-86.75
X167.373Y-95.645
X167.407Y-94.83
X167.75Y-90.25
X169.5Y-95.25
X171.5Y-101.75
X171.5Y-104.5
X173.25Y-93.75
X173.5Y-96.0
T2
X130.65Y-86.2
X130.65Y-121.75
X131.34Y-84.54
X131.34Y-87.86
X131.34Y-120.09
X131.34Y-123.41
X133.0Y-83.85
X133.0Y-88.55
X133.0Y-119.4
X133.0Y-124.1
X134.66Y-84.54
X134.66Y-87.86
X134.66Y-120.09
X134.66Y-123.41
X135.35Y-86.2
X135.35Y-121.75
X180.65Y-86.19
X180.65Y-121.75
X181.34Y-84.53
X181.34Y-87.85
X181.34Y-120.09
X181.34Y-123.41
X183.0Y-83.85
X183.0Y-88.55
X183.0Y-119.4
X183.0Y-124.1
X184.66Y-84.53
X184.66Y-87.85
X184.66Y-120.09
X184.66Y-123.41
X185.35Y-86.19
X185.35Y-121.75
T3
X140.25Y-100.0
X140.25Y-102.25
X140.25Y-104.75
X146.5Y-109.5
X147.5Y-106.75
X149.75Y-116.75
X149.75Y-118.5
X151.5Y-84.25
X152.0Y-101.25
X152.0Y-109.75
X152.5Y-84.25
X158.5Y-84.25
X158.5Y-94.2
X158.5Y-97.5
X159.533Y-88.836
X160.75Y-106.5
X162.0Y-97.75
X163.5Y-108.25
X166.5Y-84.25
X167.0Y-98.25
X167.75Y-92.75
X168.0Y-88.5
X169.0Y-90.0
X169.5Y-86.75
X170.5Y-96.5
X172.25Y-86.0
X173.25Y-87.0
X175.0Y-88.75
X175.0Y-90.5
X175.0Y-92.25
X175.25Y-94.0
T4
X133.0Y-86.2
X133.0Y-121.75
X183.0Y-86.2
X183.0Y-121.75
M30
