%TF.GenerationSoftware,KiCad,Pcbnew,8.0.6*%
%TF.CreationDate,2024-12-27T08:32:01-06:00*%
%TF.ProjectId,RECESSIM-CW312T-SAM4C32,52454345-5353-4494-9d2d-435733313254,rev?*%
%TF.SameCoordinates,Original*%
%TF.FileFunction,Legend,Bot*%
%TF.FilePolarity,Positive*%
%FSLAX46Y46*%
G04 Gerber Fmt 4.6, Leading zero omitted, Abs format (unit mm)*
G04 Created by KiCad (PCBNEW 8.0.6) date 2024-12-27 08:32:01*
%MOMM*%
%LPD*%
G01*
G04 APERTURE LIST*
%ADD10C,0.200000*%
%ADD11C,0.150000*%
%ADD12C,0.120000*%
G04 APERTURE END LIST*
D10*
X170904136Y-122663171D02*
X170975564Y-122734600D01*
X170975564Y-122734600D02*
X171189850Y-122806028D01*
X171189850Y-122806028D02*
X171332707Y-122806028D01*
X171332707Y-122806028D02*
X171546993Y-122734600D01*
X171546993Y-122734600D02*
X171689850Y-122591742D01*
X171689850Y-122591742D02*
X171761279Y-122448885D01*
X171761279Y-122448885D02*
X171832707Y-122163171D01*
X171832707Y-122163171D02*
X171832707Y-121948885D01*
X171832707Y-121948885D02*
X171761279Y-121663171D01*
X171761279Y-121663171D02*
X171689850Y-121520314D01*
X171689850Y-121520314D02*
X171546993Y-121377457D01*
X171546993Y-121377457D02*
X171332707Y-121306028D01*
X171332707Y-121306028D02*
X171189850Y-121306028D01*
X171189850Y-121306028D02*
X170975564Y-121377457D01*
X170975564Y-121377457D02*
X170904136Y-121448885D01*
X170475564Y-121306028D02*
X169975564Y-122806028D01*
X169975564Y-122806028D02*
X169475564Y-121306028D01*
X168975565Y-122020314D02*
X168475565Y-122020314D01*
X168261279Y-122806028D02*
X168975565Y-122806028D01*
X168975565Y-122806028D02*
X168975565Y-121306028D01*
X168975565Y-121306028D02*
X168261279Y-121306028D01*
X167689850Y-122734600D02*
X167546993Y-122806028D01*
X167546993Y-122806028D02*
X167261279Y-122806028D01*
X167261279Y-122806028D02*
X167118422Y-122734600D01*
X167118422Y-122734600D02*
X167046993Y-122591742D01*
X167046993Y-122591742D02*
X167046993Y-122520314D01*
X167046993Y-122520314D02*
X167118422Y-122377457D01*
X167118422Y-122377457D02*
X167261279Y-122306028D01*
X167261279Y-122306028D02*
X167475565Y-122306028D01*
X167475565Y-122306028D02*
X167618422Y-122234600D01*
X167618422Y-122234600D02*
X167689850Y-122091742D01*
X167689850Y-122091742D02*
X167689850Y-122020314D01*
X167689850Y-122020314D02*
X167618422Y-121877457D01*
X167618422Y-121877457D02*
X167475565Y-121806028D01*
X167475565Y-121806028D02*
X167261279Y-121806028D01*
X167261279Y-121806028D02*
X167118422Y-121877457D01*
X164618422Y-122806028D02*
X164618422Y-122020314D01*
X164618422Y-122020314D02*
X164689850Y-121877457D01*
X164689850Y-121877457D02*
X164832707Y-121806028D01*
X164832707Y-121806028D02*
X165118422Y-121806028D01*
X165118422Y-121806028D02*
X165261279Y-121877457D01*
X164618422Y-122734600D02*
X164761279Y-122806028D01*
X164761279Y-122806028D02*
X165118422Y-122806028D01*
X165118422Y-122806028D02*
X165261279Y-122734600D01*
X165261279Y-122734600D02*
X165332707Y-122591742D01*
X165332707Y-122591742D02*
X165332707Y-122448885D01*
X165332707Y-122448885D02*
X165261279Y-122306028D01*
X165261279Y-122306028D02*
X165118422Y-122234600D01*
X165118422Y-122234600D02*
X164761279Y-122234600D01*
X164761279Y-122234600D02*
X164618422Y-122163171D01*
X163904136Y-122806028D02*
X163904136Y-121806028D01*
X163904136Y-122091742D02*
X163832707Y-121948885D01*
X163832707Y-121948885D02*
X163761279Y-121877457D01*
X163761279Y-121877457D02*
X163618421Y-121806028D01*
X163618421Y-121806028D02*
X163475564Y-121806028D01*
X162404136Y-122734600D02*
X162546993Y-122806028D01*
X162546993Y-122806028D02*
X162832708Y-122806028D01*
X162832708Y-122806028D02*
X162975565Y-122734600D01*
X162975565Y-122734600D02*
X163046993Y-122591742D01*
X163046993Y-122591742D02*
X163046993Y-122020314D01*
X163046993Y-122020314D02*
X162975565Y-121877457D01*
X162975565Y-121877457D02*
X162832708Y-121806028D01*
X162832708Y-121806028D02*
X162546993Y-121806028D01*
X162546993Y-121806028D02*
X162404136Y-121877457D01*
X162404136Y-121877457D02*
X162332708Y-122020314D01*
X162332708Y-122020314D02*
X162332708Y-122163171D01*
X162332708Y-122163171D02*
X163046993Y-122306028D01*
X160761279Y-121806028D02*
X160189851Y-121806028D01*
X160546994Y-122806028D02*
X160546994Y-121520314D01*
X160546994Y-121520314D02*
X160475565Y-121377457D01*
X160475565Y-121377457D02*
X160332708Y-121306028D01*
X160332708Y-121306028D02*
X160189851Y-121306028D01*
X159475565Y-122806028D02*
X159618422Y-122734600D01*
X159618422Y-122734600D02*
X159689851Y-122663171D01*
X159689851Y-122663171D02*
X159761279Y-122520314D01*
X159761279Y-122520314D02*
X159761279Y-122091742D01*
X159761279Y-122091742D02*
X159689851Y-121948885D01*
X159689851Y-121948885D02*
X159618422Y-121877457D01*
X159618422Y-121877457D02*
X159475565Y-121806028D01*
X159475565Y-121806028D02*
X159261279Y-121806028D01*
X159261279Y-121806028D02*
X159118422Y-121877457D01*
X159118422Y-121877457D02*
X159046994Y-121948885D01*
X159046994Y-121948885D02*
X158975565Y-122091742D01*
X158975565Y-122091742D02*
X158975565Y-122520314D01*
X158975565Y-122520314D02*
X159046994Y-122663171D01*
X159046994Y-122663171D02*
X159118422Y-122734600D01*
X159118422Y-122734600D02*
X159261279Y-122806028D01*
X159261279Y-122806028D02*
X159475565Y-122806028D01*
X158332708Y-122806028D02*
X158332708Y-121806028D01*
X158332708Y-122091742D02*
X158261279Y-121948885D01*
X158261279Y-121948885D02*
X158189851Y-121877457D01*
X158189851Y-121877457D02*
X158046993Y-121806028D01*
X158046993Y-121806028D02*
X157904136Y-121806028D01*
X156332708Y-122734600D02*
X156118423Y-122806028D01*
X156118423Y-122806028D02*
X155761280Y-122806028D01*
X155761280Y-122806028D02*
X155618423Y-122734600D01*
X155618423Y-122734600D02*
X155546994Y-122663171D01*
X155546994Y-122663171D02*
X155475565Y-122520314D01*
X155475565Y-122520314D02*
X155475565Y-122377457D01*
X155475565Y-122377457D02*
X155546994Y-122234600D01*
X155546994Y-122234600D02*
X155618423Y-122163171D01*
X155618423Y-122163171D02*
X155761280Y-122091742D01*
X155761280Y-122091742D02*
X156046994Y-122020314D01*
X156046994Y-122020314D02*
X156189851Y-121948885D01*
X156189851Y-121948885D02*
X156261280Y-121877457D01*
X156261280Y-121877457D02*
X156332708Y-121734600D01*
X156332708Y-121734600D02*
X156332708Y-121591742D01*
X156332708Y-121591742D02*
X156261280Y-121448885D01*
X156261280Y-121448885D02*
X156189851Y-121377457D01*
X156189851Y-121377457D02*
X156046994Y-121306028D01*
X156046994Y-121306028D02*
X155689851Y-121306028D01*
X155689851Y-121306028D02*
X155475565Y-121377457D01*
X154832709Y-122806028D02*
X154832709Y-121306028D01*
X154832709Y-121306028D02*
X153975566Y-122806028D01*
X153975566Y-122806028D02*
X153975566Y-121306028D01*
X153261280Y-122806028D02*
X153261280Y-121306028D01*
X152761279Y-121306028D02*
X151904137Y-121306028D01*
X152332708Y-122806028D02*
X152332708Y-121306028D01*
X150546994Y-122663171D02*
X150618422Y-122734600D01*
X150618422Y-122734600D02*
X150832708Y-122806028D01*
X150832708Y-122806028D02*
X150975565Y-122806028D01*
X150975565Y-122806028D02*
X151189851Y-122734600D01*
X151189851Y-122734600D02*
X151332708Y-122591742D01*
X151332708Y-122591742D02*
X151404137Y-122448885D01*
X151404137Y-122448885D02*
X151475565Y-122163171D01*
X151475565Y-122163171D02*
X151475565Y-121948885D01*
X151475565Y-121948885D02*
X151404137Y-121663171D01*
X151404137Y-121663171D02*
X151332708Y-121520314D01*
X151332708Y-121520314D02*
X151189851Y-121377457D01*
X151189851Y-121377457D02*
X150975565Y-121306028D01*
X150975565Y-121306028D02*
X150832708Y-121306028D01*
X150832708Y-121306028D02*
X150618422Y-121377457D01*
X150618422Y-121377457D02*
X150546994Y-121448885D01*
X149904137Y-122806028D02*
X149904137Y-121306028D01*
X149904137Y-122020314D02*
X149046994Y-122020314D01*
X149046994Y-122806028D02*
X149046994Y-121306028D01*
X148332708Y-122020314D02*
X147832708Y-122020314D01*
X147618422Y-122806028D02*
X148332708Y-122806028D01*
X148332708Y-122806028D02*
X148332708Y-121306028D01*
X148332708Y-121306028D02*
X147618422Y-121306028D01*
X147046993Y-122734600D02*
X146832708Y-122806028D01*
X146832708Y-122806028D02*
X146475565Y-122806028D01*
X146475565Y-122806028D02*
X146332708Y-122734600D01*
X146332708Y-122734600D02*
X146261279Y-122663171D01*
X146261279Y-122663171D02*
X146189850Y-122520314D01*
X146189850Y-122520314D02*
X146189850Y-122377457D01*
X146189850Y-122377457D02*
X146261279Y-122234600D01*
X146261279Y-122234600D02*
X146332708Y-122163171D01*
X146332708Y-122163171D02*
X146475565Y-122091742D01*
X146475565Y-122091742D02*
X146761279Y-122020314D01*
X146761279Y-122020314D02*
X146904136Y-121948885D01*
X146904136Y-121948885D02*
X146975565Y-121877457D01*
X146975565Y-121877457D02*
X147046993Y-121734600D01*
X147046993Y-121734600D02*
X147046993Y-121591742D01*
X147046993Y-121591742D02*
X146975565Y-121448885D01*
X146975565Y-121448885D02*
X146904136Y-121377457D01*
X146904136Y-121377457D02*
X146761279Y-121306028D01*
X146761279Y-121306028D02*
X146404136Y-121306028D01*
X146404136Y-121306028D02*
X146189850Y-121377457D01*
D11*
X156566666Y-91009580D02*
X156614285Y-91057200D01*
X156614285Y-91057200D02*
X156757142Y-91104819D01*
X156757142Y-91104819D02*
X156852380Y-91104819D01*
X156852380Y-91104819D02*
X156995237Y-91057200D01*
X156995237Y-91057200D02*
X157090475Y-90961961D01*
X157090475Y-90961961D02*
X157138094Y-90866723D01*
X157138094Y-90866723D02*
X157185713Y-90676247D01*
X157185713Y-90676247D02*
X157185713Y-90533390D01*
X157185713Y-90533390D02*
X157138094Y-90342914D01*
X157138094Y-90342914D02*
X157090475Y-90247676D01*
X157090475Y-90247676D02*
X156995237Y-90152438D01*
X156995237Y-90152438D02*
X156852380Y-90104819D01*
X156852380Y-90104819D02*
X156757142Y-90104819D01*
X156757142Y-90104819D02*
X156614285Y-90152438D01*
X156614285Y-90152438D02*
X156566666Y-90200057D01*
X156233332Y-90104819D02*
X155566666Y-90104819D01*
X155566666Y-90104819D02*
X155995237Y-91104819D01*
X163266666Y-93959580D02*
X163314285Y-94007200D01*
X163314285Y-94007200D02*
X163457142Y-94054819D01*
X163457142Y-94054819D02*
X163552380Y-94054819D01*
X163552380Y-94054819D02*
X163695237Y-94007200D01*
X163695237Y-94007200D02*
X163790475Y-93911961D01*
X163790475Y-93911961D02*
X163838094Y-93816723D01*
X163838094Y-93816723D02*
X163885713Y-93626247D01*
X163885713Y-93626247D02*
X163885713Y-93483390D01*
X163885713Y-93483390D02*
X163838094Y-93292914D01*
X163838094Y-93292914D02*
X163790475Y-93197676D01*
X163790475Y-93197676D02*
X163695237Y-93102438D01*
X163695237Y-93102438D02*
X163552380Y-93054819D01*
X163552380Y-93054819D02*
X163457142Y-93054819D01*
X163457142Y-93054819D02*
X163314285Y-93102438D01*
X163314285Y-93102438D02*
X163266666Y-93150057D01*
X162790475Y-94054819D02*
X162599999Y-94054819D01*
X162599999Y-94054819D02*
X162504761Y-94007200D01*
X162504761Y-94007200D02*
X162457142Y-93959580D01*
X162457142Y-93959580D02*
X162361904Y-93816723D01*
X162361904Y-93816723D02*
X162314285Y-93626247D01*
X162314285Y-93626247D02*
X162314285Y-93245295D01*
X162314285Y-93245295D02*
X162361904Y-93150057D01*
X162361904Y-93150057D02*
X162409523Y-93102438D01*
X162409523Y-93102438D02*
X162504761Y-93054819D01*
X162504761Y-93054819D02*
X162695237Y-93054819D01*
X162695237Y-93054819D02*
X162790475Y-93102438D01*
X162790475Y-93102438D02*
X162838094Y-93150057D01*
X162838094Y-93150057D02*
X162885713Y-93245295D01*
X162885713Y-93245295D02*
X162885713Y-93483390D01*
X162885713Y-93483390D02*
X162838094Y-93578628D01*
X162838094Y-93578628D02*
X162790475Y-93626247D01*
X162790475Y-93626247D02*
X162695237Y-93673866D01*
X162695237Y-93673866D02*
X162504761Y-93673866D01*
X162504761Y-93673866D02*
X162409523Y-93626247D01*
X162409523Y-93626247D02*
X162361904Y-93578628D01*
X162361904Y-93578628D02*
X162314285Y-93483390D01*
X154166666Y-95909580D02*
X154214285Y-95957200D01*
X154214285Y-95957200D02*
X154357142Y-96004819D01*
X154357142Y-96004819D02*
X154452380Y-96004819D01*
X154452380Y-96004819D02*
X154595237Y-95957200D01*
X154595237Y-95957200D02*
X154690475Y-95861961D01*
X154690475Y-95861961D02*
X154738094Y-95766723D01*
X154738094Y-95766723D02*
X154785713Y-95576247D01*
X154785713Y-95576247D02*
X154785713Y-95433390D01*
X154785713Y-95433390D02*
X154738094Y-95242914D01*
X154738094Y-95242914D02*
X154690475Y-95147676D01*
X154690475Y-95147676D02*
X154595237Y-95052438D01*
X154595237Y-95052438D02*
X154452380Y-95004819D01*
X154452380Y-95004819D02*
X154357142Y-95004819D01*
X154357142Y-95004819D02*
X154214285Y-95052438D01*
X154214285Y-95052438D02*
X154166666Y-95100057D01*
X153309523Y-95004819D02*
X153499999Y-95004819D01*
X153499999Y-95004819D02*
X153595237Y-95052438D01*
X153595237Y-95052438D02*
X153642856Y-95100057D01*
X153642856Y-95100057D02*
X153738094Y-95242914D01*
X153738094Y-95242914D02*
X153785713Y-95433390D01*
X153785713Y-95433390D02*
X153785713Y-95814342D01*
X153785713Y-95814342D02*
X153738094Y-95909580D01*
X153738094Y-95909580D02*
X153690475Y-95957200D01*
X153690475Y-95957200D02*
X153595237Y-96004819D01*
X153595237Y-96004819D02*
X153404761Y-96004819D01*
X153404761Y-96004819D02*
X153309523Y-95957200D01*
X153309523Y-95957200D02*
X153261904Y-95909580D01*
X153261904Y-95909580D02*
X153214285Y-95814342D01*
X153214285Y-95814342D02*
X153214285Y-95576247D01*
X153214285Y-95576247D02*
X153261904Y-95481009D01*
X153261904Y-95481009D02*
X153309523Y-95433390D01*
X153309523Y-95433390D02*
X153404761Y-95385771D01*
X153404761Y-95385771D02*
X153595237Y-95385771D01*
X153595237Y-95385771D02*
X153690475Y-95433390D01*
X153690475Y-95433390D02*
X153738094Y-95481009D01*
X153738094Y-95481009D02*
X153785713Y-95576247D01*
X159966666Y-99865122D02*
X160014285Y-99912742D01*
X160014285Y-99912742D02*
X160157142Y-99960361D01*
X160157142Y-99960361D02*
X160252380Y-99960361D01*
X160252380Y-99960361D02*
X160395237Y-99912742D01*
X160395237Y-99912742D02*
X160490475Y-99817503D01*
X160490475Y-99817503D02*
X160538094Y-99722265D01*
X160538094Y-99722265D02*
X160585713Y-99531789D01*
X160585713Y-99531789D02*
X160585713Y-99388932D01*
X160585713Y-99388932D02*
X160538094Y-99198456D01*
X160538094Y-99198456D02*
X160490475Y-99103218D01*
X160490475Y-99103218D02*
X160395237Y-99007980D01*
X160395237Y-99007980D02*
X160252380Y-98960361D01*
X160252380Y-98960361D02*
X160157142Y-98960361D01*
X160157142Y-98960361D02*
X160014285Y-99007980D01*
X160014285Y-99007980D02*
X159966666Y-99055599D01*
X159395237Y-99388932D02*
X159490475Y-99341313D01*
X159490475Y-99341313D02*
X159538094Y-99293694D01*
X159538094Y-99293694D02*
X159585713Y-99198456D01*
X159585713Y-99198456D02*
X159585713Y-99150837D01*
X159585713Y-99150837D02*
X159538094Y-99055599D01*
X159538094Y-99055599D02*
X159490475Y-99007980D01*
X159490475Y-99007980D02*
X159395237Y-98960361D01*
X159395237Y-98960361D02*
X159204761Y-98960361D01*
X159204761Y-98960361D02*
X159109523Y-99007980D01*
X159109523Y-99007980D02*
X159061904Y-99055599D01*
X159061904Y-99055599D02*
X159014285Y-99150837D01*
X159014285Y-99150837D02*
X159014285Y-99198456D01*
X159014285Y-99198456D02*
X159061904Y-99293694D01*
X159061904Y-99293694D02*
X159109523Y-99341313D01*
X159109523Y-99341313D02*
X159204761Y-99388932D01*
X159204761Y-99388932D02*
X159395237Y-99388932D01*
X159395237Y-99388932D02*
X159490475Y-99436551D01*
X159490475Y-99436551D02*
X159538094Y-99484170D01*
X159538094Y-99484170D02*
X159585713Y-99579408D01*
X159585713Y-99579408D02*
X159585713Y-99769884D01*
X159585713Y-99769884D02*
X159538094Y-99865122D01*
X159538094Y-99865122D02*
X159490475Y-99912742D01*
X159490475Y-99912742D02*
X159395237Y-99960361D01*
X159395237Y-99960361D02*
X159204761Y-99960361D01*
X159204761Y-99960361D02*
X159109523Y-99912742D01*
X159109523Y-99912742D02*
X159061904Y-99865122D01*
X159061904Y-99865122D02*
X159014285Y-99769884D01*
X159014285Y-99769884D02*
X159014285Y-99579408D01*
X159014285Y-99579408D02*
X159061904Y-99484170D01*
X159061904Y-99484170D02*
X159109523Y-99436551D01*
X159109523Y-99436551D02*
X159204761Y-99388932D01*
D12*
%TO.C,C7*%
X157534934Y-90671122D02*
X157534934Y-90389962D01*
X158554934Y-90671122D02*
X158554934Y-90389962D01*
%TO.C,C9*%
X162929354Y-94520542D02*
X163210514Y-94520542D01*
X162929354Y-95540542D02*
X163210514Y-95540542D01*
%TO.C,C6*%
X154160514Y-93520542D02*
X153879354Y-93520542D01*
X154160514Y-94540542D02*
X153879354Y-94540542D01*
%TO.C,C8*%
X161034934Y-99364962D02*
X161034934Y-99646122D01*
X162054934Y-99364962D02*
X162054934Y-99646122D01*
%TD*%
M02*
